<svg width="94" height="78" viewBox="0 0 100 78" fill="none" xmlns="http://www.w3.org/2000/svg">
<g filter="url(#filter0_d)">
<g clip-path="url(#clip0)">
<path d="M57.4529 39.389V46.9333C57.4529 47.2214 57.3603 47.5096 57.1647 47.6949C56.9692 47.9831 56.7839 48.0757 56.4957 48.1683L50.1968 49.1255C49.7233 50.3709 49.3425 51.4207 48.8588 52.275C49.6204 53.4174 50.8658 54.951 52.4817 56.9477C52.6773 57.2359 52.8625 57.5241 52.8625 57.802C52.8625 58.0902 52.7699 58.3784 52.5743 58.5636C51.998 59.4179 50.8555 60.6633 49.2293 62.2894C47.6031 63.9156 46.5533 64.6773 45.9872 64.6773C45.699 64.6773 45.4109 64.5846 45.133 64.3891L40.4602 60.6633C39.4104 61.1367 38.4532 61.6204 37.3108 62.0013C36.93 65.0581 36.6418 67.2504 36.3536 68.3928C36.158 69.0618 35.7772 69.35 35.1082 69.35H27.3787C27.0905 69.35 26.8023 69.2574 26.5244 69.0618C26.2362 68.8663 26.1436 68.5884 26.1436 68.3002L25.1864 62.0013C24.0439 61.6204 23.0867 61.2396 22.1296 60.7559L17.3539 64.3788C17.1583 64.5743 16.8805 64.667 16.4996 64.667C16.2115 64.667 15.9233 64.5743 15.6454 64.2862C12.7841 61.7131 10.8697 59.7987 10.0155 58.5533C9.8199 58.3578 9.72727 58.0799 9.72727 57.7917C9.72727 57.5035 9.8199 57.2153 10.0155 57.0301C10.3963 56.5566 10.9726 55.7847 11.7343 54.7349C12.5885 53.685 13.1649 52.9234 13.5457 52.347C12.9694 51.2046 12.4959 50.0518 12.1151 49.002L5.81618 48.0448C5.52799 48.0448 5.2398 47.8493 5.05454 47.664C4.85899 47.3758 4.76636 47.1906 4.76636 46.9024V39.2655C4.76636 38.9773 4.85899 38.6891 5.05454 38.5038C5.2501 38.2156 5.43536 38.123 5.72354 38.0304L12.1151 37.0732C12.4033 36.0234 12.8767 34.9735 13.4531 33.9237C12.4959 32.5857 11.3535 31.0625 9.83019 29.251C9.63464 28.9628 9.44938 28.6746 9.44938 28.3967C9.44938 28.2012 9.54201 27.9233 9.73756 27.6351C10.3139 26.7808 11.4564 25.6281 13.0826 24.0122C14.7088 22.3963 15.8512 21.5317 16.3247 21.5317C16.6129 21.5317 16.901 21.6244 17.1789 21.9126L21.8414 25.5458C22.8912 25.0723 23.8484 24.5886 24.9908 24.2077C25.3716 21.1509 25.6598 18.9586 25.948 17.8162C26.1436 17.1472 26.5244 16.859 27.1934 16.859H35.0156C35.3038 16.859 35.5919 16.9516 35.8698 17.1472C36.158 17.3427 36.2507 17.6206 36.2507 17.9088L37.2078 24.2077C38.3503 24.5886 39.3075 24.9694 40.2647 25.4531L45.133 21.8302C45.3285 21.6347 45.6064 21.542 45.9872 21.542C46.2754 21.542 46.5636 21.6347 46.8415 21.9228C49.8057 24.5989 51.6171 26.5956 52.4714 27.7483C52.667 27.9439 52.7596 28.2218 52.7596 28.51C52.7596 28.7981 52.667 29.0863 52.4714 29.2716C52.0906 29.745 51.5142 30.517 50.7526 31.5668C49.8983 32.6166 49.3219 33.3782 48.9411 33.9546C49.5175 35.0971 49.9909 36.2498 50.3718 37.2996L56.6707 38.2568C56.9589 38.2568 57.2471 38.4524 57.4323 38.6376C57.3603 38.8229 57.4529 39.1008 57.4529 39.389Z" fill="#00F8BE"/>
<circle cx="31.0921" cy="43.2733" r="12.9054" fill="#031634"/>
</g>
<g clip-path="url(#clip1)">
<path d="M89.2618 15.0474V20.0415C89.2618 20.2323 89.2005 20.4231 89.071 20.5457C88.9416 20.7365 88.8189 20.7978 88.6282 20.8591L84.4584 21.4928C84.145 22.3172 83.8929 23.0122 83.5727 23.5777C84.0768 24.3339 84.9013 25.3491 85.971 26.6709C86.1004 26.8617 86.2231 27.0525 86.2231 27.2364C86.2231 27.4272 86.1617 27.618 86.0323 27.7406C85.6507 28.3061 84.8944 29.1305 83.8179 30.207C82.7414 31.2836 82.0465 31.7877 81.6717 31.7877C81.481 31.7877 81.2902 31.7264 81.1062 31.597L78.013 29.1305C77.318 29.444 76.6844 29.7642 75.9281 30.0163C75.676 32.0398 75.4852 33.4911 75.2944 34.2474C75.165 34.6902 74.9129 34.881 74.47 34.881H69.3532C69.1624 34.881 68.9717 34.8197 68.7877 34.6902C68.5969 34.5608 68.5356 34.3768 68.5356 34.186L67.902 30.0163C67.1457 29.7642 66.512 29.5121 65.8784 29.1919L62.717 31.5902C62.5875 31.7196 62.4036 31.7809 62.1515 31.7809C61.9607 31.7809 61.7699 31.7196 61.586 31.5288C59.6919 29.8255 58.4246 28.5582 57.8591 27.7338C57.7296 27.6044 57.6683 27.4204 57.6683 27.2296C57.6683 27.0388 57.7296 26.8481 57.8591 26.7254C58.1112 26.412 58.4927 25.901 58.9969 25.2061C59.5624 24.5111 59.944 24.0069 60.1961 23.6254C59.8145 22.8691 59.5011 22.106 59.249 21.411L55.0792 20.7774C54.8885 20.7774 54.6977 20.6479 54.5751 20.5253C54.4456 20.3345 54.3843 20.2119 54.3843 20.0211V14.9656C54.3843 14.7748 54.4456 14.584 54.5751 14.4614C54.7045 14.2706 54.8271 14.2093 55.0179 14.148L59.249 13.5143C59.4398 12.8194 59.7532 12.1244 60.1347 11.4295C59.5011 10.5437 58.7448 9.53535 57.7364 8.33621C57.607 8.14543 57.4844 7.95466 57.4844 7.7707C57.4844 7.64124 57.5457 7.45728 57.6751 7.26651C58.0567 6.701 58.813 5.93791 59.8895 4.86821C60.966 3.79852 61.7223 3.22619 62.0357 3.22619C62.2264 3.22619 62.4172 3.28751 62.6012 3.47829L65.6876 5.8834C66.3826 5.56999 67.0162 5.24976 67.7725 4.99766C68.0246 2.9741 68.2154 1.52286 68.4061 0.766576C68.5356 0.323709 68.7877 0.132935 69.2306 0.132935H74.4087C74.5995 0.132935 74.7903 0.194255 74.9742 0.323709C75.165 0.453162 75.2263 0.637123 75.2263 0.827896L75.8599 4.99766C76.6162 5.24976 77.2499 5.50185 77.8835 5.82208L81.1062 3.42378C81.2357 3.29433 81.4196 3.23301 81.6717 3.23301C81.8625 3.23301 82.0533 3.29433 82.2372 3.4851C84.1995 5.25657 85.3986 6.57836 85.9641 7.34146C86.0936 7.47091 86.1549 7.65487 86.1549 7.84564C86.1549 8.03642 86.0936 8.22719 85.9641 8.34983C85.712 8.66325 85.3305 9.17425 84.8263 9.86921C84.2608 10.5642 83.8793 11.0684 83.6272 11.4499C84.0087 12.2062 84.3221 12.9693 84.5742 13.6642L88.744 14.2979C88.9348 14.2979 89.1255 14.4273 89.2482 14.55C89.2005 14.6726 89.2618 14.8566 89.2618 15.0474Z" fill="#00F8BE"/>
<circle cx="71.8114" cy="17.6183" r="8.54312" fill="#031634"/>
</g>
</g>
<defs>
<filter id="filter0_d" x="0.755859" y="0.0710449" width="92.5057" height="77.3919" filterUnits="userSpaceOnUse" color-interpolation-filters="sRGB">
<feFlood flood-opacity="0" result="BackgroundImageFix"/>
<feColorMatrix in="SourceAlpha" type="matrix" values="0 0 0 0 0 0 0 0 0 0 0 0 0 0 0 0 0 0 127 0" result="hardAlpha"/>
<feOffset dy="4"/>
<feGaussianBlur stdDeviation="2"/>
<feComposite in2="hardAlpha" operator="out"/>
<feColorMatrix type="matrix" values="0 0 0 0 0 0 0 0 0 0 0 0 0 0 0 0 0 0 0.25 0"/>
<feBlend mode="normal" in2="BackgroundImageFix" result="effect1_dropShadow"/>
<feBlend mode="normal" in="SourceGraphic" in2="effect1_dropShadow" result="shape"/>
</filter>
<clipPath id="clip0">
<rect width="52.6968" height="52.6968" fill="white" transform="translate(4.75586 16.7661)"/>
</clipPath>
<clipPath id="clip1">
<rect width="34.8843" height="34.8843" fill="white" transform="translate(54.3772 0.0710449)"/>
</clipPath>
</defs>
</svg>
