<svg width="510" height="1747" viewBox="0 0 510 1747" fill="none" xmlns="http://www.w3.org/2000/svg">
<rect width="510" height="1747" fill="#1858A2"/>
<line x1="323.951" y1="28.5" x2="506.049" y2="28.5" stroke="white"/>
<ellipse cx="70.9518" cy="176.112" rx="2.36145" ry="2.11224" fill="white"/>
<ellipse cx="118.181" cy="176.112" rx="2.36145" ry="2.11224" fill="white"/>
<ellipse cx="118.181" cy="185.5" rx="2.36145" ry="2.11225" fill="white"/>
<ellipse cx="94.5663" cy="194.888" rx="2.36145" ry="2.11225" fill="white"/>
<ellipse cx="82.1687" cy="194.888" rx="2.36145" ry="2.11225" fill="white"/>
<ellipse cx="70.3614" cy="194.888" rx="2.36145" ry="2.11225" fill="white"/>
<ellipse cx="106.374" cy="194.888" rx="2.36145" ry="2.11225" fill="white"/>
<ellipse cx="118.181" cy="194.888" rx="2.36145" ry="2.11225" fill="white"/>
<ellipse cx="128.217" cy="194.888" rx="2.36144" ry="2.11225" fill="white"/>
<ellipse cx="128.217" cy="185.5" rx="2.36144" ry="2.11225" fill="white"/>
<ellipse cx="128.217" cy="176.112" rx="2.36144" ry="2.11224" fill="white"/>
<ellipse cx="140.024" cy="176.112" rx="2.36145" ry="2.11224" fill="white"/>
<ellipse cx="140.024" cy="185.5" rx="2.36145" ry="2.11225" fill="white"/>
<ellipse cx="140.024" cy="194.888" rx="2.36145" ry="2.11225" fill="white"/>
<ellipse cx="151.831" cy="194.888" rx="2.36144" ry="2.11225" fill="white"/>
<ellipse cx="151.831" cy="185.5" rx="2.36144" ry="2.11225" fill="white"/>
<ellipse cx="151.831" cy="176.112" rx="2.36144" ry="2.11224" fill="white"/>
<ellipse cx="163.639" cy="176.112" rx="2.36145" ry="2.11224" fill="white"/>
<ellipse cx="163.639" cy="185.5" rx="2.36145" ry="2.11225" fill="white"/>
<ellipse cx="163.639" cy="194.888" rx="2.36145" ry="2.11225" fill="white"/>
<ellipse cx="106.374" cy="185.5" rx="2.36145" ry="2.11225" fill="white"/>
<ellipse cx="94.5663" cy="185.5" rx="2.36145" ry="2.11225" fill="white"/>
<ellipse cx="82.1687" cy="185.5" rx="2.36145" ry="2.11225" fill="white"/>
<ellipse cx="70.9518" cy="185.5" rx="2.36145" ry="2.11225" fill="white"/>
<ellipse cx="106.374" cy="176.112" rx="2.36145" ry="2.11224" fill="white"/>
<ellipse cx="94.5663" cy="176.112" rx="2.36145" ry="2.11224" fill="white"/>
<ellipse cx="82.1687" cy="176.112" rx="2.36145" ry="2.11224" fill="white"/>
</svg>
