<svg width="54" height="60" viewBox="0 0 54 60" fill="none" xmlns="http://www.w3.org/2000/svg">
<path d="M5.61035 53.0531V24.8281L22.8106 33.4547C26.0129 35.0608 29.7957 35.0118 32.9553 33.3232L48.4262 25.0551V53.0531C48.4262 53.9234 47.7206 54.6289 46.8503 54.6289H7.18621C6.31589 54.6289 5.61035 53.9234 5.61035 53.0531ZM43.8557 16.777L28.4987 24.9842C28.0473 25.2254 27.5069 25.2324 27.0495 25.003L10.6357 16.7708L26.9228 6.86745C27.4397 6.55318 28.0908 6.56249 28.5984 6.89141L43.8557 16.777Z" stroke="white" stroke-width="9.45517"/>
<path d="M9.25984 9.44518C9.25984 7.70453 10.6709 6.29346 12.4116 6.29346H42.941C44.6817 6.29346 46.0928 7.70453 46.0928 9.44518V14.019C46.0928 15.1841 45.45 16.2541 44.4214 16.8014L29.2646 24.8656C28.3443 25.3552 27.2414 25.3581 26.3185 24.8733L10.9458 16.7978C9.90912 16.2532 9.25984 15.1787 9.25984 14.0077V9.44518Z" fill="#335384"/>
<line x1="15.8366" y1="12.7938" x2="38.1859" y2="12.9203" stroke="white" stroke-width="2.36379" stroke-linecap="round"/>
<line x1="15.8366" y1="16.7156" x2="38.1859" y2="16.842" stroke="white" stroke-width="2.36379" stroke-linecap="round"/>
</svg>
