<svg width="54" height="60" viewBox="0 0 54 60" fill="none" xmlns="http://www.w3.org/2000/svg">
<path d="M5.46468 53.0648V19.8382L26.7771 6.87917C27.294 6.5649 27.9451 6.57421 28.4528 6.90313L31.0235 2.93556L28.4528 6.90313L48.2805 19.75V53.0648C48.2805 53.9351 47.575 54.6407 46.7047 54.6407H7.04055C6.17022 54.6407 5.46468 53.9351 5.46468 53.0648Z" stroke="white" stroke-width="9.45517"/>
<path d="M9.11417 9.4569C9.11417 7.71625 10.5252 6.30518 12.2659 6.30518H42.7954C44.536 6.30518 45.9471 7.71625 45.9471 9.4569V14.0307C45.9471 15.1958 45.3043 16.2658 44.2758 16.8131L29.1189 24.8773C28.1986 25.367 27.0957 25.3699 26.1728 24.8851L10.8002 16.8095C9.76346 16.2649 9.11417 15.1904 9.11417 14.0194V9.4569Z" fill="#D2E0F4"/>
<line x1="15.691" y1="12.8055" x2="38.0402" y2="12.932" stroke="#5F2B20" stroke-width="2.36379" stroke-linecap="round"/>
<line x1="15.691" y1="16.7273" x2="38.0402" y2="16.8537" stroke="#5F2B20" stroke-width="2.36379" stroke-linecap="round"/>
</svg>
