<svg width="322" height="368" viewBox="0 0 322 368" fill="none" xmlns="http://www.w3.org/2000/svg">
<path d="M161.546 26.5C205.261 26.4 249.076 26.5 292.89 26.4C288.816 70 285.339 113.7 281.266 157.3C277.788 195.4 274.51 233.6 271.231 271.7C269.94 284.2 269.244 296.8 267.654 309.4C236.061 318.1 204.467 326.9 172.773 335.6C169.097 336.8 165.222 337.7 161.447 338.3C161.248 324.5 162.143 310.7 160.95 297C161.248 296.9 161.845 296.8 162.043 296.8C191.451 289.4 220.661 281.2 250.069 273.5C253.745 231.6 257.918 189.7 260.501 147.7C235.564 147.8 210.527 147.8 185.59 147.9C181.914 147.9 178.337 147.9 174.661 147.6C188.073 140.6 202.181 135.1 215.991 128.9C229.205 122.9 242.618 117.2 255.931 111.3C258.514 110.1 261.197 109.1 263.482 107.4C264.376 104.1 264.276 100.7 264.674 97.4C265.469 86.8 266.76 76.2 267.257 65.6C231.888 65.3 196.518 65.6 161.149 65.4C161.745 52.4 161.348 39.4 161.546 26.5Z" fill="#E02D2D"/>
<path d="M161.745 187.5C178.834 187.2 195.922 187.7 213.011 187.6C212.017 205.2 210.626 222.7 209.732 240.3C199.3 243.7 188.67 246.7 178.138 249.8C172.475 251.5 166.713 252.9 161.348 255.4C161.944 232.8 161.05 210.2 161.745 187.5Z" fill="#E02D2D"/>
<path d="M0.099343 0C107.4 0 214.7 0 322 0C316.138 67.2 310.276 134.3 304.117 201.5C300.441 244.4 296.665 287.3 292.691 330.2C269.84 336.3 247.089 343.3 224.238 349.4C203.175 355.6 182.013 361.2 160.95 367.4H160.354C140.384 361.4 120.117 356.1 100.147 350.1C76.5011 343.7 53.1533 336.5 29.5076 330.2C26.4276 298.1 23.6458 265.9 20.8639 233.7C15.6976 174.3 10.0345 114.9 5.06695 55.4C3.37796 37.5 2.08639 19.6 0 1.7V0H0.099343ZM161.546 26.5C161.348 39.4 161.745 52.3 161.348 65.2C124.488 65.1 87.7279 65.2 50.8683 65.2C51.4644 77.7 53.1533 90.2 54.8423 102.6C89.1188 103.9 123.395 102.6 157.672 103.6C127.667 117.1 97.365 129.9 67.2613 143.1C64.6782 144.3 61.8963 145.1 59.6112 146.8C59.9093 160.6 62.095 174.2 63.0886 188C81.3693 187.9 99.5508 187.6 117.832 187.6C132.436 187.5 147.14 187.8 161.745 187.5C161.05 210.1 161.944 232.8 161.248 255.4C151.413 253.9 141.676 251.7 131.84 250C124.091 248.3 116.143 247.4 108.592 245.2C107.499 234.3 106.803 223.5 105.81 212.6C103.624 211.9 101.24 212 98.9547 211.9C87.9266 212 76.7991 211.9 65.7711 212C66.8639 232.9 68.7516 253.7 71.9309 274.4C82.8596 277.3 93.7883 280.1 104.618 283.1C121.309 287.7 138.199 291.5 154.89 296C156.877 296.4 158.864 297.2 160.95 297C162.043 310.7 161.248 324.6 161.447 338.3C165.322 337.7 169.097 336.7 172.773 335.6C204.367 327 235.961 318.1 267.654 309.4C269.244 296.9 269.94 284.3 271.231 271.7C274.51 233.6 277.788 195.4 281.266 157.3C285.339 113.7 288.816 70 292.89 26.4C249.076 26.5 205.261 26.4 161.546 26.5Z" fill="#C52828"/>
<path d="M50.8683 65.3C87.7279 65.3 124.488 65.2 161.348 65.3C161.845 106.1 161.248 146.8 161.745 187.6C147.14 187.9 132.436 187.6 117.832 187.7C99.5508 187.7 81.3693 188 63.0886 188.1C62.095 174.4 59.9093 160.7 59.6112 146.9C61.8963 145.2 64.6782 144.3 67.2613 143.2C97.365 130 127.667 117.2 157.672 103.7C123.395 102.7 89.1188 104 54.8423 102.7C53.1534 90.2 51.4644 77.8 50.8683 65.3Z" fill="#CFCFCF"/>
<path d="M65.7711 212C76.7991 211.8 87.9266 211.9 98.9546 211.9C101.24 211.9 103.525 211.9 105.81 212.6C106.803 223.5 107.499 234.4 108.592 245.2C116.242 247.4 124.091 248.3 131.84 250C141.676 251.8 151.413 254 161.248 255.4C162.143 269.2 160.553 283 162.143 296.7C161.845 296.8 161.248 296.9 161.05 296.9C158.963 297.1 156.976 296.3 154.989 295.9C138.298 291.4 121.408 287.6 104.717 283C93.7883 280 82.8596 277.2 72.0302 274.3C68.7516 253.8 66.8639 232.9 65.7711 212Z" fill="#CFCFCF"/>
<path d="M161.348 65.3C196.717 65.5 232.086 65.2 267.456 65.5C266.959 76.1 265.568 86.7 264.873 97.3C264.475 100.6 264.575 104.1 263.68 107.3C261.395 109.1 258.713 110 256.13 111.2C242.816 117.1 229.503 122.8 216.19 128.8C202.38 135 188.272 140.5 174.86 147.5C178.436 147.8 182.112 147.8 185.788 147.8C210.726 147.7 235.762 147.8 260.7 147.6C258.117 189.6 253.944 231.5 250.268 273.4C220.959 281.1 191.65 289.3 162.242 296.7C160.652 283 162.341 269.1 161.348 255.4C166.713 252.9 172.475 251.5 178.138 249.8C188.67 246.6 199.3 243.7 209.732 240.3C210.626 222.7 212.117 205.2 213.011 187.6C195.922 187.7 178.834 187.2 161.745 187.5C161.149 146.8 161.745 106 161.348 65.3Z" fill="white"/>
</svg>
