<svg width="175" height="204" viewBox="0 0 175 204" fill="none" xmlns="http://www.w3.org/2000/svg">
<path d="M13.0014 1.49995C71.9921 1.93499 106.127 -0.0529364 164 1.5C174 1.49995 174.5 11.5 174 17.5C169.272 74.2151 166.887 118.728 162.5 175C162.5 181.5 158.5 183.335 152 185C133.406 189.762 126.149 193.162 106.892 198.608C100.826 200.326 94.3447 203.826 89.0026 203.909C83.3499 204.012 76.7862 200.471 70.4502 198.608C52.2499 193.224 41.9902 189.866 23.5 185C19 183.816 14.823 180.5 14.5 176.5C9.69768 117.031 6.18582 77.0159 0.999877 17.5C-1.99998 7.49999 4.74585 1.43907 13.0014 1.49995ZM21.0464 37.5377C20.9221 45.3023 22.7442 51.1207 23.0755 58.4505C40.9239 60.3761 63.2446 57.85 81.0723 59.7964C62.3543 67.3747 44.361 75.6777 25.7673 83.4009C26.1193 91.5797 27.3823 98.8682 27.7964 107.006C56.7845 108.124 87.1391 104.914 113.435 107.689C113.767 118.125 112.007 126.51 112.09 136.677C102.958 139.907 92.8539 142.164 83.7641 145.435C74.4465 142.619 62.3751 142.557 54.0928 138.685C53.9064 132.349 52.8297 126.904 52.7469 120.485C45.1065 120.485 37.466 120.485 29.8256 120.485C29.8463 133.488 31.2957 145.104 33.2007 156.223C41.5037 158.439 49.5168 160.737 58.1511 162.973C65.2946 164.837 76.5584 169.185 83.7848 169.04C87.7603 168.957 92.4812 166.7 96.6016 165.665C109.936 162.29 122.277 159.018 135.032 155.54C137.33 131.977 139.338 108.144 141.098 84.0635C125.134 83.608 107.389 84.9539 92.5433 83.3802C109.605 76.1953 126.542 68.8655 143.107 61.1423C143.542 53.0256 144.287 45.2402 145.136 37.5377C103 38.1382 62.1887 35.9433 21.0464 37.5377Z" fill="white"/>
</svg>
