<svg width="281" height="359" viewBox="0 0 281 359" fill="none" xmlns="http://www.w3.org/2000/svg">
<rect width="281" height="359" rx="100" fill="white"/>
<path d="M107.376 253.812H79.833V277.006H107.376V253.812Z" fill="#323E5B"/>
<path d="M185.284 121.819H158.872V127.101H185.284V121.819Z" fill="black"/>
<path d="M190.566 42.5821H95.4827V63.7118H190.566V42.5821Z" fill="#232222"/>
<path d="M116.612 63.7118H95.4827V84.8415H116.612V63.7118Z" fill="#232222"/>
<path d="M135.101 53.1469H103.794V84.8415H135.101V53.1469Z" fill="#232222"/>
<path d="M137.742 63.7118H127.177V74.2766H137.742V63.7118Z" fill="#232222"/>
<path d="M148.307 63.7118H137.742V68.9942H148.307V63.7118Z" fill="#232222"/>
<path d="M109.286 63.6194H73.9663V84.9974H109.286V63.6194Z" fill="#232222"/>
<path d="M109.287 53.3952H79.5432V66.353H109.287V53.3952Z" fill="#232222"/>
<path d="M99.9916 42.2414H89.7673V57.1131H99.9916V42.2414Z" fill="#232222"/>
<path d="M92.2644 47.8183H85.12V58.972H92.2644V47.8183Z" fill="#232222"/>
<path d="M179.927 37.594H95.3442V51.5362H179.927V37.594Z" fill="#232222"/>
<path d="M164.154 32.0172H116.612V42.2414H164.154V32.0172Z" fill="#232222"/>
<path d="M216.979 90.1239H211.696V142.948H216.979V90.1239Z" fill="#232222"/>
<path d="M211.529 73.8437H204.093V90.5743H211.529V73.8437Z" fill="#232222"/>
<path d="M206.414 68.9942H201.132V74.2766H206.414V68.9942Z" fill="#232222"/>
<path d="M201.305 53.3952H186.433V69.1963H201.305V53.3952Z" fill="#232222"/>
<path d="M195.849 47.8645H186.433V68.9942H195.849V47.8645Z" fill="#232222"/>
<path d="M206.414 58.972H190.497V84.8415H206.414V58.972Z" fill="#232222"/>
<path d="M195.849 68.9942H189.214V74.2766H195.849V68.9942Z" fill="#232222"/>
<path d="M76.7547 95.2217H69.3188V143.555H76.7547V95.2217Z" fill="#232222"/>
<path d="M84.1905 79.5591H69.0704V100.689H84.1905V79.5591Z" fill="#232222"/>
<path d="M84.9178 95.4064H79.6354V100.689H84.9178V95.4064Z" fill="#232222"/>
<path d="M90.2004 84.8416H84.918V95.4064H90.2004V84.8416Z" fill="#5E4B4C"/>
<path d="M95.4826 84.8416H90.2002V90.124H95.4826V84.8416Z" fill="#614D4F"/>
<path d="M148.307 63.7118H137.742V68.9942H148.307V63.7118Z" fill="black"/>
<path d="M127.177 74.2766H121.895V84.8415H127.177V74.2766Z" fill="black"/>
<path d="M137.742 68.9942H127.177V74.2766H137.742V68.9942Z" fill="black"/>
<path d="M164.154 58.4294H148.307V63.7118H164.154V58.4294Z" fill="black"/>
<path d="M153.709 53.1469H143.144V58.4294H153.709V53.1469Z" fill="black"/>
<path d="M121.895 79.5591H116.612V84.8415H121.895V79.5591Z" fill="black"/>
<path d="M137.742 58.4294H132.46V68.9942H137.742V58.4294Z" fill="black"/>
<path d="M148.307 58.4294H137.742V63.7118H148.307V58.4294Z" fill="black"/>
<path d="M158.872 53.1469H153.589V58.4293H158.872V53.1469Z" fill="black"/>
<path d="M116.612 74.2766H111.33V84.8415H116.612V74.2766Z" fill="black"/>
<path d="M217.549 121.895H210.301V143.639H217.549V121.895Z" fill="black"/>
<path d="M206.414 90.1239H201.132V95.4064H206.414V90.1239Z" fill="black"/>
<path d="M121.895 63.7118H116.612V68.9942H121.895V63.7118Z" fill="black"/>
<path d="M95.8693 74.8655H90.5869V80.1479H95.8693V74.8655Z" fill="black"/>
<path d="M95.8693 79.5591H90.2002V84.8415H95.8693V79.5591Z" fill="black"/>
<path d="M90.2004 79.5591H84.918V84.8415H90.2004V79.5591Z" fill="black"/>
<path d="M217.549 79.8552H204.502V92.902H217.549V79.8552Z" fill="#232222"/>
<path d="M205.952 63.6194H192.939V73.8437H205.952V63.6194Z" fill="#232222"/>
<path d="M206.414 58.4294H200.285V65.4285H206.414V58.4294Z" fill="#232222"/>
<path d="M211.529 68.9942H203.09V74.2766H211.529V68.9942Z" fill="#232222"/>
<path d="M76.7548 90.5743H63.7421V122.177H76.7548V90.5743Z" fill="#232222"/>
<path d="M81.0312 95.2217H72.1074V126.824H81.0312V95.2217Z" fill="#232222"/>
<path d="M227.544 148.231H222.261V174.643H227.544V148.231Z" fill="#C07A7A"/>
<path d="M227.543 142.948H208.74V148.231H227.543V142.948Z" fill="#C07A7A"/>
<path d="M221.753 168.65H211.529V185.381H221.753V168.65Z" fill="#C07A7A"/>
<path d="M232.907 148.202H208.74V169.58H232.907V148.202Z" fill="#C07A7A"/>
<path d="M227.544 153.513H222.261V164.078H227.544V153.513Z" fill="#C07A7A"/>
<path d="M227.544 153.513H221.047V164.078H227.544V153.513Z" fill="#964949"/>
<path d="M216.979 148.231H211.696V174.643H216.979V148.231Z" fill="#C07A7A"/>
<path d="M74.3529 142.948H69.0704V185.208H74.3529V142.948Z" fill="#964949"/>
<path d="M72.1072 153.513H63.7878V174.643H72.1072V153.513Z" fill="#964949"/>
<path d="M158.872 248.286H116.612V258.851H158.872V248.286Z" fill="#C57676"/>
<path d="M161.513 251.989H116.612V269.416H161.513V251.989Z" fill="#C57676"/>
<path d="M175.812 243.004H154.486V269.13H175.812V243.004Z" fill="#C57676"/>
<path d="M164.154 243.004H158.872V258.851H164.154V243.004Z" fill="#C57676"/>
<path d="M125.935 248.286H106.048V269.416H125.935V248.286Z" fill="#C57676"/>
<path d="M148.307 269.416H106.048V274.698H148.307V269.416Z" fill="#C57676"/>
<path d="M116.612 243.004H106.048V248.286H116.612V243.004Z" fill="#C57676"/>
<path d="M137.742 244.319H106.048V282.115H137.742V244.319Z" fill="#C57676"/>
<path d="M207 243.004H179.784V280.557H207V243.004Z" fill="#1F2B3C"/>
<path d="M190.566 274.698H185.284V279.981H190.566V274.698Z" fill="#1F2B3C"/>
<path d="M185.284 277.495H180.002V279.981H185.284V277.495Z" fill="#1F2B3C"/>
<path d="M180.002 258.851H174.719V279.981H180.002V258.851Z" fill="#1F2B3C"/>
<path d="M232.634 269.13H201.21V279.843H232.634V269.13Z" fill="#323E5B"/>
<path d="M212.401 253.569H206.414V269.416H212.401V253.569Z" fill="#1F2B3C"/>
<path d="M216.979 264.444H211.696V275.009H216.979V264.444Z" fill="#323E5B"/>
<path d="M222.261 269.727H216.979V275.009H222.261V269.727Z" fill="#323E5B"/>
<path d="M196.21 232.706H185.771V271.273H196.21V232.706Z" fill="#323E5B"/>
<path d="M185.284 243.004H180.002V282.777H185.284V243.004Z" fill="#323E5B"/>
<path d="M179.083 274.698H158.872V295.828H179.083V274.698Z" fill="#323E5B"/>
<path d="M227.544 269.727H222.261V275.009H227.544V269.727Z" fill="#323E5B"/>
<path d="M212.401 261.492H206.414V269.416H212.401V261.492Z" fill="#323E5B"/>
<path d="M195.849 232.75H190.567V238.032H195.849V232.75Z" fill="#323E5B"/>
<path d="M238.348 274.844H195.496V286.395H238.348V274.844Z" fill="#323E5B"/>
<path d="M232.826 280.557H190.567V290.546H232.826V280.557Z" fill="#323E5B"/>
<path d="M227.543 280.188H185.284V295.828H227.543V280.188Z" fill="#323E5B"/>
<path d="M216.922 282.7H185.284V301.111H216.922V282.7Z" fill="#323E5B"/>
<path d="M206.414 295.828H185.284V306.393H206.414V295.828Z" fill="#323E5B"/>
<path d="M191.455 297.301H169.711V311.797H191.455V297.301Z" fill="#323E5B"/>
<path d="M180.002 285.263H153.589V306.393H180.002V285.263Z" fill="#1F2B3C"/>
<path d="M195.849 279.981H180.002V285.263H195.849V279.981Z" fill="#1F2B3C"/>
<path d="M185.284 285.263H180.002V295.828H185.284V285.263Z" fill="#1F2B3C"/>
<path d="M190.566 285.263H185.284V290.546H190.566V285.263Z" fill="#1F2B3C"/>
<path d="M164.154 285.263H153.589V316.958H164.154V285.263Z" fill="#323E5B"/>
<path d="M180.002 306.393H163.196V316.958H180.002V306.393Z" fill="#1F2B3C"/>
<path d="M164.786 279.843H153.359V285.557H164.786V279.843Z" fill="#323E5B"/>
<path d="M143.36 290.556H134.764V301.269H143.36V290.556Z" fill="#323E5B"/>
<path d="M143.025 301.111H137.742V316.958H143.025V301.111Z" fill="#323E5B"/>
<path d="M185.284 253.569H180.002V295.828H185.284V253.569Z" fill="#323E5B"/>
<path d="M180.002 248.286H174.719V290.546H180.002V248.286Z" fill="#323E5B"/>
<path d="M201.131 237.721H190.497V269.416H201.131V237.721Z" fill="#323E5B"/>
<path d="M169.437 269.416H164.154V306.393H169.437V269.416Z" fill="#323E5B"/>
<path d="M206.414 243.004H198.962V253.569H206.414V243.004Z" fill="#323E5B"/>
<path d="M98.1328 258.851H74.3529V274.698H98.1328V258.851Z" fill="#323E5B"/>
<path d="M106.047 243.009H89.7673V256.951H106.047V243.009Z" fill="#323E5B"/>
<path d="M103.027 269.758H58.0885V281.355H103.027V269.758Z" fill="#323E5B"/>
<path d="M83.2516 264.483H68.764V275.196H83.2516V264.483Z" fill="#323E5B"/>
<path d="M96.2739 277.399H58.1653V291.342H96.2739V277.399Z" fill="#323E5B"/>
<path d="M90.6968 284.835H51.5485V299.816H90.6968V284.835Z" fill="#323E5B"/>
<path d="M163.196 300.227H131.594V316.958H163.196V300.227Z" fill="#323E5B"/>
<path d="M132.46 279.981H95.4827V316.958H132.46V279.981Z" fill="#1F2B3C"/>
<path d="M137.819 284.254H129.121V301.65H137.819V284.254Z" fill="#1F2B3C"/>
<path d="M154.068 279.843H137.646V289.842H154.068V279.843Z" fill="#1F2B3C"/>
<path d="M145.503 285.557H135.473V291.212H145.503V285.557Z" fill="#1F2B3C"/>
<path d="M111.33 274.698H100.765V286.395H111.33V274.698Z" fill="#1F2B3C"/>
<path d="M103.482 295.828H84.918V312.98H103.482V295.828Z" fill="#1F2B3C"/>
<path d="M103.482 290.546H90.2002V301.269H103.482V290.546Z" fill="#1F2B3C"/>
<path d="M137.646 273.172H111.221V285.557H137.646V273.172Z" fill="#C57676"/>
<path d="M90.2002 295.828H68.5648V308.464H90.2002V295.828Z" fill="#323E5B"/>
<path d="M195.849 79.5591H121.895V127.101H195.849V79.5591Z" fill="#C07A7A"/>
<path d="M175.279 63.6194H148.324V80.3501H175.279V63.6194Z" fill="#C07A7A"/>
<path d="M186.433 66.353H137.742V79.5591H186.433V66.353Z" fill="#C07A7A"/>
<path d="M152.221 74.2766H127.177V93.8576H152.221V74.2766Z" fill="#C07A7A"/>
<path d="M185.284 68.9942H174.719V79.5591H185.284V68.9942Z" fill="#C07A7A"/>
<path d="M195.849 74.2766H181.22V84.0671H195.849V74.2766Z" fill="#C07A7A"/>
<path d="M201.131 84.8416H190.497V134.559H201.131V84.8416Z" fill="#C07A7A"/>
<path d="M126.947 90.1239H84.1906V128.683H126.947V90.1239Z" fill="#C07A7A"/>
<path d="M94.4819 84.8416H84.918V95.4064H94.4819V84.8416Z" fill="#C07A7A"/>
<path d="M95.4827 84.8416H87.7593V90.124H95.4827V84.8416Z" fill="#C07A7A"/>
<path d="M127.177 84.8416H111.33V95.4064H127.177V84.8416Z" fill="#C07A7A"/>
<path d="M112.064 89.0153H100.189V94.9526H112.064V89.0153Z" fill="#C07A7A"/>
<path d="M201.603 126.824H74.3529V201.625H201.603V126.824Z" fill="#C07A7A"/>
<path d="M84.9178 100.689H79.6354V127.101H84.9178V100.689Z" fill="#C07A7A"/>
<path d="M153.589 122.751H127.177V142.948H153.589V122.751Z" fill="#C07A7A"/>
<path d="M153.59 142.948H137.742V185.208H153.59V142.948Z" fill="#C07A7A"/>
<path d="M137.742 158.796H132.46V185.208H137.742V158.796Z" fill="#C07A7A"/>
<path d="M132.46 169.36H127.177V179.925H132.46V169.36Z" fill="#C07A7A"/>
<path d="M116.722 179.804H89.7673V222.185H116.722V179.804Z" fill="#C07A7A"/>
<path d="M158.872 216.902H100.765V238.032H158.872V216.902Z" fill="#C07A7A"/>
<path d="M127.177 216.902H95.4827V222.185H127.177V216.902Z" fill="#C07A7A"/>
<path d="M106.048 132.383H95.4827V153.513H106.048V132.383Z" fill="#C07A7A"/>
<path d="M132.459 132.383H116.612V158.796H132.459V132.383Z" fill="#C07A7A"/>
<path d="M121.895 132.383H106.048V137.666H121.895V132.383Z" fill="#C07A7A"/>
<path d="M100.765 121.819H95.4827V127.101H100.765V121.819Z" fill="#C07A7A"/>
<path d="M132.46 122.44H127.177V127.101H132.46V122.44Z" fill="#C07A7A"/>
<path d="M158.872 190.49H121.895V211.62H158.872V190.49Z" fill="#C07A7A"/>
<path d="M121.895 169.36H111.33V179.925H121.895V169.36Z" fill="#C07A7A"/>
<path d="M126.947 179.804H115.793V206.759H126.947V179.804Z" fill="#C07A7A"/>
<path d="M132.523 185.381H121.37V190.958H132.523V185.381Z" fill="#C07A7A"/>
<path d="M201.603 185.679H152.315V211.772H201.603V185.679Z" fill="#C07A7A"/>
<path d="M211.696 179.925H158.872V190.49H211.696V179.925Z" fill="#C07A7A"/>
<path d="M211.696 148.231H190.567V183.95H211.696V148.231Z" fill="#C07A7A"/>
<path d="M190.567 153.513H164.154V169.36H190.567V153.513Z" fill="#C07A7A"/>
<path d="M164.154 132.383H153.589V169.36H164.154V132.383Z" fill="#C07A7A"/>
<path d="M158.872 132.383H153.589V160.039H158.872V132.383Z" fill="#C07A7A"/>
<path d="M158.872 121.819H153.589V127.101H158.872V121.819Z" fill="#C07A7A"/>
<path d="M206.414 132.383H180.002V152.252H206.414V132.383Z" fill="#C07A7A"/>
<path d="M190.567 148.231H180.002V153.513H190.567V148.231Z" fill="#C07A7A"/>
<path d="M206.414 111.952H193.208V132.383H206.414V111.952Z" fill="#C07A7A"/>
<path d="M195.849 122.751H190.567V132.383H195.849V122.751Z" fill="#C07A7A"/>
<path d="M190.566 121.819H185.284V127.101H190.566V121.819Z" fill="#C07A7A"/>
<path d="M180.002 132.383H164.154V137.666H180.002V132.383Z" fill="#C07A7A"/>
<path d="M174.719 169.36H158.872V179.925H174.719V169.36Z" fill="#C07A7A"/>
<path d="M201.131 206.338H169.437V211.62H201.131V206.338Z" fill="#C07A7A"/>
<path d="M158.872 213.265H190.991V227.467H158.872V213.265Z" fill="#C07A7A"/>
<path d="M180.002 227.467H153.359V243.315H180.002V227.467Z" fill="#C07A7A"/>
<path d="M174.719 233.79H106.048V243.004H174.719V233.79Z" fill="#C07A7A"/>
<path d="M169.71 233.79H111.725V245.114H169.71V233.79Z" fill="#C07A7A"/>
<path d="M158.872 243.004H116.612V250.129H158.872V243.004Z" fill="#C07A7A"/>
<path d="M158.872 169.36H153.589V179.925H158.872V169.36Z" fill="#C07A7A"/>
<path d="M206.414 185.208H201.132V201.055H206.414V185.208Z" fill="#C07A7A"/>
<path d="M185.284 237.721H169.437V243.004H185.284V237.721Z" fill="#C57676"/>
<path d="M180.002 232.75H174.719V243.315H180.002V232.75Z" fill="#C57676"/>
<path d="M185.284 232.75H180.002V253.569H185.284V232.75Z" fill="#C57676"/>
<path d="M180.002 243.004H174.719V248.286H180.002V243.004Z" fill="#C57676"/>
<path d="M159.072 266.775H135.101V279.843H159.072V266.775Z" fill="#C57676"/>
<path d="M164.154 258.851H153.589V274.698H164.154V258.851Z" fill="#C57676"/>
<path d="M161.513 261.492H148.307V274.698H161.513V261.492Z" fill="#C57676"/>
<path d="M174.719 253.569H164.154V264.134H174.719V253.569Z" fill="#C57676"/>
<path d="M169.437 264.134H164.154V269.416H169.437V264.134Z" fill="#C57676"/>
<path d="M180.002 237.721H171.685V258.851H180.002V237.721Z" fill="#C57676"/>
<path d="M158.872 258.851H153.589V265.376H158.872V258.851Z" fill="#C57676"/>
<path d="M174.719 243.004H169.437V253.569H174.719V243.004Z" fill="#C57676"/>
<path d="M195.849 211.213H185.771V222.185H195.849V211.213Z" fill="#C07A7A"/>
<path d="M226.401 169.58H217.106V174.227H226.401V169.58Z" fill="#C07A7A"/>
<path d="M95.7934 195.605H79.3346V208.873H95.7934V195.605Z" fill="#C07A7A"/>
<path d="M174.719 206.338H154.519V233.79H174.719V206.338Z" fill="#C07A7A"/>
<path d="M127.177 211.62H111.725V219.544H127.177V211.62Z" fill="#C07A7A"/>
<path d="M104.379 216.983H95.4827V232.75H104.379V216.983Z" fill="#C07A7A"/>
<path d="M195.459 208.914H169.437V216.902H195.459V208.914Z" fill="#C07A7A"/>
<path d="M185.284 222.56H158.872V232.75H185.284V222.56Z" fill="#C07A7A"/>
<path d="M100.765 137.666H116.612V153.513H100.765V137.666Z" fill="black"/>
<path d="M122.206 122.129H95.7933V127.412H122.206V122.129Z" fill="black"/>
<path d="M127.177 127.101H90.2002V132.383H127.177V127.101Z" fill="black"/>
<path d="M98.1326 211.406H89.7673V222.56H98.1326V211.406Z" fill="#C07A7A"/>
<path d="M190.497 232.706H179.784V274.844H190.497V232.706Z" fill="#323E5B"/>
<path d="M180.483 248.418H174.785V301.269H180.483V248.418Z" fill="#323E5B"/>
<path d="M175.134 259.131H169.071V305.503H175.134V259.131Z" fill="#323E5B"/>
<path d="M185.497 289.842H179.784V306.268H185.497V289.842Z" fill="#323E5B"/>
<path d="M137.742 142.948H132.46V158.796H137.742V142.948Z" fill="#964949"/>
<path d="M132.46 158.796H127.177V169.36H132.46V158.796Z" fill="#964949"/>
<path d="M127.177 169.36H121.895V179.925H127.177V169.36Z" fill="#964949"/>
<path d="M149.237 185.208H132.46V190.49H149.237V185.208Z" fill="#964949"/>
<path d="M154.519 170.29H149.237V180.855H154.519V170.29Z" fill="#964949"/>
<path d="M149.237 165.008H143.955V170.29H149.237V165.008Z" fill="#964949"/>
<path d="M132.523 179.804H126.947V185.381H132.523V179.804Z" fill="#964949"/>
<path d="M154.519 180.099H149.237V185.381H154.519V180.099Z" fill="#964949"/>
<path d="M165.362 205.974H116.074V211.772H165.362V205.974Z" fill="#964949"/>
<path d="M165.362 201.625H159.563V208.873H165.362V201.625Z" fill="#964949"/>
<path d="M121.356 201.625H116.074V206.907H121.356V201.625Z" fill="#964949"/>
<path d="M158.872 208.914H127.177V216.902H158.872V208.914Z" fill="#964949"/>
<path d="M111.33 169.36H95.4827V179.925H111.33V169.36Z" fill="#964949"/>
<path d="M190.566 169.36H174.719V179.925H190.566V169.36Z" fill="#964949"/>
<path d="M164.154 137.666H180.002V153.513H164.154V137.666Z" fill="black"/>
<path d="M190.567 127.101H153.589V132.383H190.567V127.101Z" fill="black"/>
<path d="M159.478 120.318H183.645V127.753H159.478V120.318Z" fill="black"/>
<path d="M148.307 232.75H127.177V238.032H148.307V232.75Z" fill="#964949"/>
<path d="M153.589 238.032H148.307V243.315H153.589V238.032Z" fill="#964949"/>
<path d="M217.106 153.513H211.823V179.925H217.106V153.513Z" fill="#964949"/>
<rect x="84.6724" y="203.074" width="14.0059" height="13.6243" fill="#C07A7A"/>
<path d="M222.261 148.231H216.381V169.36H222.261V148.231Z" fill="#964949"/>
<path d="M211.696 84.8416H206.414V89.5052H211.696V84.8416Z" fill="black"/>
<path d="M207.125 74.2766H201.132V116.536H207.125V74.2766Z" fill="#232222"/>
<path d="M190.566 63.7118H185.284V74.2766H190.566V63.7118Z" fill="#232222"/>
<path d="M190.497 58.972H174.719V68.9942H190.497V58.972Z" fill="#232222"/>
<path d="M168.977 285.263H143.025V310.113H168.977V285.263Z" fill="#323E5B"/>
<path d="M153.589 290.546H143.025V316.958H153.589V290.546Z" fill="#323E5B"/>
<path d="M217.549 90.0027H207.401V121.895H217.549V90.0027Z" fill="black"/>
<path d="M206.414 253.569H201.132V269.416H206.414V253.569Z" fill="#1F2B3C"/>
<rect x="101.377" y="89.0153" width="4.94875" height="9.6776" fill="#232222"/>
<rect x="84.918" y="84.4309" width="5.28244" height="5.69303" fill="#232222"/>
<path d="M106.127 86.6404H95.4395V94.9526H106.127V86.6404Z" fill="#232222"/>
<path d="M90.2004 79.3744H84.918V89.9393H90.2004V79.3744Z" fill="black"/>
<rect x="58.8828" y="297.283" width="10.9037" height="6.9675" fill="#323E5B"/>
<path d="M211.696 90.1239H206.414V148.231H211.696V90.1239Z" fill="#232222"/>
<path d="M111.725 79.8552H69.6854V90.5743H111.725V79.8552Z" fill="#232222"/>
</svg>
