<svg width="282" height="399" viewBox="0 0 282 399" fill="none" xmlns="http://www.w3.org/2000/svg">
<rect width="281.061" height="398.967" rx="100" fill="white"/>
<path d="M101.515 272.361H73.0992V295.094H101.515V272.361Z" fill="#323E5B"/>
<path d="M186.764 130.615H158.348V136.298H186.764V130.615Z" fill="black"/>
<path d="M192.447 45.3665H90.1488V68.0994H192.447V45.3665Z" fill="#232222"/>
<path d="M112.882 68.0993H90.1488V90.8322H112.882V68.0993Z" fill="#232222"/>
<path d="M132.773 56.7329H99.0906V90.8322H132.773V56.7329Z" fill="#232222"/>
<path d="M135.615 68.0993H124.248V79.4658H135.615V68.0993Z" fill="#232222"/>
<path d="M146.981 68.0993H135.615V73.7826H146.981V68.0993Z" fill="#232222"/>
<path d="M107.199 90.8323H61.7328V96.5155H107.199V90.8323Z" fill="#232222"/>
<path d="M105 68H67V91H105V68Z" fill="#232222"/>
<path d="M105 57H73V70.9409H105V57Z" fill="#232222"/>
<path d="M95 45H84V61H95V45Z" fill="#232222"/>
<path d="M86.6865 51H79V63H86.6865V51Z" fill="#232222"/>
<path d="M181 40H90V55H181V40Z" fill="#232222"/>
<path d="M164.031 34H112.882V45H164.031V34Z" fill="#232222"/>
<path d="M220.863 96.5155H215.18V153.348H220.863V96.5155Z" fill="#232222"/>
<path d="M215 79H207V97H215V79Z" fill="#232222"/>
<path d="M209.497 73.7826H203.814V79.4658H209.497V73.7826Z" fill="#232222"/>
<path d="M204 57H188V74H204V57Z" fill="#232222"/>
<path d="M198.13 51.0497H188V73.7826H198.13V51.0497Z" fill="#232222"/>
<path d="M209.497 63H192.372V90.8322H209.497V63Z" fill="#232222"/>
<path d="M198.13 73.7826H190.991V79.4658H198.13V73.7826Z" fill="#232222"/>
<path d="M67 102H62V154H67V102Z" fill="#232222"/>
<path d="M78 85.149H61.7328V107.882H78V85.149Z" fill="#232222"/>
<path d="M78.7825 102.199H73.0992V107.882H78.7825V102.199Z" fill="#232222"/>
<path d="M84.4658 90.8323H78.7826V102.199H84.4658V90.8323Z" fill="#5E4B4C"/>
<path d="M90.1489 90.8323H84.4657V96.5155H90.1489V90.8323Z" fill="#614D4F"/>
<path d="M146.981 68.0993H135.615V73.7826H146.981V68.0993Z" fill="black"/>
<path d="M124.248 79.4658H118.565V90.8322H124.248V79.4658Z" fill="black"/>
<path d="M135.615 73.7826H124.248V79.4658H135.615V73.7826Z" fill="black"/>
<path d="M164.031 62.4161H146.981V68.0994H164.031V62.4161Z" fill="black"/>
<path d="M152.793 56.7329H141.427V62.4162H152.793V56.7329Z" fill="black"/>
<path d="M118.565 85.149H112.882V90.8322H118.565V85.149Z" fill="black"/>
<path d="M135.615 62.4161H129.931V73.7826H135.615V62.4161Z" fill="black"/>
<path d="M146.981 62.4161H135.615V68.0994H146.981V62.4161Z" fill="black"/>
<path d="M158.348 56.7329H152.664V62.4161H158.348V56.7329Z" fill="black"/>
<path d="M112.882 79.4658H107.198V90.8322H112.882V79.4658Z" fill="black"/>
<path d="M220.863 130.615H215.18V153.348H220.863V130.615Z" fill="black"/>
<path d="M209.497 96.5155H203.814V102.199H209.497V96.5155Z" fill="black"/>
<path d="M118.565 68.0993H112.882V73.7826H118.565V68.0993Z" fill="black"/>
<path d="M90.5649 80.0993H84.8817V85.7826H90.5649V80.0993Z" fill="black"/>
<path d="M90.5649 85.149H84.4657V90.8322H90.5649V85.149Z" fill="black"/>
<path d="M84.4658 85.149H78.7826V90.8322H84.4658V85.149Z" fill="black"/>
<path d="M221 85H209.161V99.3571H221V85Z" fill="#232222"/>
<path d="M209 68H195V79H209V68Z" fill="#232222"/>
<path d="M209.497 62.4161H202.903V69.9463H209.497V62.4161Z" fill="#232222"/>
<path d="M215 73.7826H205.92V79.4658H215V73.7826Z" fill="#232222"/>
<path d="M70 97H56V131H70V97Z" fill="#232222"/>
<path d="M73 102H65V136H73V102Z" fill="#232222"/>
<path d="M232.23 159.031H226.546V187.447H232.23V159.031Z" fill="#ECA4A4"/>
<path d="M232.229 153.348H212V159.031H232.229V153.348Z" fill="#ECA4A4"/>
<path d="M226 181H215V199H226V181Z" fill="#ECA4A4"/>
<path d="M238 159H212V182H238V159Z" fill="#ECA4A4"/>
<path d="M232.23 164.714H226.546V176.081H232.23V164.714Z" fill="#ECA4A4"/>
<path d="M232.23 164.714H225.24V176.081H232.23V164.714Z" fill="#964949"/>
<path d="M220.863 159.031H215.18V187.447H220.863V159.031Z" fill="#ECA4A4"/>
<path d="M67.416 153.348H61.7328V198.814H67.416V153.348Z" fill="#964949"/>
<path d="M65 164.714H56.0494V187.447H65V164.714Z" fill="#964949"/>
<path d="M158.348 266.678H112.882V278.044H158.348V266.678Z" fill="#E68A8A"/>
<path d="M161.189 270.662H112.882V289.411H161.189V270.662Z" fill="#E68A8A"/>
<path d="M176.573 260.995H153.629V289.103H176.573V260.995Z" fill="#E68A8A"/>
<path d="M164.031 260.995H158.348V278.044H164.031V260.995Z" fill="#E68A8A"/>
<path d="M122.912 266.678H101.515V289.411H122.912V266.678Z" fill="#E68A8A"/>
<path d="M146.981 289.411H101.515V295.094H146.981V289.411Z" fill="#E68A8A"/>
<path d="M112.882 260.995H101.515V266.678H112.882V260.995Z" fill="#E68A8A"/>
<path d="M135.615 262.41H101.515V303.074H135.615V262.41Z" fill="#E68A8A"/>
<path d="M210.127 260.995H180.846V301.397H210.127V260.995Z" fill="#1F2B3C"/>
<path d="M192.447 295.094H186.764V300.777H192.447V295.094Z" fill="#1F2B3C"/>
<path d="M186.764 298.103H181.081V300.777H186.764V298.103Z" fill="#1F2B3C"/>
<path d="M181.08 278.044H175.397V300.777H181.08V278.044Z" fill="#1F2B3C"/>
<path d="M237.707 289.103H203.898V300.629H237.707V289.103Z" fill="#323E5B"/>
<path d="M215.939 272.361H209.497V289.411H215.939V272.361Z" fill="#1F2B3C"/>
<path d="M220.863 284.062H215.18V295.428H220.863V284.062Z" fill="#323E5B"/>
<path d="M226.546 289.745H220.863V295.428H226.546V289.745Z" fill="#323E5B"/>
<path d="M198.519 249.916H187.288V291.408H198.519V249.916Z" fill="#323E5B"/>
<path d="M186.764 260.995H181.081V303.786H186.764V260.995Z" fill="#323E5B"/>
<path d="M180.092 295.094H158.348V317.827H180.092V295.094Z" fill="#323E5B"/>
<path d="M232.23 289.745H226.546V295.428H232.23V289.745Z" fill="#323E5B"/>
<path d="M215.939 280.886H209.497V289.411H215.939V280.886Z" fill="#323E5B"/>
<path d="M198.13 249.963H192.447V255.646H198.13V249.963Z" fill="#323E5B"/>
<path d="M243.854 295.25H197.751V307.678H243.854V295.25Z" fill="#323E5B"/>
<path d="M237.913 301.397H192.447V312.144H237.913V301.397Z" fill="#323E5B"/>
<path d="M232.229 301H186.764V317.827H232.229V301Z" fill="#323E5B"/>
<path d="M220.802 303.703H186.764V323.51H220.802V303.703Z" fill="#323E5B"/>
<path d="M209.497 317.827H186.764V329.193H209.497V317.827Z" fill="#323E5B"/>
<path d="M192.372 327.522H170.089V335.206H192.372V327.522Z" fill="#323E5B"/>
<path d="M181.081 306.461H152.664V329.193H181.081V306.461Z" fill="#1F2B3C"/>
<path d="M198.13 300.777H181.081V306.461H198.13V300.777Z" fill="#1F2B3C"/>
<path d="M186.764 306.461H181.081V317.827H186.764V306.461Z" fill="#1F2B3C"/>
<path d="M192.447 306.461H186.764V312.144H192.447V306.461Z" fill="#1F2B3C"/>
<path d="M164.031 306.461H152.664V340.56H164.031V306.461Z" fill="#323E5B"/>
<path d="M181.081 329.193H163V340.56H181.081V329.193Z" fill="#1F2B3C"/>
<path d="M164.71 300.629H152.416V306.776H164.71V300.629Z" fill="#323E5B"/>
<path d="M141.659 312.155H132.411V323.68H141.659V312.155Z" fill="#323E5B"/>
<path d="M141.298 323.51H135.615V340.56H141.298V323.51Z" fill="#323E5B"/>
<path d="M186.764 272.361H181.081V317.827H186.764V272.361Z" fill="#323E5B"/>
<path d="M181.08 266.678H175.397V312.144H181.08V266.678Z" fill="#323E5B"/>
<path d="M203.813 255.311H192.372V289.411H203.813V255.311Z" fill="#323E5B"/>
<path d="M169.714 289.411H164.031V329.193H169.714V289.411Z" fill="#323E5B"/>
<path d="M209.497 260.995H201.48V272.361H209.497V260.995Z" fill="#323E5B"/>
<path d="M93 278.044H67.4159V295.094H93V278.044Z" fill="#323E5B"/>
<path d="M101.515 261H84V276H101.515V261Z" fill="#323E5B"/>
<path d="M96 289.629H50V301.836H96V289.629Z" fill="#323E5B"/>
<path d="M76.9897 284.103H61.403V295.629H76.9897V284.103Z" fill="#323E5B"/>
<path d="M91 298H50V313H91V298Z" fill="#323E5B"/>
<path d="M85 306H42.8813V322.118H85V306Z" fill="#323E5B"/>
<path d="M163 322.56H129V340.56H163V322.56Z" fill="#323E5B"/>
<path d="M129.931 300.777H90.1488V340.56H129.931V300.777Z" fill="#1F2B3C"/>
<path d="M135.512 306.776H129.365V323.68H135.512V306.776Z" fill="#1F2B3C"/>
<path d="M153.179 300.629H135.512V311.386H153.179V300.629Z" fill="#1F2B3C"/>
<path d="M143.964 306.776H133.174V312.86H143.964V306.776Z" fill="#1F2B3C"/>
<path d="M107.199 295.094H95.8322V307.678H107.199V295.094Z" fill="#1F2B3C"/>
<path d="M98.7548 317.827H78.7826V336.281H98.7548V317.827Z" fill="#1F2B3C"/>
<path d="M98.7548 312.144H84.4657V323.68H98.7548V312.144Z" fill="#1F2B3C"/>
<path d="M135.512 293.451H107.081V306.776H135.512V293.451Z" fill="#E68A8A"/>
<path d="M84.4656 317.827H61.1887V331.422H84.4656V317.827Z" fill="#323E5B"/>
<path d="M198.13 85.149H118.565V136.298H198.13V85.149Z" fill="#ECA4A4"/>
<path d="M176 68H147V86H176V68Z" fill="#ECA4A4"/>
<path d="M188 70.9409H135.615V85.149H188V70.9409Z" fill="#ECA4A4"/>
<path d="M151.192 79.4658H124.248V100.532H151.192V79.4658Z" fill="#ECA4A4"/>
<path d="M186.764 73.7826H175.397V85.149H186.764V73.7826Z" fill="#ECA4A4"/>
<path d="M198.13 79.4658H182.391V89.9991H198.13V79.4658Z" fill="#ECA4A4"/>
<path d="M203.813 90.8323H192.372V144.321H203.813V90.8323Z" fill="#ECA4A4"/>
<path d="M124 96.5155H78V138H124V96.5155Z" fill="#ECA4A4"/>
<path d="M89.0721 90.8323H78.7826V102.199H89.0721V90.8323Z" fill="#ECA4A4"/>
<path d="M90.149 90.8323H81.8396V96.5155H90.149V90.8323Z" fill="#ECA4A4"/>
<path d="M124.248 90.8323H107.198V102.199H124.248V90.8323Z" fill="#ECA4A4"/>
<path d="M107.199 96.5155H95.8322V102.199H107.199V96.5155Z" fill="#ECA4A4"/>
<path d="M207 136H67V216H207V136Z" fill="#ECA4A4"/>
<path d="M78.7825 107.882H73.0992V136.298H78.7825V107.882Z" fill="#ECA4A4"/>
<path d="M152.664 131.618H124.248V153.348H152.664V131.618Z" fill="#ECA4A4"/>
<path d="M152.664 153.348H135.615V198.814H152.664V153.348Z" fill="#ECA4A4"/>
<path d="M135.615 170.397H129.931V198.814H135.615V170.397Z" fill="#ECA4A4"/>
<path d="M129.931 181.764H124.248V193.13H129.931V181.764Z" fill="#ECA4A4"/>
<path d="M113 193H84V233H113V193Z" fill="#ECA4A4"/>
<path d="M158.348 232.913H95.8322V255.646H158.348V232.913Z" fill="#ECA4A4"/>
<path d="M124.248 232.913H90.1488V238.596H124.248V232.913Z" fill="#ECA4A4"/>
<path d="M101.515 141.981H90.1488V164.714H101.515V141.981Z" fill="#ECA4A4"/>
<path d="M129.931 141.981H112.882V170.397H129.931V141.981Z" fill="#ECA4A4"/>
<path d="M118.565 141.981H101.515V147.665H118.565V141.981Z" fill="#ECA4A4"/>
<path d="M95.832 130.615H90.1488V136.298H95.832V130.615Z" fill="#ECA4A4"/>
<path d="M129.931 131.283H124.248V136.298H129.931V131.283Z" fill="#ECA4A4"/>
<path d="M158.348 204.497H118.565V227.23H158.348V204.497Z" fill="#ECA4A4"/>
<path d="M118.565 181.764H107.198V193.13H118.565V181.764Z" fill="#ECA4A4"/>
<path d="M124 193H112V222H124V193Z" fill="#ECA4A4"/>
<path d="M130 199H118V205H130V199Z" fill="#ECA4A4"/>
<path d="M204 199H152V222H204V199Z" fill="#ECA4A4"/>
<path d="M215.18 193.13H158.348V204.497H215.18V193.13Z" fill="#ECA4A4"/>
<path d="M215.18 159.031H192.447V197.46H215.18V159.031Z" fill="#ECA4A4"/>
<path d="M192.447 164.714H164.031V181.764H192.447V164.714Z" fill="#ECA4A4"/>
<path d="M164.031 141.981H152.664V181.764H164.031V141.981Z" fill="#ECA4A4"/>
<path d="M158.348 141.981H152.664V171.735H158.348V141.981Z" fill="#ECA4A4"/>
<path d="M158.348 130.615H152.664V136.298H158.348V130.615Z" fill="#ECA4A4"/>
<path d="M209.497 141.981H181.081V163.358H209.497V141.981Z" fill="#ECA4A4"/>
<path d="M192.447 159.031H181.081V164.714H192.447V159.031Z" fill="#ECA4A4"/>
<path d="M209.497 120H195.289V141.981H209.497V120Z" fill="#ECA4A4"/>
<path d="M198.13 131.618H192.447V141.981H198.13V131.618Z" fill="#ECA4A4"/>
<path d="M192.447 130.615H186.764V136.298H192.447V130.615Z" fill="#ECA4A4"/>
<path d="M181.081 141.981H164.031V147.665H181.081V141.981Z" fill="#ECA4A4"/>
<path d="M175.397 181.764H158.348V193.13H175.397V181.764Z" fill="#ECA4A4"/>
<path d="M203.813 221.546H169.714V227.23H203.813V221.546Z" fill="#ECA4A4"/>
<path d="M158.348 229H192.903V244.279H158.348V229Z" fill="#ECA4A4"/>
<path d="M181.081 244.279H152.416V261.329H181.081V244.279Z" fill="#ECA4A4"/>
<path d="M175.397 255.311H101.515V260.995H175.397V255.311Z" fill="#ECA4A4"/>
<path d="M169.714 255.311H107.198V260.995H169.714V255.311Z" fill="#ECA4A4"/>
<path d="M158.348 260.995H112.882V266.678H158.348V260.995Z" fill="#ECA4A4"/>
<path d="M158.348 181.764H152.664V193.13H158.348V181.764Z" fill="#ECA4A4"/>
<path d="M209.497 198.814H203.814V215.863H209.497V198.814Z" fill="#ECA4A4"/>
<path d="M186.764 255.311H169.714V260.995H186.764V255.311Z" fill="#E68A8A"/>
<path d="M181.08 249.963H175.397V261.329H181.08V249.963Z" fill="#E68A8A"/>
<path d="M186.764 249.963H181.081V272.361H186.764V249.963Z" fill="#E68A8A"/>
<path d="M181.08 260.995H175.397V266.678H181.08V260.995Z" fill="#E68A8A"/>
<path d="M158.563 286.569H132.773V300.629H158.563V286.569Z" fill="#E68A8A"/>
<path d="M164.031 278.044H152.664V295.094H164.031V278.044Z" fill="#E68A8A"/>
<path d="M161.189 280.886H146.981V295.094H161.189V280.886Z" fill="#E68A8A"/>
<path d="M175.397 272.361H164.031V283.728H175.397V272.361Z" fill="#E68A8A"/>
<path d="M169.714 283.728H164.031V289.411H169.714V283.728Z" fill="#E68A8A"/>
<path d="M181.081 255.311H172.133V278.044H181.081V255.311Z" fill="#E68A8A"/>
<path d="M158.348 278.044H152.664V285.065H158.348V278.044Z" fill="#E68A8A"/>
<path d="M175.397 260.995H169.714V272.361H175.397V260.995Z" fill="#E68A8A"/>
<path d="M198.13 226.792H190.829V238.596H198.13V226.792Z" fill="#ECA4A4"/>
<path d="M231 182H221V187H231V182Z" fill="#ECA4A4"/>
<path d="M90.4832 210H73V222H90.4832V210Z" fill="#ECA4A4"/>
<path d="M175.397 221.546H153.665V251.082H175.397V221.546Z" fill="#ECA4A4"/>
<path d="M124.248 227.23H112.882V232.913H124.248V227.23Z" fill="#ECA4A4"/>
<path d="M99.7204 233H90.1488V249.963H99.7204V233Z" fill="#ECA4A4"/>
<path d="M197.711 224.319H169.714V232.913H197.711V224.319Z" fill="#ECA4A4"/>
<path d="M186.764 244.279H158.348V249.963H186.764V244.279Z" fill="#ECA4A4"/>
<path d="M95.8322 147.665H112.882V164.714H95.8322V147.665Z" fill="black"/>
<path d="M118.899 130.949H90.4832V136.632H118.899V130.949Z" fill="black"/>
<path d="M124.248 136.298H84.4657V141.981H124.248V136.298Z" fill="black"/>
<path d="M93 227H84V239H93V227Z" fill="#ECA4A4"/>
<path d="M192.372 249.916H180.846V295.25H192.372V249.916Z" fill="#323E5B"/>
<path d="M181.599 266.82H175.468V323.68H181.599V266.82Z" fill="#323E5B"/>
<path d="M178.3 278.346H169.321V325.986H178.3V278.346Z" fill="#323E5B"/>
<path d="M186.993 311.386H180.846V329.059H186.993V311.386Z" fill="#323E5B"/>
<path d="M135.615 153.348H129.931V170.397H135.615V153.348Z" fill="#964949"/>
<path d="M129.931 170.397H124.248V181.764H129.931V170.397Z" fill="#964949"/>
<path d="M124.248 181.764H118.565V193.13H124.248V181.764Z" fill="#964949"/>
<path d="M147.982 198.814H129.931V204.497H147.982V198.814Z" fill="#964949"/>
<path d="M153.665 182.764H147.982V194.13H153.665V182.764Z" fill="#964949"/>
<path d="M147.982 177.081H142.298V182.764H147.982V177.081Z" fill="#964949"/>
<path d="M130 193H124V199H130V193Z" fill="#964949"/>
<path d="M153.665 193.317H147.982V199H153.665V193.317Z" fill="#964949"/>
<path d="M169.714 221.546H112.882V227.23H169.714V221.546Z" fill="#964949"/>
<path d="M169.714 215.863H158.348V224.319H169.714V215.863Z" fill="#964949"/>
<path d="M118.565 215.863H112.882V221.546H118.565V215.863Z" fill="#964949"/>
<path d="M158.348 224.319H124.248V232.913H158.348V224.319Z" fill="#964949"/>
<path d="M107.198 181.764H90.1488V193.13H107.198V181.764Z" fill="#964949"/>
<path d="M192.447 181.764H175.397V193.13H192.447V181.764Z" fill="#964949"/>
<path d="M164.031 147.665H181.081V164.714H164.031V147.665Z" fill="black"/>
<path d="M192.447 136.298H152.664V141.981H192.447V136.298Z" fill="black"/>
<path d="M159 129H185V137H159V129Z" fill="black"/>
<path d="M146.981 249.963H124.248V255.646H146.981V249.963Z" fill="#964949"/>
<path d="M152.664 255.646H146.981V261.329H152.664V255.646Z" fill="#E68A8A"/>
<path d="M221 164.714H215.317V193.13H221V164.714Z" fill="#964949"/>
<rect x="79" y="222" width="8" height="7" fill="#ECA4A4"/>
<path d="M226.546 159.031H220.22V181.764H226.546V159.031Z" fill="#964949"/>
<path d="M215.18 90.8323H209.497V95.8497H215.18V90.8323Z" fill="black"/>
<path d="M210.261 79.4658H203.814V124.932H210.261V79.4658Z" fill="#232222"/>
<path d="M192.447 68.0993H186.764V79.4658H192.447V68.0993Z" fill="#232222"/>
<path d="M192.372 63H175.397V73.7826H192.372V63Z" fill="#232222"/>
<path d="M170.982 306.461H141.298V329.059H170.982V306.461Z" fill="#323E5B"/>
<path d="M152.664 312.144H141.298V340.56H152.664V312.144Z" fill="#323E5B"/>
<path d="M220.863 96.5155H211.46V130.615H220.863V96.5155Z" fill="black"/>
<path d="M215.18 96.5155H209.497V159.031H215.18V96.5155Z" fill="#232222"/>
<path d="M209.497 272.361H203.814V289.411H209.497V272.361Z" fill="#1F2B3C"/>
<rect x="95.6758" y="96.3358" width="5.32422" height="10.4119" fill="#232222"/>
<rect x="78.7825" y="90.3905" width="5.68323" height="6.12497" fill="#232222"/>
<path d="M101 96.3168H90.1488V102H101V96.3168Z" fill="#232222"/>
<path d="M84.4657 84.9503H78.7825V96.3168H84.4657V84.9503Z" fill="black"/>
<rect x="50.7721" y="319.392" width="11.7309" height="7.49614" fill="#323E5B"/>
</svg>
