<svg width="192" height="285" viewBox="0 0 192 285" fill="none" xmlns="http://www.w3.org/2000/svg">
<path d="M60.3761 221.812H32.833V245.006H60.3761V221.812Z" fill="#323E5B"/>
<path d="M138.284 89.8186H111.872V95.101H138.284V89.8186Z" fill="black"/>
<path d="M143.566 10.5821H48.4827V31.7118H143.566V10.5821Z" fill="#232222"/>
<path d="M69.6124 31.7118H48.4827V52.8415H69.6124V31.7118Z" fill="#232222"/>
<path d="M88.1008 21.1469H56.7938V52.8415H88.1008V21.1469Z" fill="#232222"/>
<path d="M90.7421 31.7118H80.1772V42.2766H90.7421V31.7118Z" fill="#232222"/>
<path d="M101.307 31.7118H90.7423V36.9942H101.307V31.7118Z" fill="#232222"/>
<path d="M62.2865 31.6194H26.9663V52.9974H62.2865V31.6194Z" fill="#232222"/>
<path d="M62.2865 21.3952H32.5432V34.353H62.2865V21.3952Z" fill="#232222"/>
<path d="M52.9916 10.2414H42.7673V25.1131H52.9916V10.2414Z" fill="#232222"/>
<path d="M45.2644 15.8183H38.12V26.972H45.2644V15.8183Z" fill="#232222"/>
<path d="M132.927 5.59404H48.3442V19.5362H132.927V5.59404Z" fill="#232222"/>
<path d="M117.154 0.0171661H69.6122V10.2414H117.154V0.0171661Z" fill="#232222"/>
<path d="M169.979 58.1239H164.696V110.948H169.979V58.1239Z" fill="#232222"/>
<path d="M164.529 41.8437H157.093V58.5743H164.529V41.8437Z" fill="#232222"/>
<path d="M159.414 36.9942H154.132V42.2766H159.414V36.9942Z" fill="#232222"/>
<path d="M154.305 21.3952H139.433V37.1963H154.305V21.3952Z" fill="#232222"/>
<path d="M148.849 15.8645H139.433V36.9942H148.849V15.8645Z" fill="#232222"/>
<path d="M159.414 26.972H143.497V52.8415H159.414V26.972Z" fill="#232222"/>
<path d="M148.849 36.9942H142.214V42.2766H148.849V36.9942Z" fill="#232222"/>
<path d="M29.7547 63.2217H22.3188V111.555H29.7547V63.2217Z" fill="#232222"/>
<path d="M37.1905 47.5591H22.0704V68.6888H37.1905V47.5591Z" fill="#232222"/>
<path d="M37.9178 63.4064H32.6354V68.6888H37.9178V63.4064Z" fill="#232222"/>
<path d="M43.2004 52.8416H37.918V63.4064H43.2004V52.8416Z" fill="#5E4B4C"/>
<path d="M48.4826 52.8416H43.2002V58.124H48.4826V52.8416Z" fill="#614D4F"/>
<path d="M101.307 31.7118H90.7423V36.9942H101.307V31.7118Z" fill="black"/>
<path d="M80.1773 42.2766H74.8949V52.8415H80.1773V42.2766Z" fill="black"/>
<path d="M90.7421 36.9942H80.1772V42.2766H90.7421V36.9942Z" fill="black"/>
<path d="M117.154 26.4294H101.307V31.7118H117.154V26.4294Z" fill="black"/>
<path d="M106.709 21.1469H96.1443V26.4294H106.709V21.1469Z" fill="black"/>
<path d="M74.8946 47.5591H69.6122V52.8415H74.8946V47.5591Z" fill="black"/>
<path d="M90.742 26.4294H85.4596V36.9942H90.742V26.4294Z" fill="black"/>
<path d="M101.307 26.4294H90.7423V31.7118H101.307V26.4294Z" fill="black"/>
<path d="M111.872 21.1469H106.589V26.4293H111.872V21.1469Z" fill="black"/>
<path d="M69.6123 42.2766H64.3298V52.8415H69.6123V42.2766Z" fill="black"/>
<path d="M170.549 89.8947H163.301V111.639H170.549V89.8947Z" fill="black"/>
<path d="M159.414 58.1239H154.132V63.4064H159.414V58.1239Z" fill="black"/>
<path d="M74.8946 31.7118H69.6122V36.9942H74.8946V31.7118Z" fill="black"/>
<path d="M48.8693 42.8655H43.5869V48.1479H48.8693V42.8655Z" fill="black"/>
<path d="M48.8693 47.5591H43.2002V52.8415H48.8693V47.5591Z" fill="black"/>
<path d="M43.2004 47.5591H37.918V52.8415H43.2004V47.5591Z" fill="black"/>
<path d="M170.549 47.8552H157.502V60.902H170.549V47.8552Z" fill="#232222"/>
<path d="M158.952 31.6194H145.939V41.8437H158.952V31.6194Z" fill="#232222"/>
<path d="M159.414 26.4294H153.285V33.4285H159.414V26.4294Z" fill="#232222"/>
<path d="M164.529 36.9942H156.09V42.2766H164.529V36.9942Z" fill="#232222"/>
<path d="M29.7548 58.5743H16.7421V90.1765H29.7548V58.5743Z" fill="#232222"/>
<path d="M34.0312 63.2217H25.1074V94.8239H34.0312V63.2217Z" fill="#232222"/>
<path d="M180.544 116.231H175.261V142.643H180.544V116.231Z" fill="#C07A7A"/>
<path d="M180.543 110.948H161.74V116.231H180.543V110.948Z" fill="#C07A7A"/>
<path d="M174.753 136.65H164.529V153.381H174.753V136.65Z" fill="#C07A7A"/>
<path d="M185.907 116.202H161.74V137.58H185.907V116.202Z" fill="#C07A7A"/>
<path d="M180.544 121.513H175.261V132.078H180.544V121.513Z" fill="#C07A7A"/>
<path d="M180.544 121.513H174.047V132.078H180.544V121.513Z" fill="#964949"/>
<path d="M169.979 116.231H164.696V142.643H169.979V116.231Z" fill="#C07A7A"/>
<path d="M27.3529 110.948H22.0704V153.208H27.3529V110.948Z" fill="#964949"/>
<path d="M25.1072 121.513H16.7878V142.643H25.1072V121.513Z" fill="#964949"/>
<path d="M111.872 216.286H69.6122V226.851H111.872V216.286Z" fill="#C57676"/>
<path d="M114.513 219.989H69.6122V237.416H114.513V219.989Z" fill="#C57676"/>
<path d="M128.812 211.004H107.486V237.13H128.812V211.004Z" fill="#C57676"/>
<path d="M117.154 211.004H111.872V226.851H117.154V211.004Z" fill="#C57676"/>
<path d="M78.9353 216.286H59.0476V237.416H78.9353V216.286Z" fill="#C57676"/>
<path d="M101.307 237.416H59.0476V242.698H101.307V237.416Z" fill="#C57676"/>
<path d="M69.6125 211.004H59.0476V216.286H69.6125V211.004Z" fill="#C57676"/>
<path d="M90.7421 212.319H59.0476V250.115H90.7421V212.319Z" fill="#C57676"/>
<path d="M160 211.004H132.784V248.557H160V211.004Z" fill="#1F2B3C"/>
<path d="M143.566 242.698H138.284V247.981H143.566V242.698Z" fill="#1F2B3C"/>
<path d="M138.284 245.495H133.002V247.981H138.284V245.495Z" fill="#1F2B3C"/>
<path d="M133.002 226.851H127.719V247.981H133.002V226.851Z" fill="#1F2B3C"/>
<path d="M185.634 237.13H154.21V247.843H185.634V237.13Z" fill="#323E5B"/>
<path d="M165.401 221.569H159.414V237.416H165.401V221.569Z" fill="#1F2B3C"/>
<path d="M169.979 232.444H164.696V243.009H169.979V232.444Z" fill="#323E5B"/>
<path d="M175.261 237.727H169.979V243.009H175.261V237.727Z" fill="#323E5B"/>
<path d="M149.21 200.706H138.771V239.273H149.21V200.706Z" fill="#323E5B"/>
<path d="M138.284 211.004H133.002V250.777H138.284V211.004Z" fill="#323E5B"/>
<path d="M132.083 242.698H111.872V263.828H132.083V242.698Z" fill="#323E5B"/>
<path d="M180.544 237.727H175.261V243.009H180.544V237.727Z" fill="#323E5B"/>
<path d="M165.401 229.492H159.414V237.416H165.401V229.492Z" fill="#323E5B"/>
<path d="M148.849 200.75H143.567V206.032H148.849V200.75Z" fill="#323E5B"/>
<path d="M191.348 242.844H148.496V254.395H191.348V242.844Z" fill="#323E5B"/>
<path d="M185.826 248.557H143.567V258.546H185.826V248.557Z" fill="#323E5B"/>
<path d="M180.543 248.188H138.284V263.828H180.543V248.188Z" fill="#323E5B"/>
<path d="M169.922 250.7H138.284V269.111H169.922V250.7Z" fill="#323E5B"/>
<path d="M159.414 263.828H138.284V274.393H159.414V263.828Z" fill="#323E5B"/>
<path d="M144.455 265.301H122.711V279.797H144.455V265.301Z" fill="#323E5B"/>
<path d="M133.002 253.263H106.589V274.393H133.002V253.263Z" fill="#1F2B3C"/>
<path d="M148.849 247.981H133.002V253.263H148.849V247.981Z" fill="#1F2B3C"/>
<path d="M138.284 253.263H133.002V263.828H138.284V253.263Z" fill="#1F2B3C"/>
<path d="M143.566 253.263H138.284V258.546H143.566V253.263Z" fill="#1F2B3C"/>
<path d="M117.154 253.263H106.589V284.958H117.154V253.263Z" fill="#323E5B"/>
<path d="M133.002 274.393H116.196V284.958H133.002V274.393Z" fill="#1F2B3C"/>
<path d="M117.786 247.843H106.359V253.557H117.786V247.843Z" fill="#323E5B"/>
<path d="M96.3599 258.556H87.764V269.269H96.3599V258.556Z" fill="#323E5B"/>
<path d="M96.0247 269.111H90.7423V284.958H96.0247V269.111Z" fill="#323E5B"/>
<path d="M138.284 221.569H133.002V263.828H138.284V221.569Z" fill="#323E5B"/>
<path d="M133.002 216.286H127.719V258.546H133.002V216.286Z" fill="#323E5B"/>
<path d="M154.131 205.721H143.497V237.416H154.131V205.721Z" fill="#323E5B"/>
<path d="M122.437 237.416H117.154V274.393H122.437V237.416Z" fill="#323E5B"/>
<path d="M159.414 211.004H151.962V221.569H159.414V211.004Z" fill="#323E5B"/>
<path d="M51.1328 226.851H27.3529V242.698H51.1328V226.851Z" fill="#323E5B"/>
<path d="M59.0475 211.009H42.7673V224.951H59.0475V211.009Z" fill="#323E5B"/>
<path d="M56.0273 237.758H11.0885V249.355H56.0273V237.758Z" fill="#323E5B"/>
<path d="M36.2516 232.483H21.764V243.196H36.2516V232.483Z" fill="#323E5B"/>
<path d="M49.2739 245.399H11.1653V259.342H49.2739V245.399Z" fill="#323E5B"/>
<path d="M43.6968 252.835H4.54846V267.816H43.6968V252.835Z" fill="#323E5B"/>
<path d="M116.196 268.227H84.5938V284.958H116.196V268.227Z" fill="#323E5B"/>
<path d="M85.4597 247.981H48.4827V284.958H85.4597V247.981Z" fill="#1F2B3C"/>
<path d="M90.8186 252.254H82.1207V269.65H90.8186V252.254Z" fill="#1F2B3C"/>
<path d="M107.068 247.843H90.6464V257.842H107.068V247.843Z" fill="#1F2B3C"/>
<path d="M98.5025 253.557H88.4731V259.212H98.5025V253.557Z" fill="#1F2B3C"/>
<path d="M64.33 242.698H53.7651V254.395H64.33V242.698Z" fill="#1F2B3C"/>
<path d="M56.4817 263.828H37.918V280.98H56.4817V263.828Z" fill="#1F2B3C"/>
<path d="M56.4816 258.546H43.2002V269.269H56.4816V258.546Z" fill="#1F2B3C"/>
<path d="M90.6463 241.172H64.2211V253.557H90.6463V241.172Z" fill="#C57676"/>
<path d="M43.2002 263.828H21.5648V276.464H43.2002V263.828Z" fill="#323E5B"/>
<path d="M148.849 47.5591H74.8949V95.101H148.849V47.5591Z" fill="#C07A7A"/>
<path d="M128.279 31.6194H101.324V48.3501H128.279V31.6194Z" fill="#C07A7A"/>
<path d="M139.433 34.353H90.7423V47.5591H139.433V34.353Z" fill="#C07A7A"/>
<path d="M105.221 42.2766H80.1772V61.8576H105.221V42.2766Z" fill="#C07A7A"/>
<path d="M138.284 36.9942H127.719V47.5591H138.284V36.9942Z" fill="#C07A7A"/>
<path d="M148.849 42.2766H134.22V52.0671H148.849V42.2766Z" fill="#C07A7A"/>
<path d="M154.131 52.8416H143.497V102.559H154.131V52.8416Z" fill="#C07A7A"/>
<path d="M79.9465 58.1239H37.1906V96.6829H79.9465V58.1239Z" fill="#C07A7A"/>
<path d="M47.4819 52.8416H37.918V63.4064H47.4819V52.8416Z" fill="#C07A7A"/>
<path d="M48.4827 52.8416H40.7593V58.124H48.4827V52.8416Z" fill="#C07A7A"/>
<path d="M80.1771 52.8416H64.3298V63.4064H80.1771V52.8416Z" fill="#C07A7A"/>
<path d="M65.0638 57.0153H53.1892V62.9526H65.0638V57.0153Z" fill="#C07A7A"/>
<path d="M154.603 94.8239H27.3529V169.625H154.603V94.8239Z" fill="#C07A7A"/>
<path d="M37.9178 68.6888H32.6354V95.101H37.9178V68.6888Z" fill="#C07A7A"/>
<path d="M106.589 90.7508H80.1772V110.948H106.589V90.7508Z" fill="#C07A7A"/>
<path d="M106.59 110.948H90.7423V153.208H106.59V110.948Z" fill="#C07A7A"/>
<path d="M90.742 126.796H85.4596V153.208H90.742V126.796Z" fill="#C07A7A"/>
<path d="M85.4597 137.36H80.1772V147.925H85.4597V137.36Z" fill="#C07A7A"/>
<path d="M69.7222 147.804H42.7673V190.185H69.7222V147.804Z" fill="#C07A7A"/>
<path d="M111.872 184.902H53.7651V206.032H111.872V184.902Z" fill="#C07A7A"/>
<path d="M80.1773 184.902H48.4827V190.185H80.1773V184.902Z" fill="#C07A7A"/>
<path d="M59.0475 100.383H48.4827V121.513H59.0475V100.383Z" fill="#C07A7A"/>
<path d="M85.4595 100.383H69.6122V126.796H85.4595V100.383Z" fill="#C07A7A"/>
<path d="M74.8949 100.383H59.0476V105.666H74.8949V100.383Z" fill="#C07A7A"/>
<path d="M53.7651 89.8186H48.4827V95.101H53.7651V89.8186Z" fill="#C07A7A"/>
<path d="M85.4597 90.44H80.1772V95.101H85.4597V90.44Z" fill="#C07A7A"/>
<path d="M111.872 158.49H74.8949V179.62H111.872V158.49Z" fill="#C07A7A"/>
<path d="M74.8947 137.36H64.3298V147.925H74.8947V137.36Z" fill="#C07A7A"/>
<path d="M79.9466 147.804H68.7928V174.759H79.9466V147.804Z" fill="#C07A7A"/>
<path d="M85.5234 153.381H74.3696V158.958H85.5234V153.381Z" fill="#C07A7A"/>
<path d="M154.603 153.679H105.315V179.772H154.603V153.679Z" fill="#C07A7A"/>
<path d="M164.696 147.925H111.872V158.49H164.696V147.925Z" fill="#C07A7A"/>
<path d="M164.696 116.231H143.567V151.95H164.696V116.231Z" fill="#C07A7A"/>
<path d="M143.567 121.513H117.154V137.36H143.567V121.513Z" fill="#C07A7A"/>
<path d="M117.154 100.383H106.589V137.36H117.154V100.383Z" fill="#C07A7A"/>
<path d="M111.872 100.383H106.589V128.039H111.872V100.383Z" fill="#C07A7A"/>
<path d="M111.872 89.8186H106.589V95.101H111.872V89.8186Z" fill="#C07A7A"/>
<path d="M159.414 100.383H133.002V120.252H159.414V100.383Z" fill="#C07A7A"/>
<path d="M143.567 116.231H133.002V121.513H143.567V116.231Z" fill="#C07A7A"/>
<path d="M159.414 79.9523H146.208V100.383H159.414V79.9523Z" fill="#C07A7A"/>
<path d="M148.849 90.7508H143.567V100.383H148.849V90.7508Z" fill="#C07A7A"/>
<path d="M143.566 89.8186H138.284V95.101H143.566V89.8186Z" fill="#C07A7A"/>
<path d="M133.002 100.383H117.154V105.666H133.002V100.383Z" fill="#C07A7A"/>
<path d="M127.719 137.36H111.872V147.925H127.719V137.36Z" fill="#C07A7A"/>
<path d="M154.131 174.338H122.437V179.62H154.131V174.338Z" fill="#C07A7A"/>
<path d="M111.872 181.265H143.991V195.467H111.872V181.265Z" fill="#C07A7A"/>
<path d="M133.002 195.467H106.359V211.315H133.002V195.467Z" fill="#C07A7A"/>
<path d="M127.719 201.79H59.0476V211.004H127.719V201.79Z" fill="#C07A7A"/>
<path d="M122.71 201.79H64.725V213.114H122.71V201.79Z" fill="#C07A7A"/>
<path d="M111.872 211.004H69.6122V218.129H111.872V211.004Z" fill="#C07A7A"/>
<path d="M111.872 137.36H106.589V147.925H111.872V137.36Z" fill="#C07A7A"/>
<path d="M159.414 153.208H154.132V169.055H159.414V153.208Z" fill="#C07A7A"/>
<path d="M138.284 205.721H122.437V211.004H138.284V205.721Z" fill="#C57676"/>
<path d="M133.002 200.75H127.719V211.315H133.002V200.75Z" fill="#C57676"/>
<path d="M138.284 200.75H133.002V221.569H138.284V200.75Z" fill="#C57676"/>
<path d="M133.002 211.004H127.719V216.286H133.002V211.004Z" fill="#C57676"/>
<path d="M112.072 234.775H88.1008V247.843H112.072V234.775Z" fill="#C57676"/>
<path d="M117.154 226.851H106.589V242.698H117.154V226.851Z" fill="#C57676"/>
<path d="M114.513 229.492H101.307V242.698H114.513V229.492Z" fill="#C57676"/>
<path d="M127.719 221.569H117.154V232.134H127.719V221.569Z" fill="#C57676"/>
<path d="M122.437 232.134H117.154V237.416H122.437V232.134Z" fill="#C57676"/>
<path d="M133.002 205.721H124.685V226.851H133.002V205.721Z" fill="#C57676"/>
<path d="M111.872 226.851H106.589V233.376H111.872V226.851Z" fill="#C57676"/>
<path d="M127.719 211.004H122.437V221.569H127.719V211.004Z" fill="#C57676"/>
<path d="M148.849 179.213H138.771V190.185H148.849V179.213Z" fill="#C07A7A"/>
<path d="M179.401 137.58H170.106V142.227H179.401V137.58Z" fill="#C07A7A"/>
<path d="M48.7934 163.605H32.3346V176.873H48.7934V163.605Z" fill="#C07A7A"/>
<path d="M127.719 174.338H107.519V201.79H127.719V174.338Z" fill="#C07A7A"/>
<path d="M80.1771 179.62H64.725V187.544H80.1771V179.62Z" fill="#C07A7A"/>
<path d="M57.3792 184.983H48.4827V200.75H57.3792V184.983Z" fill="#C07A7A"/>
<path d="M148.459 176.914H122.437V184.902H148.459V176.914Z" fill="#C07A7A"/>
<path d="M138.284 190.56H111.872V200.75H138.284V190.56Z" fill="#C07A7A"/>
<path d="M53.7651 105.666H69.6124V121.513H53.7651V105.666Z" fill="black"/>
<path d="M75.2055 90.1293H48.7933V95.4117H75.2055V90.1293Z" fill="black"/>
<path d="M80.1772 95.101H43.2002V100.383H80.1772V95.101Z" fill="black"/>
<path d="M51.1326 179.406H42.7673V190.56H51.1326V179.406Z" fill="#C07A7A"/>
<path d="M143.497 200.706H132.784V242.844H143.497V200.706Z" fill="#323E5B"/>
<path d="M133.483 216.418H127.785V269.269H133.483V216.418Z" fill="#323E5B"/>
<path d="M128.134 227.131H122.071V273.503H128.134V227.131Z" fill="#323E5B"/>
<path d="M138.497 257.842H132.784V274.268H138.497V257.842Z" fill="#323E5B"/>
<path d="M90.742 110.948H85.4596V126.796H90.742V110.948Z" fill="#964949"/>
<path d="M85.4597 126.796H80.1772V137.36H85.4597V126.796Z" fill="#964949"/>
<path d="M80.1773 137.36H74.8949V147.925H80.1773V137.36Z" fill="#964949"/>
<path d="M102.237 153.208H85.4596V158.49H102.237V153.208Z" fill="#964949"/>
<path d="M107.519 138.29H102.237V148.855H107.519V138.29Z" fill="#964949"/>
<path d="M102.237 133.008H96.9546V138.29H102.237V133.008Z" fill="#964949"/>
<path d="M85.5234 147.804H79.9465V153.381H85.5234V147.804Z" fill="#964949"/>
<path d="M107.519 148.099H102.237V153.381H107.519V148.099Z" fill="#964949"/>
<path d="M118.362 173.974H69.074V179.772H118.362V173.974Z" fill="#964949"/>
<path d="M118.362 169.625H112.563V176.873H118.362V169.625Z" fill="#964949"/>
<path d="M74.3564 169.625H69.074V174.907H74.3564V169.625Z" fill="#964949"/>
<path d="M111.872 176.914H80.1772V184.902H111.872V176.914Z" fill="#964949"/>
<path d="M64.33 137.36H48.4827V147.925H64.33V137.36Z" fill="#964949"/>
<path d="M143.566 137.36H127.719V147.925H143.566V137.36Z" fill="#964949"/>
<path d="M117.154 105.666H133.002V121.513H117.154V105.666Z" fill="black"/>
<path d="M143.567 95.101H106.589V100.383H143.567V95.101Z" fill="black"/>
<path d="M112.478 88.3176H136.645V95.7534H112.478V88.3176Z" fill="black"/>
<path d="M101.307 200.75H80.1772V206.032H101.307V200.75Z" fill="#964949"/>
<path d="M106.589 206.032H101.307V211.315H106.589V206.032Z" fill="#964949"/>
<path d="M170.106 121.513H164.823V147.925H170.106V121.513Z" fill="#964949"/>
<rect x="37.6724" y="171.074" width="14.0059" height="13.6243" fill="#C07A7A"/>
<path d="M175.261 116.231H169.381V137.36H175.261V116.231Z" fill="#964949"/>
<path d="M164.696 52.8416H159.414V57.5052H164.696V52.8416Z" fill="black"/>
<path d="M160.125 42.2766H154.132V84.5361H160.125V42.2766Z" fill="#232222"/>
<path d="M143.566 31.7118H138.284V42.2766H143.566V31.7118Z" fill="#232222"/>
<path d="M143.497 26.972H127.719V36.9942H143.497V26.972Z" fill="#232222"/>
<path d="M121.977 253.263H96.0245V278.113H121.977V253.263Z" fill="#323E5B"/>
<path d="M106.589 258.546H96.0245V284.958H106.589V258.546Z" fill="#323E5B"/>
<path d="M170.549 58.0027H160.401V89.8947H170.549V58.0027Z" fill="black"/>
<path d="M159.414 221.569H154.132V237.416H159.414V221.569Z" fill="#1F2B3C"/>
<rect x="54.3767" y="57.0153" width="4.94875" height="9.6776" fill="#232222"/>
<rect x="37.918" y="52.4309" width="5.28244" height="5.69303" fill="#232222"/>
<path d="M59.1266 54.6404H48.4395V62.9526H59.1266V54.6404Z" fill="#232222"/>
<path d="M43.2004 47.3744H37.918V57.9393H43.2004V47.3744Z" fill="black"/>
<rect x="11.8828" y="265.283" width="10.9037" height="6.9675" fill="#323E5B"/>
<path d="M164.696 58.1239H159.414V116.231H164.696V58.1239Z" fill="#232222"/>
<path d="M64.7249 47.8552H22.6854V58.5743H64.7249V47.8552Z" fill="#232222"/>
</svg>
