<svg width="32" height="37" viewBox="0 0 32 37" fill="none" xmlns="http://www.w3.org/2000/svg">
<path d="M20.98 23.2743L18.7527 23.5262L20.4281 25.0154C20.9914 25.5161 21.6539 26.6556 21.6539 28.6421C21.6539 30.2163 21.6476 31.6383 21.6412 32.764C21.6391 33.1409 21.6369 33.4856 21.635 33.7919C21.6331 34.1111 21.6313 34.3887 21.6302 34.6177C21.6235 34.62 21.6167 34.6224 21.6098 34.6247C21.2519 34.7467 20.7227 34.8713 20.1067 34.9833C18.8734 35.2078 17.4783 35.3495 16.7923 35.3495C16.0068 35.3495 14.6823 35.2055 13.5518 34.9818C12.9967 34.8719 12.5332 34.7514 12.2227 34.6363C12.221 34.4152 12.2185 34.1469 12.2157 33.838C12.209 33.1147 12.2002 32.1692 12.1946 31.0885L12.1882 29.8481L10.9774 30.1176C8.05025 30.7691 6.44154 30.0285 5.56773 29.2845C5.10932 28.8942 4.81109 28.4669 4.62851 28.1386C4.53765 27.9753 4.47721 27.8395 4.44118 27.7502C4.42323 27.7057 4.41152 27.6732 4.40528 27.6551L4.40034 27.6404L4.39124 27.6095L4.37721 27.5728C3.95558 26.4704 3.45596 25.6482 2.98023 25.0443C3.22054 25.2835 3.40395 25.5194 3.5265 25.6949C3.58798 25.7829 3.63283 25.8538 3.66065 25.8996C3.67453 25.9225 3.68407 25.939 3.68922 25.948L3.69327 25.9552L3.69333 25.9553L3.69362 25.9558L3.69703 25.9622L3.70296 25.9727C4.88993 28.0609 6.52621 28.8884 8.10419 29.0333C9.60926 29.1715 10.9581 28.6821 11.6817 28.3512L12.1821 28.1223L12.2566 27.5772C12.4394 26.2399 12.9456 25.4353 13.3942 25.0319L15.0407 23.5513L12.8413 23.295C10.3497 23.0047 7.97617 22.3803 6.22525 20.8687C4.5182 19.395 3.24792 16.939 3.24792 12.6307C3.24792 10.3039 4.04846 8.43353 5.35929 6.96395L5.77215 6.50109L5.54095 5.92555C5.37512 5.51274 4.73461 3.64347 5.56176 1.01248C5.71446 1.02442 5.90689 1.05025 6.14069 1.10092C7.01531 1.29049 8.47688 1.8299 10.5937 3.29991L10.9845 3.57131L11.4416 3.43925C13.1736 2.93892 15.0476 2.69019 16.9217 2.68002C18.7887 2.69019 20.6642 2.94348 22.405 3.44017L22.861 3.57029L23.2504 3.29947C25.3672 1.82697 26.8272 1.28793 27.6999 1.09908C27.9331 1.04861 28.125 1.02301 28.2771 1.01126C29.1078 3.64117 28.4651 5.5119 28.2998 5.93241L28.0742 6.50599L28.4853 6.96523C29.799 8.43294 30.5955 10.3073 30.5955 12.6307C30.5955 16.9497 29.3237 19.4029 27.6151 20.8702C25.8618 22.3758 23.4831 22.9912 20.98 23.2743ZM21.9028 34.503C21.9024 34.5033 21.902 34.5035 21.9016 34.5038L21.9042 34.5021C21.9043 34.5021 21.9038 34.5024 21.9028 34.503ZM4.39997 27.6393C4.39974 27.6386 4.39983 27.6388 4.40023 27.6401L4.39997 27.6393Z" stroke="white" stroke-width="2"/>
</svg>
