<svg width="61" height="59" viewBox="0 0 61 59" fill="none" xmlns="http://www.w3.org/2000/svg">
<path d="M56.5546 15.3096C53.8505 10.7534 50.1826 7.14634 45.5498 4.48747C40.9164 1.82846 35.858 0.499298 30.3712 0.499298C24.8851 0.499298 19.8251 1.82887 15.1926 4.48747C10.5595 7.14621 6.89167 10.7534 4.18756 15.3096C1.48387 19.8656 0.131958 24.8407 0.131958 30.235C0.131958 36.7147 2.0544 42.5414 5.90025 47.7166C9.74568 52.8922 14.7134 56.4735 20.803 58.461C21.5119 58.5904 22.0366 58.4994 22.3778 58.1903C22.7191 57.8808 22.8896 57.4932 22.8896 57.0291C22.8896 56.9517 22.8828 56.2551 22.8697 54.9384C22.8562 53.6217 22.8499 52.473 22.8499 51.4929L21.9442 51.647C21.3668 51.751 20.6384 51.7951 19.7589 51.7826C18.8799 51.7705 17.9674 51.6799 17.0225 51.5115C16.0773 51.3446 15.1982 50.9574 14.3844 50.3508C13.571 49.7442 12.9936 48.9501 12.6522 47.9699L12.2585 47.0789C11.9961 46.4857 11.5829 45.8268 11.0184 45.1045C10.454 44.3815 9.88317 43.8914 9.30575 43.6334L9.03007 43.4393C8.84638 43.3103 8.67592 43.1548 8.5183 42.9743C8.3608 42.7938 8.24289 42.6131 8.16415 42.4322C8.08526 42.2512 8.15063 42.1027 8.36094 41.9862C8.57125 41.8697 8.95133 41.8131 9.50282 41.8131L10.29 41.9288C10.815 42.0323 11.4644 42.3413 12.2391 42.8579C13.0133 43.3741 13.6497 44.0451 14.1485 44.8707C14.7526 45.9293 15.4803 46.736 16.3338 47.291C17.1867 47.8461 18.0465 48.1232 18.9126 48.1232C19.7786 48.1232 20.5267 48.0586 21.1569 47.9302C21.7864 47.8011 22.3771 47.607 22.9286 47.3491C23.1648 45.6189 23.808 44.2897 24.8577 43.3606C23.3616 43.206 22.0166 42.9732 20.8219 42.6636C19.6279 42.3535 18.394 41.8504 17.1211 41.1528C15.8476 40.4562 14.791 39.5911 13.9513 38.559C13.1115 37.5265 12.4222 36.1708 11.8845 34.4934C11.3465 32.8153 11.0775 30.8796 11.0775 28.6856C11.0775 25.5617 12.1145 22.9033 14.1883 20.7091C13.2168 18.3605 13.3085 15.7277 14.4637 12.8109C15.2249 12.5783 16.3538 12.7528 17.8499 13.3334C19.3462 13.9142 20.4417 14.4118 21.1376 14.8243C21.8335 15.2367 22.391 15.5862 22.8111 15.8697C25.2528 15.1988 27.7725 14.8633 30.371 14.8633C32.9694 14.8633 35.4897 15.1988 37.9315 15.8697L39.4277 14.9408C40.4508 14.3211 41.659 13.7531 43.0494 13.2368C44.4406 12.7208 45.5045 12.5787 46.2398 12.8113C47.4206 15.7282 47.5258 18.3609 46.5541 20.7095C48.6277 22.9037 49.6651 25.5628 49.6651 28.686C49.6651 30.88 49.3951 32.8218 48.858 34.5128C48.3201 36.2041 47.6249 37.5583 46.7721 38.5784C45.9183 39.5984 44.855 40.4567 43.5821 41.1532C42.309 41.8503 41.0747 42.3534 39.8807 42.6634C38.6861 42.9734 37.3411 43.2064 35.8451 43.3613C37.2095 44.5224 37.8919 46.3553 37.8919 48.859V57.0281C37.8919 57.4921 38.056 57.8796 38.3845 58.1892C38.7126 58.4983 39.2307 58.5893 39.9396 58.4598C46.03 56.4726 50.9978 52.8911 54.843 47.7155C58.6879 42.5403 60.6111 36.7136 60.6111 30.2339C60.6097 24.8403 59.2571 19.8656 56.5546 15.3096Z" fill="white"/>
</svg>
