<svg width="32" height="38" viewBox="0 0 32 38" fill="none" xmlns="http://www.w3.org/2000/svg">
<path d="M22.7071 36.5187C22.7071 37.1664 18.4799 37.7897 16.9723 37.7897C15.2664 37.7897 11.5018 37.1559 11.5018 36.5135C11.5018 35.939 11.4818 34.4139 11.4719 32.3926C5.1845 33.855 3.85506 29.1439 3.85506 29.1439C2.83049 26.3444 1.34612 25.6027 1.34612 25.6027C-0.708012 24.0985 1.50106 24.1299 1.50106 24.1299C3.7701 24.3022 4.96459 26.6264 4.96459 26.6264C6.97874 30.3295 10.2524 29.2588 11.5418 28.6425C11.7467 27.0756 12.3315 26.0101 12.9762 25.4043C7.95833 24.7932 2.68056 22.7145 2.68056 13.4333C2.68056 10.7853 3.56019 8.62295 5.00458 6.93072C4.76968 6.31963 3.995 3.85963 5.22448 0.522164C5.22448 0.522164 7.12368 -0.125482 11.4419 3.00829C13.2411 2.4651 15.1753 2.19873 17.0995 2.18828C19.0187 2.19873 20.9529 2.47032 22.7571 3.00829C27.0753 -0.130705 28.9695 0.522164 28.9695 0.522164C30.2039 3.85963 29.4243 6.31963 29.1944 6.93072C30.6438 8.62295 31.5184 10.7905 31.5184 13.4333C31.5184 22.7354 26.2356 24.788 21.1977 25.3834C22.0074 26.1355 22.7321 27.6136 22.7321 29.8751C22.7321 33.1133 22.7071 35.7248 22.7071 36.5187Z" fill="#1D4F97"/>
</svg>
