<svg width="36" height="38" viewBox="-2 2 35 35" fill="none" xmlns="http://www.w3.org/2000/svg">
<path d="M17.4798 8.43323H5.64933C3.2688 8.43323 1.339 10.363 1.339 12.7436V29.4388C1.339 31.8193 3.2688 33.7491 5.64933 33.7491H22.3445C24.7251 33.7491 26.6549 31.8193 26.6549 29.4388V17.571" stroke="white" stroke-width="2.72413"/>
<path d="M30.5972 5.77374C30.5735 5.22196 30.1071 4.79381 29.5553 4.81744L20.5635 5.20256C20.0118 5.2262 19.5836 5.69266 19.6072 6.24444C19.6309 6.79622 20.0973 7.22436 20.6491 7.20073L28.6418 6.8584L28.9841 14.8511C29.0078 15.4029 29.4742 15.831 30.026 15.8074C30.5778 15.7837 31.0059 15.3173 30.9823 14.7655L30.5972 5.77374ZM28.8614 5.14033L13.3813 22.0058L14.8547 23.3582L30.3348 6.49273L28.8614 5.14033Z" fill="white"/>
</svg>
