<svg width="186" height="186" viewBox="0 0 186 186" fill="none" xmlns="http://www.w3.org/2000/svg">
<g clip-path="url(#clip0)">
<path d="M16.9995 0C7.50005 6.08191e-05 4.4995 6 5.99947 14.5L18.9995 160C18.9995 164.027 24.4995 170.5 28.9995 170.5L83.5192 184.872C85.1595 185.328 87.8435 185.328 89.4845 184.873L144.5 170.5C151.5 169 153.5 163 153.5 160L166.5 14.5C167.5 7 164 0 153.5 0H16.9995ZM137.639 36.918C137.503 38.4302 137.268 41.0554 137.117 42.7508L136.739 46.9743C136.587 48.6691 136.37 51.0931 136.256 52.3602C136.142 53.6279 136.034 54.6648 136.014 54.6648C135.995 54.6648 134.586 54.6648 132.883 54.6648H89.7018C87.9995 54.6648 86.5925 54.6648 86.5739 54.6648C86.5554 54.6648 85.1471 54.6648 83.4449 54.6648H60.7027C59.0004 54.6648 57.7321 56.052 57.8831 57.7474L59.2097 72.5756C59.3607 74.2705 60.8779 75.6583 62.5801 75.6583H83.4455C85.1478 75.6583 86.556 75.6583 86.5746 75.6583C86.5931 75.6583 88.0001 75.6583 89.7024 75.6583H125.567C127.269 75.6583 129.904 75.6583 131.421 75.6583C132.937 75.6583 134.066 76.8957 133.928 78.4079C133.79 79.9201 133.554 82.5459 133.403 84.2408L129.138 132.045C128.986 133.741 128.793 135.906 128.71 136.858C128.625 137.81 127.215 138.961 125.574 139.416L89.5897 149.393C87.9494 149.848 86.5863 150.224 86.5609 150.23C86.5356 150.235 85.1731 149.867 83.5322 149.412L47.5093 139.416C45.8689 138.961 44.4031 137.201 44.2521 135.506L41.9333 109.48C41.7822 107.785 43.0518 106.397 44.7541 106.397H48.0416C49.7439 106.397 52.5294 106.397 54.2316 106.397H59.1341C60.8364 106.397 62.3523 107.785 62.5046 109.48L63.4139 119.668C63.565 121.364 65.0326 123.114 66.6767 123.557L83.5266 128.108C85.1694 128.551 86.5201 128.915 86.5275 128.915C86.5349 128.915 87.885 128.551 89.5284 128.107L106.409 123.546C108.051 123.102 109.52 121.351 109.673 119.656L111.503 99.2441C111.655 97.5487 110.387 96.1615 108.685 96.1615H89.7024C88.0001 96.1615 86.5931 96.1615 86.5746 96.1615C86.556 96.1615 85.1478 96.1615 83.4455 96.1615H43.8361C42.1338 96.1615 40.6179 94.7737 40.4669 93.0789L35.9754 42.7502C35.8243 41.0548 35.5897 38.4302 35.4542 36.9173C35.3199 35.4051 36.6018 34.1677 38.3041 34.1677H83.4455C85.1478 34.1677 86.556 34.1677 86.5746 34.1677C86.5931 34.1677 88.0001 34.1677 89.7024 34.1677H134.789C136.491 34.1677 137.774 35.4051 137.639 36.918Z" fill="white"/>
</g>
<defs>
<clipPath id="clip0">
<rect width="185.215" height="185.215" fill="white"/>
</clipPath>
</defs>
</svg>
