<svg width="133" height="180" viewBox="0 0 133 180" fill="none" xmlns="http://www.w3.org/2000/svg">
<path d="M42.6077 138.724C42.6077 138.724 35.7529 142.71 47.4861 144.059C61.7006 145.681 68.9654 145.448 84.6299 142.484C84.6299 142.484 88.7482 145.066 94.4998 147.303C59.3842 162.353 15.0263 146.431 42.6077 138.724Z" fill="white"/>
<path d="M38.3165 119.085C38.3165 119.085 30.6281 124.776 42.3701 125.991C57.5544 127.557 69.5458 127.685 90.2956 123.69C90.2956 123.69 93.1656 126.599 97.6784 128.19C55.2216 140.605 7.93234 129.17 38.3165 119.085Z" fill="white"/>
<path d="M74.4904 85.7704C83.1428 95.7321 72.217 104.696 72.217 104.696C72.217 104.696 94.1871 93.3548 84.0972 79.1524C74.6736 65.9078 67.4469 59.3271 106.569 36.6376C106.569 36.6376 45.1602 51.9747 74.4904 85.7704Z" fill="white"/>
<path d="M120.934 153.251C120.934 153.251 126.006 157.43 115.347 160.664C95.0779 166.804 30.9846 168.658 13.1797 160.909C6.77932 158.124 18.7819 154.26 22.5574 153.449C26.4949 152.595 28.745 152.755 28.745 152.755C21.6272 147.74 -17.262 162.6 8.99127 166.856C80.5878 178.467 139.505 161.627 120.934 153.251Z" fill="white"/>
<path d="M45.904 98.7366C45.904 98.7366 13.302 106.48 34.3588 109.292C43.2496 110.482 60.9733 110.213 77.4824 108.83C90.9745 107.692 104.522 105.272 104.522 105.272C104.522 105.272 99.7648 107.309 96.3229 109.66C63.2162 118.367 -0.739828 114.316 17.6723 105.41C33.2434 97.8828 45.904 98.7366 45.904 98.7366Z" fill="white"/>
<path d="M104.388 131.427C138.042 113.939 122.482 97.1328 111.621 99.397C108.959 99.9511 107.772 100.431 107.772 100.431C107.772 100.431 108.76 98.883 110.648 98.2129C132.134 90.659 148.659 120.492 103.711 132.308C103.711 132.309 104.232 131.843 104.388 131.427Z" fill="white"/>
<path d="M84.0976 0C84.0976 0 102.736 18.6447 66.4199 47.3149C37.2981 70.3133 59.7792 83.4264 66.4078 98.4087C49.4089 83.0716 36.934 69.5702 45.3032 57.0044C57.5871 38.559 91.6177 29.6159 84.0976 0Z" fill="white"/>
<path d="M49.2109 178.816C81.515 180.884 131.122 177.668 132.296 162.383C132.296 162.383 130.038 168.178 105.599 172.779C78.0266 177.968 44.0202 177.362 23.8506 174.037C23.8511 174.037 27.9796 177.454 49.2109 178.816Z" fill="white"/>
</svg>
