<svg width="276" height="276" viewBox="0 0 276 276" fill="none" xmlns="http://www.w3.org/2000/svg">
<path d="M16.7109 27.7109C16.7109 21.6358 21.6358 16.7109 27.7109 16.7109H248.289C254.364 16.7109 259.289 21.6358 259.289 27.7109V248.289C259.289 254.364 254.364 259.289 248.289 259.289H27.7109C21.6358 259.289 16.7109 254.364 16.7109 248.289V27.7109ZM239.186 201.103C239.256 201.194 239.399 201.131 239.38 201.018C237.484 190.104 230.173 180.959 209.102 172.392C201.663 168.942 193.362 166.462 190.936 160.856C190.02 157.514 189.858 155.735 190.451 153.741C192.014 147.164 199.669 145.223 205.76 147.056C206.566 147.31 207.36 147.636 208.133 148.036C213.391 150.754 221.126 152.471 226.113 149.282V149.282C230.678 146.364 231.373 140.585 227.43 136.868V136.868C221.07 129.698 212.606 126.087 198.806 126.41L191.637 127.327C184.791 128.998 178.268 132.609 174.333 137.461C162.851 150.506 166.139 173.255 180.101 182.688C193.901 192.984 214.062 195.248 216.649 204.952C219.075 216.811 207.863 220.584 196.758 219.183C192.095 218.14 188.619 216.363 185.565 213.635C181.242 209.773 175.112 207.952 170.085 210.84L169.055 211.431C164.201 214.219 162.275 220.252 165.989 224.44C166.822 225.379 167.728 226.378 168.727 227.538C186.3 245.273 230.287 244.357 238.158 217.404C238.423 216.502 240.516 210.43 238.989 201.193C238.97 201.079 239.116 201.012 239.186 201.103V201.103ZM148.566 128.674C148.594 128.415 148.392 128.189 148.131 128.189H136.644C130.724 128.189 125.925 132.988 125.916 138.908C125.889 154.875 125.817 170.803 125.817 186.839C125.817 199.291 126.464 210.72 124.416 214.223C121.294 220.717 113.613 220.395 109.406 219.314C108.843 219.169 108.302 218.95 107.795 218.667C104.304 216.716 102.375 214.123 100.212 210.45V210.45C99.3598 209.139 98.2134 208.89 96.8831 209.711L88.9276 214.619C84.1292 217.58 82.1993 223.843 85.8124 228.171C88.1283 230.945 90.8182 233.325 93.8508 235.139C102.476 240.314 114.12 241.985 126.248 239.236C134.173 236.972 140.965 232.228 144.523 225.005C149.698 215.625 148.566 204.089 148.566 191.152C148.673 170.398 148.566 149.644 148.566 128.674V128.674Z" fill="white"/>
</svg>
