<svg width="328" height="328" viewBox="0 0 328 328" fill="none" xmlns="http://www.w3.org/2000/svg">
<path d="M328 0H0V328H328V0Z" fill="#C52828"/>
<path d="M220.333 256.251C226.94 267.039 235.535 274.968 250.738 274.968C263.509 274.968 271.667 268.585 271.667 259.766C271.667 249.197 263.285 245.453 249.228 239.305L241.523 235.999C219.281 226.523 204.505 214.653 204.505 189.558C204.505 166.442 222.118 148.844 249.644 148.844C269.241 148.844 283.33 155.665 293.482 173.522L269.481 188.933C264.196 179.458 258.495 175.725 249.644 175.725C240.617 175.725 234.895 181.452 234.895 188.933C234.895 198.18 240.622 201.923 253.846 207.65L261.551 210.951C287.739 222.181 302.525 233.63 302.525 259.37C302.525 287.12 280.726 302.322 251.451 302.322C222.827 302.322 204.334 288.682 195.285 270.803L220.333 256.251ZM111.452 258.922C116.294 267.513 120.699 274.775 131.289 274.775C141.415 274.775 147.803 270.813 147.803 255.408V150.604H178.625V255.824C178.625 287.739 159.913 302.265 132.601 302.265C107.922 302.265 93.631 289.494 86.3629 274.112L111.452 258.922Z" fill="white"/>
</svg>
