<svg width="33" height="33" viewBox="0 0 33 33" fill="none" xmlns="http://www.w3.org/2000/svg">
<path d="M30.6251 19.1539V29.8242H24.439V19.8684C24.439 17.3673 23.5442 15.6606 21.3048 15.6606C19.5956 15.6606 18.5783 16.8109 18.131 17.9234C17.9677 18.3214 17.9257 18.8749 17.9257 19.432V29.8242H11.7377C11.7377 29.8242 11.8211 12.9623 11.7377 11.2152H17.9254V13.8529C17.9129 13.8728 17.8965 13.8939 17.8847 13.9132H17.9254V13.8529C18.7473 12.5868 20.2155 10.7781 23.5016 10.7781C27.5731 10.7781 30.6251 13.4379 30.6251 19.1539ZM5.26456 2.24487C3.14768 2.24487 1.76294 3.63346 1.76294 5.45947C1.76294 7.24572 3.10759 8.67632 5.18246 8.67632H5.22383C7.38175 8.67632 8.72384 7.24604 8.72384 5.45947C8.68312 3.63346 7.38175 2.24487 5.26456 2.24487ZM2.13045 29.8242H8.31625V11.2152H2.13045V29.8242Z" fill="#1D4F97"/>
</svg>
