<svg width="33" height="33" viewBox="0 0 33 33" fill="none" xmlns="http://www.w3.org/2000/svg">
<path d="M30.6251 19.6197V30.2901H24.439V20.3342C24.439 17.8332 23.5442 16.1265 21.3048 16.1265C19.5956 16.1265 18.5783 17.2768 18.131 18.3892C17.9677 18.7872 17.9257 19.3407 17.9257 19.8978V30.2901H11.7377C11.7377 30.2901 11.8211 13.4282 11.7377 11.681H17.9254V14.3187C17.9129 14.3386 17.8965 14.3598 17.8847 14.379H17.9254V14.3187C18.7473 13.0526 20.2155 11.2439 23.5016 11.2439C27.5731 11.2439 30.6251 13.9037 30.6251 19.6197ZM5.26456 2.71069C3.14768 2.71069 1.76294 4.09928 1.76294 5.92529C1.76294 7.71154 3.10759 9.14214 5.18246 9.14214H5.22383C7.38175 9.14214 8.72384 7.71186 8.72384 5.92529C8.68312 4.09928 7.38175 2.71069 5.26456 2.71069ZM2.13045 30.2901H8.31625V11.681H2.13045V30.2901Z" fill="#0A244B"/>
</svg>
