<svg width="835" height="835" viewBox="0 0 835 835" fill="none" xmlns="http://www.w3.org/2000/svg">
<path d="M394.5 0.6C392.3 0.8 384.7 1.5 377.5 2.1C361.7 3.4 335 7.9 318 12C236.9 31.8 161.9 77 106.2 139.5C53.6 198.5 19.1 270.1 6.1 347.1C1.7 373.3 0.5 387.7 0.5 417.5C0.5 447.3 1.7 461.7 6.1 487.9C24.8 598.3 87.8 697.1 180.6 761.2C238.6 801.3 306.2 825.9 378 833.2C394.3 834.9 440.9 834.8 457.5 833.1C601.7 818.6 726.4 732.9 790.9 603.9C813.8 558.2 827.9 509.2 833.2 457C834.8 440.9 834.8 394.1 833.2 378C823.5 282.3 783.2 195.1 716.6 126.1C707.5 116.7 685.9 97.3 675 88.8C613 40.6 540.4 11 462.5 2.4C449.3 1 403.2 -0.3 394.5 0.6ZM697.8 209.6C699 210 700 210.6 700 211C700 211.4 691.1 219.3 680.3 228.6C669.4 237.9 629.2 272.2 591 304.9C552.8 337.6 515.9 369.2 509 375C502.1 380.9 479 400 457.7 417.4L418.8 449L411.2 442.7C406.9 439.2 388.9 424.5 371 409.9C353.1 395.4 308.6 357.9 272 326.7C235.4 295.4 190.1 256.7 171.3 240.6C152.5 224.6 137.1 211.2 137.1 210.8C137 210.4 138 209.9 139.3 209.7C142.8 209 695.2 209 697.8 209.6ZM135.8 255.3C148.8 266.5 194 305.2 236.3 341.3C278.5 377.5 313 407.2 313 407.4C313 407.6 292.4 427.5 267.3 451.6C242.1 475.7 215.9 500.9 209 507.6C175.1 540.3 120 593.1 116.2 596.5C113.9 598.6 111.6 600 111.2 599.6C110.3 598.7 109.7 245.3 110.5 239.2C110.9 236.9 111.3 235 111.6 235C111.9 235 122.8 244.1 135.8 255.3ZM727.8 414.4C727.9 511.9 727.7 593.5 727.2 595.6C726.8 597.8 725.9 599.5 725.4 599.5C724.5 599.5 674.8 552.2 612.5 492C593.6 473.8 576 456.8 548.2 430.1C535.4 417.8 525.1 407.4 525.2 407C525.4 406.6 570.5 367.7 625.5 320.7C693.4 262.5 725.8 235.4 726.5 236.1C727.2 236.8 727.6 295.6 727.8 414.4ZM378 459.9C397.9 476.1 415.3 490.2 416.6 491.2L419 493.1L447.6 469.8C463.4 457 480.8 442.8 486.4 438.2C491.9 433.7 497 430.1 497.7 430.2C498.3 430.4 508.5 439.7 520.2 451C531.9 462.2 564 493 591.5 519.4C619 545.8 646.9 572.6 653.5 579C660.1 585.4 673.2 598 682.5 606.9C691.9 615.9 699.6 623.5 699.8 624C700 624.4 699.1 625 697.8 625.4C694.8 626.2 143.2 626.2 140.2 625.4C138.9 625 138.1 624.3 138.2 623.8C138.9 621.9 339.6 430 340.7 430.2C341.3 430.4 358.2 443.7 378 459.9Z" fill="white"/>
</svg>
