<svg width="70" height="39" viewBox="0 0 70 39" fill="none" xmlns="http://www.w3.org/2000/svg">
<path d="M65.8219 0.0404625C65.9563 0.0774498 66.0683 0.132931 66.0683 0.169922C66.0683 0.206909 65.0715 0.937439 63.8618 1.79742C62.641 2.65741 58.1384 5.82919 53.8599 8.85301C49.5813 11.8768 45.4484 14.7989 44.6755 15.3353C43.9027 15.8809 41.3154 17.6471 38.9297 19.2561L34.5728 22.1782L33.7215 21.5956C33.2399 21.272 31.2238 19.9126 29.219 18.5625C27.2141 17.2217 22.2299 13.754 18.1306 10.8689C14.0312 7.97453 8.95744 4.39588 6.85176 2.90708C4.74608 1.42754 3.02122 0.188416 3.02122 0.151428C3.01002 0.114437 3.12202 0.068203 3.26763 0.0497093C3.65964 -0.0150185 65.5307 -0.0150223 65.8219 0.0404625ZM2.87561 4.26641C4.33167 5.3021 9.39425 8.88076 14.132 12.219C18.8586 15.5665 22.7227 18.3129 22.7227 18.3314C22.7227 18.3498 20.4154 20.19 17.6041 22.4186C14.7816 24.6472 11.8471 26.9775 11.0743 27.597C7.27737 30.6208 1.10595 35.5033 0.680332 35.8177C0.422723 36.0119 0.165112 36.1414 0.120311 36.1044C0.019507 36.0212 -0.0476954 3.3417 0.0419078 2.77762C0.0867095 2.56494 0.131511 2.38924 0.165112 2.38924C0.198714 2.38924 1.41956 3.23073 2.87561 4.26641ZM69.182 18.9787C69.1932 27.9946 69.1708 35.5403 69.1148 35.7345C69.07 35.938 68.9692 36.0952 68.9132 36.0952C68.8124 36.0952 63.2458 31.7213 56.268 26.1545C54.1511 24.4715 52.1798 22.8995 49.0661 20.4305C47.6324 19.2931 46.4788 18.3314 46.49 18.2944C46.5124 18.2574 51.5638 14.6602 57.724 10.3141C65.3291 4.93221 68.958 2.42623 69.0364 2.49096C69.1148 2.55569 69.1596 7.99302 69.182 18.9787ZM30.003 23.1861C32.2319 24.6842 34.1808 25.988 34.3264 26.0805L34.5952 26.2562L37.7985 24.1016C39.5681 22.9179 41.517 21.6048 42.1442 21.1795C42.7603 20.7634 43.3315 20.4305 43.4099 20.4397C43.4771 20.4582 44.6195 21.3182 45.93 22.3631C47.2404 23.3988 50.8358 26.2469 53.9159 28.6882C56.996 31.1294 60.1209 33.6077 60.8601 34.1995C61.5993 34.7913 63.0666 35.9564 64.1082 36.7794C65.1611 37.6117 66.0235 38.3145 66.0459 38.3607C66.0683 38.3977 65.9675 38.4532 65.8219 38.4902C65.4859 38.5641 3.70444 38.5641 3.36843 38.4902C3.22283 38.4532 3.13322 38.3885 3.14442 38.3422C3.22283 38.1665 25.702 20.4212 25.8252 20.4397C25.8924 20.4582 27.7853 21.6881 30.003 23.1861Z" fill="white"/>
</svg>
