<svg width="75" height="93" viewBox="0 0 75 93" fill="none" xmlns="http://www.w3.org/2000/svg">
<circle cx="36.4193" cy="51.7953" r="34.4193" fill="#CE9C71"/>
<path d="M26.5756 18.3783C18.9251 11.3513 3.77805 -1.07844 4.39422 5.41864L5.81591 39.304L26.5756 18.3783Z" fill="#F5BC89" stroke="#CE9C71" stroke-width="6.8136"/>
<path d="M27.5199 47.4698C24.9545 47.7193 19.3784 46.5181 15.1127 47.2128C12.8598 47.5796 11.262 43.959 14.9347 42.805C17.7908 42.2385 24.4828 41.2407 28.4014 41.7817C33.2996 42.458 30.0853 47.2203 27.5199 47.4698Z" fill="#EDB27D"/>
<path d="M47.7514 47.4698C50.3168 47.7193 55.8928 46.5181 60.1586 47.2128C62.4114 47.5796 64.0093 43.959 60.3366 42.805C57.4804 42.2385 50.7885 41.2407 46.8699 41.7817C41.9716 42.458 45.1859 47.2203 47.7514 47.4698Z" fill="white" stroke="white" stroke-width="2.09629"/>
<path d="M26.0339 46.7686C26.4679 47.1975 26.8977 47.6808 27.2507 48.1844C28.1124 49.4138 27.4309 50.9105 26.2923 51.8889C25.5779 52.5027 24.7166 52.9373 23.7836 53.0662C22.2369 53.2799 20.2953 53.3211 18.8336 52.1723C17.3778 51.0281 16.2981 49.137 16.2981 47.2854C16.2981 47.0393 16.8184 46.3314 18.8996 45.4683C19.3073 45.2486 20.5129 44.961 22.5304 45.1575C23.846 45.2857 25.0937 45.8395 26.0339 46.7686Z" fill="#1F1E1E" stroke="#1F1E1E" stroke-width="3.10047"/>
<path d="M50.1924 46.7686C49.7584 47.1975 49.3286 47.6808 48.9756 48.1844C48.1139 49.4138 48.7954 50.9105 49.934 51.8889C50.6484 52.5027 51.5098 52.9373 52.4428 53.0662C53.9895 53.2799 55.931 53.3211 57.3927 52.1723C58.8485 51.0281 59.9282 49.137 59.9282 47.2854C59.9282 47.0393 59.4079 46.3314 57.3268 45.4683C56.919 45.2486 55.7134 44.961 53.696 45.1575C52.3803 45.2857 51.1326 45.8395 50.1924 46.7686Z" fill="#1F1E1E" stroke="#1F1E1E" stroke-width="3.10047"/>
<path d="M21.7667 51.7262C22.6457 53.0168 26.4752 53.8594 28.4528 50.3562C29.0604 48.4934 28.2425 47.8563 27.0274 46.508C25.684 45.0175 21.5831 43.7193 21.3721 45.9687C21.1085 48.7805 20.8878 50.4355 21.7667 51.7262Z" fill="#343030" stroke="#343030" stroke-width="1.23734"/>
<path d="M54.5326 51.7262C53.6537 53.0168 49.8241 53.8594 47.8465 50.3562C47.2389 48.4934 48.0568 47.8563 49.272 46.508C50.6153 45.0175 54.7163 43.7193 54.9272 45.9687C55.1908 48.7805 55.4115 50.4355 54.5326 51.7262Z" fill="#343030" stroke="#343030" stroke-width="1.23734"/>
<path d="M30.3618 79.4565H47.049C47.2422 88.6001 45.2984 93.2047 38.6591 92.9636C32.0198 92.7225 30.4238 88.3264 30.3618 79.4565Z" fill="#FC5555"/>
<ellipse cx="25.2842" cy="48.1815" rx="2.3037" ry="2.11969" fill="white"/>
<ellipse cx="51.0549" cy="48.1815" rx="2.3037" ry="2.11969" fill="white"/>
<path d="M20.7426 75.934C22.7161 80.5096 31.2437 86.892 38.7533 82.9779C46.5183 86.6684 53.7034 79.9963 55.7914 75.934C57.8794 71.8718 55.344 62.7207 53.256 59.2761C51.9423 55.6986 42.7178 54.999 38.7533 54.999C34.4001 54.999 25.2272 55.8544 23.3616 59.2761C21.7291 62.7277 18.7691 71.3585 20.7426 75.934Z" fill="#FBC391"/>
<path d="M31.009 75.2808C31.8481 77.5798 35.4558 81.2192 38.8482 81.2192C42.1194 81.2192 45.3009 78.2948 46.4128 75.2808C46.8421 74.1173 43.2413 69.8134 38.8482 69.9718C33.9208 69.7455 30.6006 74.162 31.009 75.2808Z" fill="#343030" stroke="#343030" stroke-width="1.2772"/>
<path d="M39.5895 69.5969C43.9051 69.5569 47.4838 74.6459 46.9347 75.5305C46.9347 76.6317 43.7159 80.7327 42.2951 80.8288C40.519 80.9489 34.4606 75.6833 35.1246 73.3208C35.285 72.0862 36.1371 69.6289 39.5895 69.5969Z" fill="#4E4747" stroke="#4E4747" stroke-width="0.272544"/>
<path d="M48.7508 18.3783C56.4013 11.3513 71.5484 -1.07844 70.9322 5.41864L67.1206 39.4194L48.7508 18.3783Z" fill="#FBC391" stroke="#DAA87C" stroke-width="6.8136"/>
</svg>
