<svg width="115" height="147" viewBox="0 0 115 147" fill="none" xmlns="http://www.w3.org/2000/svg">
<g clip-path="url(#clip0)">
<path d="M56.644 0.309814L59.6863 6.02406C60.3703 7.07856 61.1113 8.01194 61.9841 8.88119C64.5313 11.4284 66.9503 14.0967 69.1234 16.9538C74.2783 23.7226 77.7553 31.2394 80.2384 39.3691C81.7275 44.3352 82.5362 49.4296 82.5968 54.5809C82.8461 69.9816 77.5665 83.2056 66.9218 94.1959C65.1833 95.9344 63.3236 97.5447 61.3286 98.9768C60.2741 98.9768 59.7754 98.1681 59.3408 97.4236C58.5321 96.0591 58.0369 94.5023 57.7875 92.9526C57.4135 91.0894 57.1676 89.2263 57.2888 87.3025V86.4333C57.2033 86.248 56.2735 0.748002 56.644 0.309814Z" fill="#CBD1C7"/>
<path d="M56.6442 0.121096C56.5195 -0.128279 56.3948 0.0605334 56.2701 0.181658C56.3307 1.42853 55.8961 2.54003 55.2156 3.60166C54.4675 4.65616 53.4771 5.46485 52.4832 6.3341C46.9613 11.115 42.6151 16.8898 39.1345 23.3486C34.5033 32.0411 32.1164 41.357 31.4395 51.1646C31.1296 54.7022 32.5581 67.1852 33.6732 70.7869C36.7156 80.3486 42.1804 88.3607 49.2591 95.3147C50.9976 96.989 52.8573 98.5423 54.781 100.035C55.3403 100.035 55.4009 99.5362 55.5291 99.1657C55.7743 98.3729 55.9613 97.5633 56.0884 96.7432L57.3353 87.4308L56.6442 0.121096Z" fill="white"/>
<path d="M59.6858 102.76C59.8105 101.335 60.4945 100.152 61.2391 98.9733C60.491 98.6633 59.9352 98.047 59.5006 97.3595C59.1265 96.7396 58.8166 95.995 58.5743 95.311C57.7051 92.7033 57.5198 89.9673 57.2705 87.3025V85.6887C56.9605 85.9381 56.8964 88.0471 56.8964 88.3606C56.7151 91.177 56.3414 93.9778 55.7778 96.7432C55.5925 97.8618 55.4678 98.9768 54.7803 99.9708C54.7803 100.095 54.7803 100.22 54.8408 100.405C55.9595 103.697 56.2658 107.049 56.4546 110.466V111.713C56.4546 113.202 56.3941 112.888 57.6303 113.387C58.129 113.572 58.6848 113.637 59.1835 114.007C59.5576 114.007 59.6182 113.697 59.6182 113.448L59.4329 111.399V105.685C59.3723 104.688 59.5576 103.697 59.6823 102.764L59.6858 102.76Z" fill="#C2BFBF"/>
</g>
<path d="M8 141.3V129.15H9.7L9.875 130.9H9.95C10.4833 130.317 11.0583 129.833 11.675 129.45C12.3083 129.05 12.9917 128.85 13.725 128.85C14.6583 128.85 15.3833 129.058 15.9 129.475C16.4333 129.875 16.825 130.442 17.075 131.175C17.7083 130.475 18.3417 129.917 18.975 129.5C19.625 129.067 20.325 128.85 21.075 128.85C22.325 128.85 23.25 129.25 23.85 130.05C24.4667 130.85 24.775 132.033 24.775 133.6V141.3H22.725V133.875C22.725 132.725 22.5417 131.9 22.175 131.4C21.8083 130.883 21.2417 130.625 20.475 130.625C19.5583 130.625 18.5417 131.25 17.425 132.5V141.3H15.375V133.875C15.375 132.725 15.1917 131.9 14.825 131.4C14.4583 130.883 13.8833 130.625 13.1 130.625C12.1833 130.625 11.1667 131.25 10.05 132.5V141.3H8Z" fill="white"/>
<path d="M33.4525 141.6C32.7025 141.6 31.9859 141.458 31.3025 141.175C30.6359 140.892 30.0442 140.483 29.5275 139.95C29.0109 139.4 28.5942 138.733 28.2775 137.95C27.9775 137.15 27.8275 136.25 27.8275 135.25C27.8275 134.233 27.9775 133.333 28.2775 132.55C28.5942 131.75 29.0109 131.075 29.5275 130.525C30.0442 129.975 30.6359 129.558 31.3025 129.275C31.9859 128.992 32.7025 128.85 33.4525 128.85C34.2025 128.85 34.9109 128.992 35.5775 129.275C36.2609 129.558 36.8609 129.975 37.3775 130.525C37.8942 131.075 38.3025 131.75 38.6025 132.55C38.9192 133.333 39.0775 134.233 39.0775 135.25C39.0775 136.25 38.9192 137.15 38.6025 137.95C38.3025 138.733 37.8942 139.4 37.3775 139.95C36.8609 140.483 36.2609 140.892 35.5775 141.175C34.9109 141.458 34.2025 141.6 33.4525 141.6ZM33.4525 139.9C33.9692 139.9 34.4442 139.792 34.8775 139.575C35.3109 139.342 35.6775 139.025 35.9775 138.625C36.2942 138.208 36.5359 137.717 36.7025 137.15C36.8692 136.583 36.9525 135.95 36.9525 135.25C36.9525 134.55 36.8692 133.917 36.7025 133.35C36.5359 132.767 36.2942 132.267 35.9775 131.85C35.6775 131.433 35.3109 131.117 34.8775 130.9C34.4442 130.667 33.9692 130.55 33.4525 130.55C32.9359 130.55 32.4609 130.667 32.0275 130.9C31.5942 131.117 31.2192 131.433 30.9025 131.85C30.6025 132.267 30.3692 132.767 30.2025 133.35C30.0359 133.917 29.9525 134.55 29.9525 135.25C29.9525 135.95 30.0359 136.583 30.2025 137.15C30.3692 137.717 30.6025 138.208 30.9025 138.625C31.2192 139.025 31.5942 139.342 32.0275 139.575C32.4609 139.792 32.9359 139.9 33.4525 139.9Z" fill="white"/>
<path d="M42.2773 141.3V129.15H43.9773L44.1523 130.9H44.2273C44.8107 130.317 45.419 129.833 46.0523 129.45C46.7023 129.05 47.4523 128.85 48.3023 128.85C49.5857 128.85 50.519 129.25 51.1023 130.05C51.7023 130.85 52.0023 132.033 52.0023 133.6V141.3H49.9523V133.875C49.9523 132.725 49.769 131.9 49.4023 131.4C49.0357 130.883 48.4523 130.625 47.6523 130.625C47.019 130.625 46.4607 130.783 45.9773 131.1C45.494 131.417 44.944 131.883 44.3273 132.5V141.3H42.2773Z" fill="white"/>
<path d="M60.0492 146.9C59.2992 146.9 58.6159 146.825 57.9992 146.675C57.3826 146.542 56.8492 146.333 56.3992 146.05C55.9659 145.767 55.6242 145.425 55.3742 145.025C55.1409 144.625 55.0242 144.158 55.0242 143.625C55.0242 143.108 55.1826 142.617 55.4992 142.15C55.8159 141.683 56.2492 141.258 56.7992 140.875V140.775C56.4992 140.592 56.2409 140.342 56.0242 140.025C55.8242 139.692 55.7242 139.283 55.7242 138.8C55.7242 138.283 55.8659 137.833 56.1492 137.45C56.4326 137.067 56.7326 136.767 57.0492 136.55V136.45C56.6492 136.117 56.2826 135.675 55.9492 135.125C55.6326 134.558 55.4742 133.908 55.4742 133.175C55.4742 132.508 55.5909 131.908 55.8242 131.375C56.0742 130.842 56.4076 130.392 56.8242 130.025C57.2409 129.642 57.7242 129.35 58.2742 129.15C58.8409 128.95 59.4326 128.85 60.0492 128.85C60.3826 128.85 60.6909 128.883 60.9742 128.95C61.2742 129 61.5409 129.067 61.7742 129.15H65.9992V130.725H63.4992C63.7826 131.008 64.0159 131.367 64.1992 131.8C64.3992 132.233 64.4992 132.708 64.4992 133.225C64.4992 133.875 64.3826 134.467 64.1492 135C63.9159 135.517 63.5992 135.958 63.1992 136.325C62.7992 136.675 62.3242 136.95 61.7742 137.15C61.2409 137.35 60.6659 137.45 60.0492 137.45C59.7492 137.45 59.4409 137.417 59.1242 137.35C58.8076 137.267 58.5076 137.158 58.2242 137.025C58.0076 137.208 57.8242 137.417 57.6742 137.65C57.5242 137.867 57.4492 138.142 57.4492 138.475C57.4492 138.858 57.5992 139.175 57.8992 139.425C58.1992 139.675 58.7659 139.8 59.5992 139.8H61.9492C63.3659 139.8 64.4242 140.033 65.1242 140.5C65.8409 140.95 66.1992 141.683 66.1992 142.7C66.1992 143.267 66.0576 143.8 65.7742 144.3C65.4909 144.817 65.0826 145.267 64.5492 145.65C64.0159 146.033 63.3659 146.333 62.5992 146.55C61.8492 146.783 60.9992 146.9 60.0492 146.9ZM60.0492 136.075C60.3992 136.075 60.7242 136.008 61.0242 135.875C61.3409 135.742 61.6159 135.55 61.8492 135.3C62.0992 135.05 62.2909 134.75 62.4242 134.4C62.5576 134.033 62.6242 133.625 62.6242 133.175C62.6242 132.275 62.3742 131.583 61.8742 131.1C61.3742 130.6 60.7659 130.35 60.0492 130.35C59.3326 130.35 58.7242 130.6 58.2242 131.1C57.7242 131.583 57.4742 132.275 57.4742 133.175C57.4742 133.625 57.5409 134.033 57.6742 134.4C57.8076 134.75 57.9909 135.05 58.2242 135.3C58.4742 135.55 58.7492 135.742 59.0492 135.875C59.3659 136.008 59.6992 136.075 60.0492 136.075ZM60.3492 145.475C60.9326 145.475 61.4576 145.4 61.9242 145.25C62.4076 145.117 62.8159 144.933 63.1492 144.7C63.4826 144.483 63.7409 144.225 63.9242 143.925C64.1076 143.625 64.1992 143.317 64.1992 143C64.1992 142.433 63.9909 142.042 63.5742 141.825C63.1576 141.608 62.5492 141.5 61.7492 141.5H59.6492C59.4159 141.5 59.1576 141.483 58.8742 141.45C58.6076 141.433 58.3409 141.383 58.0742 141.3C57.6409 141.617 57.3242 141.95 57.1242 142.3C56.9242 142.65 56.8242 143 56.8242 143.35C56.8242 144 57.1326 144.517 57.7492 144.9C58.3826 145.283 59.2492 145.475 60.3492 145.475Z" fill="white"/>
<path d="M72.9301 141.6C72.1801 141.6 71.4634 141.458 70.7801 141.175C70.1134 140.892 69.5217 140.483 69.0051 139.95C68.4884 139.4 68.0717 138.733 67.7551 137.95C67.4551 137.15 67.3051 136.25 67.3051 135.25C67.3051 134.233 67.4551 133.333 67.7551 132.55C68.0717 131.75 68.4884 131.075 69.0051 130.525C69.5217 129.975 70.1134 129.558 70.7801 129.275C71.4634 128.992 72.1801 128.85 72.9301 128.85C73.6801 128.85 74.3884 128.992 75.0551 129.275C75.7384 129.558 76.3384 129.975 76.8551 130.525C77.3717 131.075 77.7801 131.75 78.0801 132.55C78.3967 133.333 78.5551 134.233 78.5551 135.25C78.5551 136.25 78.3967 137.15 78.0801 137.95C77.7801 138.733 77.3717 139.4 76.8551 139.95C76.3384 140.483 75.7384 140.892 75.0551 141.175C74.3884 141.458 73.6801 141.6 72.9301 141.6ZM72.9301 139.9C73.4467 139.9 73.9217 139.792 74.3551 139.575C74.7884 139.342 75.1551 139.025 75.4551 138.625C75.7717 138.208 76.0134 137.717 76.1801 137.15C76.3467 136.583 76.4301 135.95 76.4301 135.25C76.4301 134.55 76.3467 133.917 76.1801 133.35C76.0134 132.767 75.7717 132.267 75.4551 131.85C75.1551 131.433 74.7884 131.117 74.3551 130.9C73.9217 130.667 73.4467 130.55 72.9301 130.55C72.4134 130.55 71.9384 130.667 71.5051 130.9C71.0717 131.117 70.6967 131.433 70.3801 131.85C70.0801 132.267 69.8467 132.767 69.6801 133.35C69.5134 133.917 69.4301 134.55 69.4301 135.25C69.4301 135.95 69.5134 136.583 69.6801 137.15C69.8467 137.717 70.0801 138.208 70.3801 138.625C70.6967 139.025 71.0717 139.342 71.5051 139.575C71.9384 139.792 72.4134 139.9 72.9301 139.9Z" fill="white"/>
<path d="M86.6348 141.3V125H91.2348C92.4848 125 93.6098 125.158 94.6098 125.475C95.6098 125.792 96.4681 126.283 97.1848 126.95C97.9014 127.6 98.4514 128.433 98.8348 129.45C99.2181 130.467 99.4098 131.675 99.4098 133.075C99.4098 134.475 99.2181 135.692 98.8348 136.725C98.4514 137.758 97.9098 138.617 97.2098 139.3C96.5098 139.967 95.6681 140.467 94.6848 140.8C93.7181 141.133 92.6348 141.3 91.4348 141.3H86.6348ZM90.3098 138.325H91.0098C91.7098 138.325 92.3431 138.233 92.9098 138.05C93.4764 137.867 93.9598 137.575 94.3598 137.175C94.7598 136.758 95.0681 136.217 95.2848 135.55C95.5181 134.883 95.6348 134.058 95.6348 133.075C95.6348 132.108 95.5181 131.3 95.2848 130.65C95.0681 129.983 94.7598 129.458 94.3598 129.075C93.9598 128.675 93.4764 128.392 92.9098 128.225C92.3431 128.058 91.7098 127.975 91.0098 127.975H90.3098V138.325Z" fill="white"/>
<path d="M102.504 141.3V125H108.079C108.929 125 109.712 125.067 110.429 125.2C111.162 125.317 111.796 125.533 112.329 125.85C112.879 126.167 113.304 126.583 113.604 127.1C113.921 127.617 114.079 128.267 114.079 129.05C114.079 129.417 114.029 129.783 113.929 130.15C113.829 130.517 113.687 130.858 113.504 131.175C113.321 131.492 113.096 131.775 112.829 132.025C112.579 132.275 112.287 132.458 111.954 132.575V132.675C112.371 132.775 112.754 132.933 113.104 133.15C113.454 133.35 113.762 133.608 114.029 133.925C114.296 134.242 114.504 134.617 114.654 135.05C114.804 135.467 114.879 135.95 114.879 136.5C114.879 137.333 114.712 138.05 114.379 138.65C114.062 139.25 113.612 139.75 113.029 140.15C112.462 140.533 111.796 140.825 111.029 141.025C110.262 141.208 109.437 141.3 108.554 141.3H102.504ZM106.179 131.525H107.904C108.804 131.525 109.454 131.35 109.854 131C110.271 130.65 110.479 130.183 110.479 129.6C110.479 128.967 110.271 128.517 109.854 128.25C109.437 127.983 108.796 127.85 107.929 127.85H106.179V131.525ZM106.179 138.45H108.254C110.271 138.45 111.279 137.717 111.279 136.25C111.279 135.533 111.029 135.025 110.529 134.725C110.029 134.408 109.271 134.25 108.254 134.25H106.179V138.45Z" fill="white"/>
<defs>
<clipPath id="clip0">
<rect width="114" height="114" fill="white"/>
</clipPath>
</defs>
</svg>
