<svg width="152" height="173" viewBox="0 0 152 173" fill="none" xmlns="http://www.w3.org/2000/svg">
<g clip-path="url(#clip0)">
<path d="M75.6878 171.649C73.4239 171.649 71.1263 171.04 69.1327 169.891L48.2849 157.558C45.1763 155.801 46.6968 155.193 47.7104 154.855C51.8665 153.402 52.7112 153.098 57.1376 150.564C57.6106 150.294 58.2188 150.395 58.6919 150.699L74.7079 160.194C75.2823 160.532 76.0933 160.532 76.6339 160.194L139.042 124.175C139.617 123.837 139.988 123.161 139.988 122.485V50.4471C139.988 49.7376 139.617 49.0956 139.008 48.7239L76.6339 12.7386C76.0595 12.4007 75.2823 12.4007 74.7079 12.7386L12.3671 48.7577C11.7589 49.0956 11.3872 49.7714 11.3872 50.4809V122.485C11.3872 123.161 11.7589 123.837 12.3671 124.141L29.4644 134.008C38.7563 138.637 44.4329 133.197 44.4329 127.689V56.5968C44.4329 55.5831 45.2438 54.8059 46.2575 54.8059H54.1642C55.144 54.8059 55.9888 55.5831 55.9888 56.5968V127.723C55.9888 140.09 49.231 147.185 37.5062 147.185C33.8907 147.185 31.0524 147.185 23.1458 143.266L6.79189 133.839C2.73721 131.507 0.236816 127.148 0.236816 122.452V50.4471C0.236816 45.7843 2.73721 41.3917 6.79189 39.0602L69.1327 3.04109C73.086 0.811011 78.3233 0.811011 82.2429 3.04109L144.651 39.094C148.706 41.4255 151.206 45.7842 151.206 50.4809V122.485C151.206 127.148 148.706 131.507 144.651 133.872L82.2429 169.891C80.2493 171.04 77.9855 171.649 75.6878 171.649ZM126.067 100.658C126.067 87.1759 116.944 83.5942 97.7858 81.06C78.3909 78.4921 76.4312 77.1743 76.4312 72.6466C76.4312 68.896 78.0868 63.8952 92.4472 63.8952C105.253 63.8952 109.984 66.6659 111.943 75.3159C112.112 76.1268 112.856 76.735 113.7 76.735H121.81C122.317 76.735 122.79 76.5323 123.128 76.1606C123.466 75.7889 123.634 75.2821 123.601 74.7753C122.35 59.8743 112.45 52.9475 92.4472 52.9475C74.6403 52.9475 64.0306 60.4487 64.0306 73.052C64.0306 86.7028 74.6065 90.4872 91.67 92.1766C112.112 94.1702 113.7 97.1774 113.7 101.198C113.7 108.159 108.091 111.132 94.9476 111.132C78.4247 111.132 74.8093 106.976 73.5929 98.7655C73.4577 97.887 72.7144 97.245 71.8021 97.245H63.7265C62.7128 97.245 61.9356 98.0559 61.9356 99.0358C61.9356 109.544 67.646 122.08 94.9813 122.08C114.714 122.046 126.067 114.241 126.067 100.658Z" fill="white"/>
</g>
<defs>
<clipPath id="clip0">
<rect width="151.375" height="173" fill="white"/>
</clipPath>
</defs>
</svg>
