<svg width="78" height="70" viewBox="0 0 78 70" fill="none" xmlns="http://www.w3.org/2000/svg">
<path d="M30.2902 6.29657L42.2293 12.6324C39.8376 13.8034 38.6031 17.1454 40.0089 20.0166L35.329 22.308C33.9278 19.4461 30.3737 18.579 28.0758 19.7041L30.2902 6.29657ZM30.2902 6.29657L33.6848 13.2299" stroke="white" stroke-width="1.75947"/>
<rect x="33.9816" y="24.3944" width="8.99412" height="0.973682" transform="rotate(-26.0869 33.9816 24.3944)" stroke="white" stroke-width="0.879736"/>
<rect x="34.9864" y="26.6213" width="9.49152" height="13.7584" transform="rotate(-26.0869 34.9864 26.6213)" stroke="white" stroke-width="2.63921"/>
<path d="M35.2712 13.722C35.4931 14.1753 35.2812 14.8308 34.6492 15.1402C34.0173 15.4496 33.3695 15.215 33.1476 14.7617C32.9256 14.3085 33.1376 13.6529 33.7695 13.3435C34.4015 13.0341 35.0493 13.2687 35.2712 13.722Z" stroke="white" stroke-width="0.879736"/>
<rect x="58.4655" y="9.84875" width="11.929" height="28.5924" rx="1.29314" transform="rotate(29.2743 58.4655 9.84875)" fill="white"/>
<line x1="63.4129" y1="15.4945" x2="65.4454" y2="16.6712" stroke="#170F0F" stroke-width="1.29314" stroke-linecap="round"/>
<line x1="62.2103" y1="17.6094" x2="62.7699" y2="17.9333" stroke="#170F0F" stroke-width="1.29314" stroke-linecap="round"/>
<line x1="61.0078" y1="19.7241" x2="63.0402" y2="20.9008" stroke="#170F0F" stroke-width="1.29314" stroke-linecap="round"/>
<line x1="59.8052" y1="21.839" x2="60.3647" y2="22.1629" stroke="#170F0F" stroke-width="1.29314" stroke-linecap="round"/>
<line x1="58.6026" y1="23.9538" x2="60.6351" y2="25.1305" stroke="#170F0F" stroke-width="1.29314" stroke-linecap="round"/>
<line x1="57.4" y1="26.0687" x2="57.9596" y2="26.3927" stroke="#170F0F" stroke-width="1.29314" stroke-linecap="round"/>
<line x1="56.1976" y1="28.1835" x2="58.23" y2="29.3601" stroke="#170F0F" stroke-width="1.29314" stroke-linecap="round"/>
<line x1="54.9949" y1="30.2983" x2="55.5545" y2="30.6223" stroke="#170F0F" stroke-width="1.29314" stroke-linecap="round"/>
<line x1="53.7924" y1="32.4132" x2="55.8248" y2="33.5899" stroke="#170F0F" stroke-width="1.29314" stroke-linecap="round"/>
<line x1="52.5898" y1="34.5281" x2="53.1494" y2="34.852" stroke="#170F0F" stroke-width="1.29314" stroke-linecap="round"/>
<path d="M16.9664 31.4367C16.9664 30.7225 17.5453 30.1436 18.2595 30.1436H61.6183C62.3325 30.1436 62.9114 30.7225 62.9114 31.4367V35.7176C62.9114 36.4643 62.2808 37.0558 61.5356 37.0081L18.1768 34.2308C17.4961 34.1871 16.9664 33.6223 16.9664 32.9403V31.4367Z" fill="#335384"/>
<path d="M23.8241 32.5713V33.1056C23.8241 35.6052 25.8505 37.6315 28.3501 37.6315H58.8308C59.1879 37.6315 59.4774 37.921 59.4774 38.2781V65.6017C59.4774 65.9588 59.1879 66.2483 58.8308 66.2483H4.14994C3.79285 66.2483 3.50337 65.9588 3.50337 65.6017V33.2179C3.50337 32.8609 3.79285 32.5714 4.14994 32.5714L23.8241 32.5713Z" stroke="white" stroke-width="6.46568"/>
<line x1="43.1568" y1="54.2586" x2="51.6691" y2="54.2586" stroke="white" stroke-width="1.29314" stroke-linecap="round"/>
<line x1="43.1568" y1="57.5531" x2="51.6691" y2="57.5531" stroke="white" stroke-width="1.29314" stroke-linecap="round"/>
</svg>
