<svg width="83" height="74" viewBox="0 0 83 74" fill="none" xmlns="http://www.w3.org/2000/svg">
<path d="M41.5826 22.0952C51.3575 22.0952 60.4393 23.4982 67.2856 25.854C75.5348 28.6936 80.6075 32.9987 80.6075 36.8971C80.6075 40.9592 75.2316 45.5338 66.3735 48.4672C59.6765 50.6859 50.8617 51.8458 41.5826 51.8458C32.0676 51.8458 23.0603 50.7581 16.2863 48.4431C7.71698 45.5145 2.55521 40.8822 2.55521 36.8971C2.55521 33.03 7.39934 28.7586 15.533 25.9238C22.4058 23.5294 31.7114 22.0952 41.5826 22.0952V22.0952Z" stroke="white" stroke-width="3.48319" stroke-miterlimit="10"/>
<path d="M41.5814 44.2523C45.603 44.2523 48.8632 40.9921 48.8632 36.9704C48.8632 32.9488 45.603 29.6886 41.5814 29.6886C37.5597 29.6886 34.2995 32.9488 34.2995 36.9704C34.2995 40.9921 37.5597 44.2523 41.5814 44.2523Z" fill="white"/>
<path d="M28.6531 44.3882C23.7561 35.9272 20.4208 27.3651 19.0299 20.259C17.355 11.6969 18.5389 5.14903 21.9128 3.19742C25.4285 1.16159 32.0799 3.52229 39.0585 9.71882C44.3358 14.4041 49.7527 21.4501 54.4019 29.4828C59.169 37.7176 62.7425 46.0582 64.131 53.0777C65.8901 61.9623 64.4655 68.7508 61.0171 70.7457C57.6698 72.6829 51.5478 70.6326 45.0168 65.0136C39.5013 60.2657 33.5983 52.931 28.6531 44.3882V44.3882Z" stroke="white" stroke-width="3.48319" stroke-miterlimit="10"/>
<path d="M28.7858 29.5287C33.6685 21.0605 39.4222 13.8942 44.8848 9.14152C51.4664 3.41424 57.7303 1.17145 61.1065 3.11825C64.6247 5.14686 65.9025 12.0894 64.0183 21.2314C62.5937 28.1426 59.1958 36.3558 54.5586 44.3956C49.8059 52.6376 44.3626 59.8978 38.9746 64.6096C32.1572 70.5703 25.5636 72.7264 22.1128 70.7363C18.7631 68.8039 17.4829 62.4751 19.088 54.0117C20.4452 46.855 23.8527 38.0788 28.7858 29.5287V29.5287Z" stroke="white" stroke-width="3.48319" stroke-miterlimit="10"/>
</svg>
