<svg width="176" height="225" viewBox="0 0 176 225" fill="none" xmlns="http://www.w3.org/2000/svg">
<path d="M35.5952 193.772C35.5952 191.365 34.7456 189.524 33.0464 188.25C31.3472 186.947 28.2886 185.588 23.8706 184.172C19.4526 182.728 15.9551 181.312 13.3779 179.924C6.35449 176.129 2.84277 171.017 2.84277 164.588C2.84277 161.247 3.77734 158.273 5.64648 155.667C7.54395 153.034 10.2485 150.98 13.7603 149.508C17.3003 148.035 21.2651 147.299 25.6548 147.299C30.0728 147.299 34.0093 148.106 37.4644 149.72C40.9194 151.306 43.5957 153.558 45.4932 156.475C47.4189 159.392 48.3818 162.705 48.3818 166.415H35.6377C35.6377 163.583 34.7456 161.388 32.9614 159.831C31.1772 158.245 28.6709 157.452 25.4424 157.452C22.3271 157.452 19.9058 158.117 18.1782 159.448C16.4507 160.751 15.5869 162.479 15.5869 164.631C15.5869 166.642 16.5923 168.327 18.603 169.686C20.6421 171.045 23.6299 172.32 27.5664 173.509C34.8164 175.69 40.0981 178.395 43.4116 181.623C46.7251 184.852 48.3818 188.873 48.3818 193.688C48.3818 199.04 46.3569 203.246 42.3071 206.304C38.2573 209.334 32.8057 210.85 25.9521 210.85C21.1943 210.85 16.8613 209.986 12.9531 208.258C9.04492 206.502 6.05713 204.109 3.98975 201.079C1.95068 198.049 0.931152 194.537 0.931152 190.544H13.7178C13.7178 197.369 17.7959 200.782 25.9521 200.782C28.9824 200.782 31.3472 200.173 33.0464 198.955C34.7456 197.709 35.5952 195.981 35.5952 193.772Z" fill="white"/>
<path d="M107.77 180.476C107.77 186.253 106.835 191.28 104.966 195.557C103.097 199.805 100.505 203.217 97.1919 205.794L107.472 213.866L99.3584 221.045L86.1895 210.467C84.6885 210.722 83.1309 210.85 81.5166 210.85C76.3906 210.85 71.8169 209.618 67.7954 207.154C63.7739 204.69 60.6587 201.178 58.4497 196.619C56.2407 192.031 55.1221 186.763 55.0938 180.816V177.757C55.0938 171.668 56.1841 166.316 58.3647 161.7C60.5737 157.055 63.6748 153.501 67.668 151.037C71.6895 148.545 76.2773 147.299 81.4316 147.299C86.5859 147.299 91.1597 148.545 95.1528 151.037C99.1743 153.501 102.275 157.055 104.456 161.7C106.665 166.316 107.77 171.654 107.77 177.715V180.476ZM94.8555 177.672C94.8555 171.187 93.6943 166.259 91.3721 162.889C89.0498 159.519 85.7363 157.834 81.4316 157.834C77.1553 157.834 73.856 159.505 71.5337 162.847C69.2114 166.16 68.0361 171.031 68.0078 177.46V180.476C68.0078 186.792 69.1689 191.691 71.4912 195.174C73.8135 198.658 77.1553 200.399 81.5166 200.399C85.793 200.399 89.0781 198.729 91.3721 195.387C93.666 192.017 94.8271 187.117 94.8555 180.688V177.672Z" fill="white"/>
<path d="M129.859 199.762H156.919V210H117.115V148.148H129.859V199.762Z" fill="white"/>
<path d="M126.058 21.4607C126.058 22.9249 125.291 24.7736 122.909 26.9093C120.529 29.0433 116.866 31.1438 112.005 32.9874C102.312 36.6642 88.6575 39.0194 73.3822 39.0194C58.107 39.0194 44.4527 36.6642 34.7593 32.9874C29.8989 31.1438 26.2351 29.0433 23.8554 26.9093C21.4739 24.7736 20.7061 22.9249 20.7061 21.4607C20.7061 19.9966 21.4739 18.1478 23.8554 16.0121C26.2351 13.8781 29.8989 11.7777 34.7593 9.93402C44.4527 6.2572 58.107 3.90198 73.3822 3.90198C88.6575 3.90198 102.312 6.2572 112.005 9.93402C116.866 11.7777 120.529 13.8781 122.909 16.0121C125.291 18.1478 126.058 19.9966 126.058 21.4607Z" stroke="white" stroke-width="7.80388"/>
<path d="M126.058 58.5291C126.058 71.459 102.475 81.9407 73.3822 81.9407C44.29 81.9407 20.7061 71.459 20.7061 58.5291" stroke="white" stroke-width="7.80388"/>
<path d="M126.058 101.45C126.058 114.38 102.475 124.862 73.3822 124.862C44.29 124.862 20.7061 114.38 20.7061 101.45" stroke="white" stroke-width="7.80388"/>
<path d="M20.7929 103.196L20.7061 19.5096" stroke="white" stroke-width="7.80388"/>
<path d="M126.059 101.45V44.222V23.4116" stroke="white" stroke-width="7.80388"/>
<path d="M110.112 61.2409C114.234 61.2409 117.576 58.0134 117.576 54.0321C117.576 50.0507 114.234 46.8232 110.112 46.8232C105.989 46.8232 102.647 50.0507 102.647 54.0321C102.647 58.0134 105.989 61.2409 110.112 61.2409Z" fill="white"/>
<path d="M110.112 104.162C114.234 104.162 117.576 100.935 117.576 96.9535C117.576 92.9721 114.234 89.7446 110.112 89.7446C105.989 89.7446 102.647 92.9721 102.647 96.9535C102.647 100.935 105.989 104.162 110.112 104.162Z" fill="white"/>
</svg>
