<svg width="37" height="37" viewBox="0 0 37 37" fill="none" xmlns="http://www.w3.org/2000/svg">
<g clip-path="url(#clip0_324_883)">
<path fill-rule="evenodd" clip-rule="evenodd" d="M27.6229 34.2266C28.1067 34.5692 28.7302 34.6548 29.2862 34.4445C29.8421 34.2326 30.2508 33.7578 30.374 33.1823C31.6797 27.0459 34.8471 11.514 36.0357 5.93197C36.1258 5.51125 35.9756 5.07401 35.645 4.79303C35.3144 4.51205 34.8562 4.43092 34.4475 4.58267C28.1472 6.91464 8.74474 14.1945 0.814251 17.129C0.310894 17.3153 -0.0166627 17.7992 -0.000134625 18.3296C0.017896 18.8615 0.375504 19.3227 0.890881 19.4775C4.44743 20.5413 9.11587 22.0213 9.11587 22.0213C9.11587 22.0213 11.2976 28.61 12.435 31.9607C12.5778 32.3815 12.9068 32.712 13.3411 32.8262C13.7738 32.9389 14.2366 32.8202 14.5596 32.5152C16.3867 30.7902 19.2115 28.1232 19.2115 28.1232C19.2115 28.1232 24.5787 32.0584 27.6229 34.2266ZM11.0797 21.1889L13.6025 29.5101L14.163 24.2406C14.163 24.2406 23.91 15.4492 29.4665 10.4381C29.6288 10.2909 29.6513 10.0445 29.5161 9.87167C29.3823 9.69888 29.1359 9.65831 28.9511 9.77551C22.5112 13.888 11.0797 21.1889 11.0797 21.1889Z" fill="#1D4F97"/>
</g>
<defs>
<clipPath id="clip0_324_883">
<rect width="36.0613" height="36.0613" fill="white"/>
</clipPath>
</defs>
</svg>
