<svg width="37" height="37" viewBox="0 0 37 37" fill="none" xmlns="http://www.w3.org/2000/svg">
<g clip-path="url(#clip0)">
<path fill-rule="evenodd" clip-rule="evenodd" d="M27.9373 34.4353C28.4211 34.7779 29.0447 34.8636 29.6006 34.6532C30.1566 34.4413 30.5653 33.9665 30.6885 33.3911C31.9942 27.2546 35.1616 11.7227 36.3501 6.14071C36.4403 5.71999 36.29 5.28275 35.9594 5.00177C35.6289 4.72079 35.1706 4.63966 34.7619 4.79141C28.4617 7.12338 9.05919 14.4033 1.1287 17.3378C0.625348 17.5241 0.29779 18.0079 0.314319 18.5383C0.332349 19.0702 0.689957 19.5315 1.20533 19.6862C4.76188 20.7501 9.43032 22.2301 9.43032 22.2301C9.43032 22.2301 11.612 28.8188 12.7495 32.1695C12.8922 32.5902 13.2213 32.9208 13.6555 33.035C14.0882 33.1476 14.551 33.0289 14.8741 32.7239C16.7012 30.999 19.526 28.3319 19.526 28.3319C19.526 28.3319 24.8931 32.2671 27.9373 34.4353V34.4353ZM11.3942 21.3977L13.917 29.7188L14.4774 24.4493C14.4774 24.4493 24.2245 15.6579 29.7809 10.6469C29.9432 10.4996 29.9658 10.2532 29.8305 10.0804C29.6968 9.90762 29.4504 9.86705 29.2656 9.98425C22.8256 14.0967 11.3942 21.3977 11.3942 21.3977Z" fill="#0A244B"/>
</g>
<defs>
<clipPath id="clip0">
<rect width="36.0613" height="36.0613" fill="white" transform="translate(0.314453 0.20874)"/>
</clipPath>
</defs>
</svg>
