<svg width="62" height="65" viewBox="0 0 62 65" fill="none" xmlns="http://www.w3.org/2000/svg">
<path d="M53.636 53.6867C53.636 56.6606 53.1677 58.1603 52.6765 58.9433C52.2838 59.5693 51.6602 60.089 50.1851 60.4653C48.5767 60.8756 46.3396 61.0137 43.1297 61.0073C41.7223 61.0046 40.1984 60.9758 38.5176 60.944C38.3205 60.9402 38.1214 60.9365 37.92 60.9327C36.0129 60.897 33.9312 60.8615 31.6895 60.8615C29.4478 60.8615 27.3661 60.897 25.4591 60.9327C25.2577 60.9365 25.0585 60.9402 24.8615 60.944C23.1806 60.9758 21.6567 61.0046 20.2493 61.0073C17.0395 61.0137 14.8023 60.8756 13.1939 60.4653C11.7188 60.089 11.0952 59.5693 10.7025 58.9433C10.2113 58.1603 9.74302 56.6606 9.74302 53.6867C9.74302 42.9491 19.2863 33.7537 31.6895 33.7537C44.0927 33.7537 53.636 42.9491 53.636 53.6867Z" stroke="white" stroke-width="7.15704"/>
<path d="M31.2798 31.4664C38.9559 31.4664 45.1791 25.2442 45.1791 17.5681C45.1791 9.89201 38.9559 3.66982 31.2798 3.66982C29.8534 3.66982 28.4716 3.88571 27.1684 4.28876C25.5768 4.78103 24.1094 5.55027 22.8224 6.53813C19.5194 9.07332 17.3805 13.0716 17.3805 17.5681C17.3805 25.2442 23.6037 31.4664 31.2798 31.4664Z" stroke="white" stroke-width="6.22773"/>
<path d="M28.0074 40.0852C27.5317 39.1261 28.2295 38.0011 29.3001 38.0011H33.6334C34.694 38.0011 35.3921 39.1069 34.9361 40.0645L34.0087 42.012C33.7694 42.5145 33.2625 42.8345 32.7059 42.8345H30.266C29.7178 42.8345 29.2169 42.5239 28.9733 42.0327L28.0074 40.0852Z" fill="#D2E0F4"/>
<path d="M28.8059 43.7361H33.8293L34.8679 54.375L31.2921 56.8498L27.6917 54.375L28.8059 43.7361Z" fill="#D2E0F4"/>
<path d="M17.6317 40.4178L31.8688 55.0495L45.4513 40.4178L54.4925 50.7458L51.8136 61.6378H11.982L8.06709 50.7458L17.6317 40.4178Z" fill="white"/>
<path d="M28.1151 7.01657C28.6591 6.47975 29.3349 6.10086 30.2465 6.04529L28.1151 7.01657C26.5559 8.55531 26.0803 11.3917 24.2415 11.6306C22.2573 11.8884 21.7612 10.5923 21.7612 9.91204L28.1151 7.01657Z" fill="white"/>
<path d="M30.2465 6.04529C26.7218 6.26014 26.7219 11.3083 24.2415 11.6306C22.2573 11.8884 21.7612 10.5923 21.7612 9.91204L30.2465 6.04529Z" stroke="white" stroke-width="1.44295"/>
</svg>
