<svg width="62" height="65" viewBox="0 0 62 65" fill="none" xmlns="http://www.w3.org/2000/svg">
<path d="M52.7816 53.675C52.7816 56.6489 52.3134 58.1486 51.8221 58.9316C51.4294 59.5575 50.8058 60.0773 49.3307 60.4536C47.7224 60.8639 45.4852 61.0019 42.2754 60.9956C40.8679 60.9929 39.344 60.964 37.663 60.9322C37.4661 60.9285 37.267 60.9247 37.0656 60.921C35.1586 60.8853 33.0769 60.8498 30.8352 60.8498C28.5935 60.8498 26.5118 60.8853 24.6047 60.921C24.4034 60.9247 24.2043 60.9285 24.0074 60.9322C22.3264 60.964 20.8024 60.9929 19.395 60.9956C16.1851 61.0019 13.948 60.8639 12.3396 60.4536C10.8645 60.0773 10.2409 59.5575 9.8482 58.9316C9.35698 58.1485 8.88868 56.6489 8.88868 53.675C8.88868 42.9374 18.432 33.742 30.8352 33.742C43.2384 33.742 52.7816 42.9374 52.7816 53.675Z" stroke="white" stroke-width="7.15704"/>
<path d="M26.3141 4.27704C25.8602 4.41743 25.4164 4.58035 24.984 4.76443L24.5991 3.96886L22.1287 5.16392L19.5866 6.39367L20.2222 8.11889C17.9312 10.595 16.5262 13.912 16.5262 17.5564C16.5262 25.2325 22.7494 31.4546 30.4255 31.4546C38.1016 31.4546 44.3248 25.2325 44.3248 17.5564C44.3248 9.88029 38.1016 3.65811 30.4255 3.65811C28.999 3.65811 27.6172 3.87399 26.3141 4.27704Z" stroke="white" stroke-width="6.22773"/>
<path d="M27.1531 40.0735C26.6773 39.1143 27.3751 37.9894 28.4457 37.9894H32.779C33.8396 37.9894 34.5378 39.0952 34.0818 40.0527L33.1543 42.0003C32.9151 42.5027 32.4081 42.8228 31.8516 42.8228H29.4117C28.8635 42.8228 28.3626 42.5121 28.119 42.021L27.1531 40.0735Z" fill="#335384"/>
<path d="M27.9516 43.7244H32.975L34.0136 54.3633L30.4378 56.838L26.8373 54.3633L27.9516 43.7244Z" fill="#335384"/>
<path d="M16.7774 40.4061L31.0145 55.0377L44.5969 40.4061L53.6382 50.7341L50.9592 61.6261H11.1277L7.21276 50.7341L16.7774 40.4061Z" fill="white"/>
<path d="M27.2608 7.00485C27.8047 6.46803 28.4806 6.08914 29.3922 6.03357L27.2608 7.00485C25.7016 8.54359 25.226 11.3799 23.3872 11.6188C21.4029 11.8766 20.9069 10.5806 20.9069 9.90032L27.2608 7.00485Z" fill="white"/>
<path d="M29.3922 6.03357C25.8675 6.24842 25.8675 11.2966 23.3872 11.6188C21.4029 11.8766 20.9069 10.5806 20.9069 9.90032L29.3922 6.03357Z" stroke="white" stroke-width="1.44295"/>
</svg>
