<?xml version="1.0" standalone="no"?>
<!DOCTYPE svg PUBLIC "-//W3C//DTD SVG 20010904//EN"
 "http://www.w3.org/TR/2001/REC-SVG-20010904/DTD/svg10.dtd">
<svg version="1.0" xmlns="http://www.w3.org/2000/svg"
 width="321.000000pt" height="321.000000pt" viewBox="0 0 321.000000 321.000000"
 preserveAspectRatio="xMidYMid meet">
<metadata>
Created by potrace 1.14, written by Peter Selinger 2001-2017
</metadata>
<g transform="translate(0.000000,321.000000) scale(0.100000,-0.100000)"
fill="#000000" stroke="none">
<path d="M1175 3202 c-42 -14 -86 -48 -112 -85 -36 -52 -41 -142 -11 -201 11
-23 26 -44 32 -48 21 -13 51 -39 36 -32 -9 4 -12 3 -7 -2 5 -5 14 -9 20 -10 7
0 20 -2 30 -2 10 -1 16 -6 13 -10 -2 -4 20 -7 50 -5 37 1 52 -2 48 -9 -5 -8
-2 -8 7 -2 20 13 320 14 312 1 -4 -6 -1 -7 8 -1 22 14 360 14 352 0 -3 -6 3
-3 15 8 12 10 28 16 37 12 9 -3 13 -2 10 4 -5 9 0 11 21 9 3 0 19 17 36 38 16
21 33 40 36 43 10 7 15 29 19 90 5 72 -26 133 -88 175 l-44 30 -400 2 c-220 1
-409 -2 -420 -5z"/>
<path d="M812 2838 c-18 -6 -49 -27 -68 -46 -64 -64 -64 -64 -64 -486 0 -225
4 -396 10 -417 10 -37 62 -111 77 -110 4 1 8 -3 8 -8 0 -5 4 -13 9 -18 5 -5 6
-3 2 5 -9 15 -7 15 40 -1 92 -31 192 15 235 108 17 37 19 72 18 435 0 389 0
396 -22 439 -44 86 -153 130 -245 99z"/>
<path d="M2335 2830 c-3 -5 -1 -10 4 -10 6 0 11 5 11 10 0 6 -2 10 -4 10 -3 0
-8 -4 -11 -10z"/>
<path d="M2275 2810 c6 -30 16 -40 12 -12 -2 12 -6 24 -10 28 -3 4 -4 -4 -2
-16z"/>
<path d="M2375 2810 c2 -27 10 -33 12 -10 1 11 -2 22 -6 24 -4 3 -7 -4 -6 -14z"/>
<path d="M2317 2809 c7 -7 15 -10 18 -7 3 3 -2 9 -12 12 -14 6 -15 5 -6 -5z"/>
<path d="M2229 2788 c-11 -8 -10 -9 3 -4 10 3 22 -2 27 -12 9 -15 10 -15 11
-1 0 21 -22 30 -41 17z"/>
<path d="M2353 2776 c2 -27 27 -51 27 -26 0 6 -5 8 -12 4 -7 -5 -9 -2 -6 8 4
8 2 21 -3 29 -5 9 -7 5 -6 -15z"/>
<path d="M2196 2777 c3 -10 9 -15 12 -12 3 3 0 11 -7 18 -10 9 -11 8 -5 -6z"/>
<path d="M2300 2772 c0 -4 9 -8 20 -8 11 0 20 4 20 8 0 4 -9 8 -20 8 -11 0
-20 -4 -20 -8z"/>
<path d="M2418 2761 c5 -14 3 -14 -11 -2 -11 9 -17 10 -17 2 0 -6 5 -11 12
-11 6 0 -8 -19 -31 -41 -23 -23 -40 -43 -38 -46 5 -5 85 76 97 98 6 11 5 16
-5 16 -8 0 -11 -7 -7 -16z"/>
<path d="M2224 2755 c-10 -8 -14 -14 -9 -15 15 0 40 18 34 24 -3 3 -14 -1 -25
-9z"/>
<path d="M2265 2748 l-20 -21 23 12 c12 6 22 16 22 21 0 13 -2 12 -25 -12z"/>
<path d="M2288 2737 c-15 -10 -15 -12 4 -29 26 -22 30 -22 56 0 20 18 20 18 1
30 -23 15 -39 14 -61 -1z m56 -6 c3 -5 -1 -14 -9 -21 -12 -10 -18 -10 -30 0
-18 15 -11 30 15 30 10 0 21 -4 24 -9z"/>
<path d="M2180 2726 c0 -8 4 -18 10 -21 6 -4 7 1 3 11 -5 13 -3 15 7 9 9 -5
11 -4 6 3 -10 17 -26 15 -26 -2z"/>
<path d="M2405 2703 c-43 -52 -44 -65 -1 -18 21 22 35 33 33 25 -3 -8 4 -24
14 -36 19 -21 19 -21 -11 -21 -24 0 -27 3 -19 14 7 8 8 13 1 13 -11 0 -25 -26
-27 -52 -1 -10 2 -18 7 -18 5 0 6 9 3 21 -6 18 -5 19 13 10 11 -6 29 -22 40
-36 17 -21 22 -22 37 -11 14 10 15 15 5 21 -9 5 -11 4 -6 -3 13 -22 -15 -12
-42 14 -27 27 -24 27 26 7 20 -9 14 13 -12 38 -18 17 -22 28 -16 40 9 15 4 29
-9 29 -3 0 -19 -17 -36 -37z"/>
<path d="M2240 2713 c14 -9 38 -30 53 -46 29 -29 45 -34 24 -7 -19 25 -78 70
-90 70 -6 0 0 -8 13 -17z"/>
<path d="M2153 2712 c-9 -6 -7 -11 7 -20 12 -7 20 -8 20 -2 0 5 -5 10 -11 10
-5 0 -7 5 -4 10 7 12 4 12 -12 2z"/>
<path d="M2210 2695 c0 -8 2 -15 4 -15 2 0 6 7 10 15 3 8 1 15 -4 15 -6 0 -10
-7 -10 -15z"/>
<path d="M2472 2701 c-11 -7 -11 -9 0 -14 9 -3 15 1 15 9 0 8 -1 14 -1 14 -1
0 -7 -4 -14 -9z"/>
<path d="M2190 2681 c0 -10 19 -25 25 -20 1 2 -3 10 -11 17 -8 7 -14 8 -14 3z"/>
<path d="M2230 2680 c0 -5 7 -7 15 -4 8 4 15 8 15 10 0 2 -7 4 -15 4 -8 0 -15
-4 -15 -10z"/>
<path d="M2136 2664 c-9 -24 -7 -31 5 -12 5 9 16 15 24 12 8 -4 12 -10 9 -15
-3 -5 -10 -7 -15 -4 -5 4 -9 1 -9 -4 0 -14 11 -14 30 -1 13 9 12 12 -4 25 -25
19 -32 19 -40 -1z"/>
<path d="M2255 2660 c3 -5 8 -10 11 -10 2 0 4 5 4 10 0 6 -5 10 -11 10 -5 0
-7 -4 -4 -10z"/>
<path d="M2204 2637 c-35 -26 -63 -59 -64 -71 0 -5 14 8 32 28 17 20 40 42 51
47 16 9 18 8 12 -10 -3 -12 -3 -21 2 -21 11 0 14 38 4 45 -5 2 -22 -5 -37 -18z"/>
<path d="M2280 2650 c0 -5 5 -10 11 -10 5 0 7 5 4 10 -3 6 -8 10 -11 10 -2 0
-4 -4 -4 -10z"/>
<path d="M2345 2650 c-3 -5 -1 -10 4 -10 6 0 11 5 11 10 0 6 -2 10 -4 10 -3 0
-8 -4 -11 -10z"/>
<path d="M2122 2627 c10 -8 15 -17 11 -20 -3 -4 -1 -7 5 -7 20 0 13 19 -10 30
-21 10 -21 10 -6 -3z"/>
<path d="M2260 2630 c0 -6 7 -10 15 -10 8 0 15 2 15 4 0 2 -7 6 -15 10 -8 3
-15 1 -15 -4z"/>
<path d="M2365 2630 c-3 -5 -1 -10 4 -10 6 0 11 5 11 10 0 6 -2 10 -4 10 -3 0
-8 -4 -11 -10z"/>
<path d="M2292 2614 c-7 -8 -8 -14 -3 -14 10 0 25 19 20 25 -2 1 -10 -3 -17
-11z"/>
<path d="M2318 2605 c-23 -31 -23 -35 7 -79 l25 -37 -20 -21 c-11 -12 -20 -26
-20 -30 0 -5 11 3 24 19 20 24 26 25 40 14 28 -23 17 -4 -18 32 -19 20 -37 45
-41 57 -7 23 9 50 28 46 7 -1 9 -1 4 1 -4 3 -5 9 -1 14 12 20 -12 7 -28 -16z"/>
<path d="M2211 2607 c-1 -10 -4 -16 -8 -14 -5 2 -16 -4 -25 -15 -23 -23 -10
-23 21 1 13 10 21 24 18 32 -4 10 -6 9 -6 -4z"/>
<path d="M2421 2608 c0 -9 6 -21 16 -26 11 -6 14 -16 9 -28 -5 -14 -4 -16 4
-8 13 13 4 57 -10 49 -5 -3 -11 3 -13 12 -4 16 -5 16 -6 1z"/>
<path d="M2245 2600 c-16 -7 -17 -9 -3 -9 9 -1 20 4 23 9 7 11 7 11 -20 0z"/>
<path d="M2378 2598 c5 -5 16 -8 23 -6 8 3 3 7 -10 11 -17 4 -21 3 -13 -5z"/>
<path d="M2115 2570 c0 -15 3 -26 8 -23 4 2 7 13 7 23 0 10 -3 21 -7 23 -5 3
-8 -8 -8 -23z"/>
<path d="M2270 2579 c0 -5 -4 -7 -10 -4 -5 3 -10 2 -10 -3 0 -6 6 -12 14 -15
7 -3 24 -20 36 -37 l23 -32 -22 7 c-11 3 -21 2 -21 -3 0 -9 39 -11 42 -2 4 9
-36 70 -45 70 -5 0 -4 7 3 15 9 10 9 15 1 15 -6 0 -11 -5 -11 -11z"/>
<path d="M2331 2575 c-1 -18 51 -85 66 -85 6 0 -25 40 -39 50 -4 3 -11 17 -17
30 -8 21 -10 22 -10 5z"/>
<path d="M2357 2570 c3 -11 7 -20 9 -20 2 0 4 9 4 20 0 11 -4 20 -9 20 -5 0
-7 -9 -4 -20z"/>
<path d="M2225 2561 c4 -13 -4 -26 -25 -45 -18 -14 -28 -26 -23 -26 4 -1 -4
-8 -19 -16 -28 -15 -37 -34 -17 -34 5 0 7 5 4 10 -3 6 -1 10 4 10 6 0 29 19
52 42 36 37 42 40 50 25 6 -9 18 -17 27 -16 14 0 13 2 -3 9 -11 5 -16 9 -10 9
5 1 -1 8 -13 17 -12 8 -20 20 -17 25 4 5 1 9 -5 9 -7 0 -9 -8 -5 -19z"/>
<path d="M2400 2570 c0 -5 5 -10 10 -10 6 0 10 5 10 10 0 6 -4 10 -10 10 -5 0
-10 -4 -10 -10z"/>
<path d="M2483 2565 c-10 -11 -9 -13 6 -12 11 1 17 7 14 14 -6 16 -5 16 -20
-2z"/>
<path d="M2175 2533 c-38 -51 -38 -58 -2 -20 20 20 37 40 37 42 0 13 -17 2
-35 -22z"/>
<path d="M2380 2550 c0 -5 5 -10 11 -10 5 0 7 5 4 10 -3 6 -8 10 -11 10 -2 0
-4 -4 -4 -10z"/>
<path d="M2137 2543 c-10 -10 -8 -23 4 -23 5 0 8 4 4 9 -3 5 3 12 12 14 14 4
15 5 2 6 -9 0 -19 -2 -22 -6z"/>
<path d="M2416 2535 c4 -8 8 -15 10 -15 2 0 4 7 4 15 0 8 -4 15 -10 15 -5 0
-7 -7 -4 -15z"/>
<path d="M2460 2529 c0 -5 5 -7 10 -4 6 3 10 8 10 11 0 2 -4 4 -10 4 -5 0 -10
-5 -10 -11z"/>
<path d="M2493 2533 c4 -6 -5 -15 -18 -21 -31 -14 -31 -23 -4 -40 25 -16 43
-4 28 18 -9 13 -10 12 -5 -2 7 -22 -7 -23 -24 -3 -7 8 -8 15 -3 15 5 0 17 6
28 13 14 11 15 16 5 22 -8 5 -11 4 -7 -2z"/>
<path d="M2395 2520 c3 -5 8 -10 11 -10 2 0 4 5 4 10 0 6 -5 10 -11 10 -5 0
-7 -4 -4 -10z"/>
<path d="M2427 2510 c-17 -17 -16 -19 17 -52 32 -32 38 -34 53 -22 16 12 16
13 1 8 -10 -3 -28 5 -47 22 -28 25 -29 28 -13 40 9 7 15 14 12 17 -3 2 -13 -3
-23 -13z"/>
<path d="M2115 2490 c0 -15 3 -26 8 -23 4 2 7 13 7 23 0 10 -3 21 -7 23 -5 3
-8 -8 -8 -23z"/>
<path d="M2220 2500 c-8 -5 -10 -10 -5 -10 6 0 2 -5 -7 -11 -10 -5 -18 -15
-18 -21 0 -6 11 1 24 15 13 14 27 23 30 20 3 -4 6 -1 6 5 0 14 -10 15 -30 2z"/>
<path d="M2260 2486 c0 -8 4 -17 9 -20 5 -4 7 3 4 14 -6 23 -13 26 -13 6z"/>
<path d="M2234 2469 c-7 -12 17 -32 26 -22 3 3 -1 8 -8 10 -6 3 -10 9 -6 14 3
5 3 9 0 9 -3 0 -8 -5 -12 -11z"/>
<path d="M2290 2459 c0 -5 5 -7 10 -4 6 3 10 8 10 11 0 2 -4 4 -10 4 -5 0 -10
-5 -10 -11z"/>
<path d="M2362 2422 l-42 -46 -22 22 c-12 12 -17 22 -10 22 7 0 12 5 12 11 0
5 -4 8 -9 5 -5 -4 -11 0 -14 6 -3 7 -5 2 -4 -12 1 -24 30 -60 48 -60 5 0 23
15 40 33 17 17 34 31 38 30 4 -1 8 7 8 18 1 10 1 19 0 18 -1 0 -21 -21 -45
-47z"/>
<path d="M2165 2450 c-3 -5 -1 -10 4 -10 6 0 11 5 11 10 0 6 -2 10 -4 10 -3 0
-8 -4 -11 -10z"/>
<path d="M2210 2445 c0 -8 4 -15 10 -15 5 0 7 7 4 15 -4 8 -8 15 -10 15 -2 0
-4 -7 -4 -15z"/>
<path d="M2331 2434 c-12 -14 -20 -28 -17 -31 3 -4 7 -4 9 -2 1 2 13 16 26 32
30 34 15 35 -18 1z"/>
<path d="M2421 2447 c0 -10 6 -20 14 -23 8 -4 12 -11 8 -17 -3 -6 -1 -7 5 -3
6 4 9 13 6 21 -4 8 -10 13 -14 10 -5 -3 -11 3 -13 12 -4 17 -5 17 -6 0z"/>
<path d="M2116 2427 c3 -10 9 -15 12 -12 3 3 0 11 -7 18 -10 9 -11 8 -5 -6z"/>
<path d="M2179 2419 c-11 -21 -9 -26 54 -91 32 -34 17 -3 -18 35 -28 32 -33
42 -24 58 5 10 7 19 5 19 -3 0 -10 -9 -17 -21z"/>
<path d="M2147 2416 c-3 -8 4 -30 17 -49 19 -27 21 -37 11 -50 -7 -9 -16 -13
-20 -9 -5 4 -5 1 0 -7 7 -12 11 -10 25 7 10 12 21 18 26 14 5 -4 2 2 -6 13 -8
11 -18 22 -21 25 -18 15 -27 48 -17 58 8 8 9 12 1 12 -6 0 -13 -6 -16 -14z"/>
<path d="M2230 2420 c-8 -5 -10 -10 -5 -10 6 0 17 5 25 10 8 5 11 10 5 10 -5
0 -17 -5 -25 -10z"/>
<path d="M2201 2404 c0 -11 3 -14 6 -6 3 7 2 16 -1 19 -3 4 -6 -2 -5 -13z"/>
<path d="M2362 2382 c-41 -43 -36 -53 6 -13 16 16 34 26 38 23 4 -4 4 -1 0 6
-11 18 5 15 21 -5 13 -16 13 -16 3 5 -14 29 -29 26 -68 -16z"/>
<path d="M2494 2406 c1 -8 5 -18 8 -22 4 -3 5 1 4 10 -1 8 -5 18 -8 22 -4 3
-5 -1 -4 -10z"/>
<path d="M2460 2395 c-7 -9 -10 -18 -7 -21 3 -3 10 4 17 15 13 25 8 27 -10 6z"/>
<path d="M2220 2388 c0 -6 7 -8 15 -4 9 3 29 -8 51 -30 20 -19 38 -33 41 -31
2 3 -12 20 -32 38 -34 33 -75 47 -75 27z"/>
<path d="M2115 2370 c-3 -6 1 -7 10 -4 11 5 14 2 9 -12 -6 -15 -4 -16 6 -7 7
6 9 16 6 22 -9 14 -23 14 -31 1z"/>
<path d="M2385 2360 c-10 -11 -16 -22 -14 -24 2 -3 14 6 26 20 12 13 18 24 14
24 -4 0 -16 -9 -26 -20z"/>
<path d="M2477 2373 c-12 -11 -8 -23 7 -23 8 0 18 4 21 10 4 6 -1 7 -11 3 -12
-4 -15 -3 -10 5 8 13 3 16 -7 5z"/>
<path d="M2238 2363 c7 -3 16 -2 19 1 4 3 -2 6 -13 5 -11 0 -14 -3 -6 -6z"/>
<path d="M2433 2354 c1 -21 27 -23 27 -2 0 5 -4 7 -9 4 -5 -4 -11 0 -14 6 -3
7 -4 3 -4 -8z"/>
<path d="M2405 2350 c-3 -5 -1 -10 4 -10 6 0 11 5 11 10 0 6 -2 10 -4 10 -3 0
-8 -4 -11 -10z"/>
<path d="M2255 2340 c3 -5 8 -10 11 -10 2 0 4 5 4 10 0 6 -5 10 -11 10 -5 0
-7 -4 -4 -10z"/>
<path d="M2145 2330 c-3 -5 -2 -10 4 -10 5 0 13 5 16 10 3 6 2 10 -4 10 -5 0
-13 -4 -16 -10z"/>
<path d="M2280 2330 c0 -5 5 -10 11 -10 5 0 7 5 4 10 -3 6 -8 10 -11 10 -2 0
-4 -4 -4 -10z"/>
<path d="M2345 2330 c-3 -5 -1 -10 4 -10 6 0 11 5 11 10 0 6 -2 10 -4 10 -3 0
-8 -4 -11 -10z"/>
<path d="M2462 2333 c-10 -4 -7 -9 8 -20 25 -18 45 -6 29 17 -9 12 -10 12 -5
-3 4 -12 2 -17 -6 -14 -7 2 -12 10 -10 16 1 6 1 11 0 10 -2 0 -9 -3 -16 -6z"/>
<path d="M2393 2312 c0 -12 5 -22 9 -22 11 0 10 12 -2 30 -7 12 -9 10 -7 -8z"/>
<path d="M2425 2316 c11 -9 27 -25 36 -36 14 -17 19 -17 35 -5 18 13 18 14 -3
8 -13 -3 -23 -1 -23 4 0 5 -15 17 -32 27 -24 12 -27 13 -13 2z"/>
<path d="M2192 2290 c-42 -40 -41 -52 0 -14 18 16 35 30 37 32 2 1 2 4 -1 7
-3 3 -19 -8 -36 -25z"/>
<path d="M2260 2310 c0 -6 7 -10 15 -10 8 0 15 2 15 4 0 2 -7 6 -15 10 -8 3
-15 1 -15 -4z"/>
<path d="M2365 2310 c-3 -5 -1 -10 4 -10 6 0 11 5 11 10 0 6 -2 10 -4 10 -3 0
-8 -4 -11 -10z"/>
<path d="M2121 2283 c-10 -24 -9 -26 2 -11 11 14 16 15 27 5 11 -9 11 -8 0 8
-8 11 -15 21 -16 23 0 1 -6 -10 -13 -25z"/>
<path d="M2292 2294 c-7 -8 -8 -14 -3 -14 10 0 25 19 20 25 -2 1 -10 -3 -17
-11z"/>
<path d="M2332 2298 c2 -6 10 -13 16 -14 7 -1 8 0 2 3 -5 2 -8 9 -4 14 3 5 0
9 -6 9 -7 0 -10 -5 -8 -12z"/>
<path d="M2210 2270 c-33 -28 -79 -42 -65 -20 3 6 1 10 -5 10 -18 0 -6 -25 13
-28 9 -2 32 7 49 20 18 12 38 22 45 20 6 -1 14 2 18 8 4 6 -1 7 -11 3 -12 -4
-15 -3 -10 5 11 18 4 15 -34 -18z"/>
<path d="M2421 2287 c0 -10 6 -20 14 -23 8 -4 15 -12 15 -19 0 -7 7 -18 16
-26 13 -11 13 -7 -2 24 -9 20 -21 34 -25 31 -4 -2 -10 4 -12 13 -4 17 -5 17
-6 0z"/>
<path d="M2378 2278 c5 -5 16 -8 23 -6 8 3 3 7 -10 11 -17 4 -21 3 -13 -5z"/>
<path d="M2283 2245 c-35 -37 -39 -45 -22 -45 5 0 7 5 4 10 -3 6 0 10 8 10 7
0 20 11 27 25 13 24 30 34 30 17 0 -16 -63 -83 -75 -79 -6 3 -18 1 -26 -5 -11
-8 -10 -9 3 -4 11 3 23 -3 33 -17 8 -12 15 -17 16 -12 0 6 4 1 9 -10 7 -16 9
-17 9 -3 1 9 -6 21 -16 26 -14 8 -13 13 12 38 26 27 27 24 9 -21 -3 -8 -1 -15
4 -15 6 0 9 -11 6 -25 -3 -17 2 -27 17 -36 20 -10 20 -12 5 -27 -15 -15 -17
-15 -33 2 -17 17 -17 18 7 11 22 -6 21 -4 -6 13 -18 11 -38 29 -45 39 -8 10
-21 19 -29 21 -8 2 -19 9 -23 15 -6 8 -7 8 -5 -2 2 -8 13 -19 23 -25 26 -15
72 -56 62 -56 -5 0 -18 5 -29 11 -15 8 -19 8 -14 0 4 -6 3 -11 -2 -11 -5 0
-27 -18 -50 -40 -22 -22 -43 -36 -46 -31 -4 5 -1 12 4 14 6 3 5 4 -1 3 -7 -1
-13 -10 -15 -19 -1 -9 2 -15 7 -11 5 3 9 0 9 -6 0 -7 7 -9 15 -6 8 3 23 9 33
13 9 3 -1 -12 -22 -35 -34 -34 -41 -38 -51 -26 -9 13 -11 12 -11 -5 0 -11 3
-19 6 -19 18 2 23 -4 10 -12 -8 -5 -10 -10 -4 -10 6 0 17 7 24 15 7 8 10 15 6
15 -10 0 47 61 67 72 16 8 18 7 12 -11 -3 -12 -2 -21 3 -21 5 0 9 10 8 23 -1
16 -7 21 -21 19 -19 -3 -19 -3 -3 14 17 17 18 17 33 -1 8 -11 15 -15 15 -10 0
12 -20 35 -30 35 -4 0 -17 -9 -30 -20 -40 -35 -47 -21 -7 16 l38 36 18 -21
c10 -12 22 -21 26 -21 5 0 -2 11 -15 25 -28 30 -13 34 20 5 28 -25 32 -25 58
-2 l21 19 -24 13 c-14 7 -25 17 -25 22 0 5 5 6 10 3 6 -3 10 -1 10 4 0 6 -4
11 -9 11 -20 0 -3 29 40 73 32 32 40 45 28 44 -10 -1 -16 -4 -15 -7 2 -3 -12
-21 -30 -40 -39 -40 -46 -27 -9 16 27 31 31 44 14 44 -5 0 -8 -4 -5 -9 3 -4
-3 -16 -14 -26 -21 -19 -29 -8 -9 12 11 11 5 34 -9 32 -4 0 -22 -16 -39 -34z"/>
<path d="M2270 2261 c0 -6 -8 -8 -19 -6 -14 3 -18 -3 -18 -22 0 -26 0 -26 11
-4 7 12 15 19 18 16 3 -3 11 1 18 10 8 10 9 15 1 15 -6 0 -11 -4 -11 -9z"/>
<path d="M2485 2249 c-4 -6 -5 -12 -2 -15 2 -3 7 2 10 11 7 17 1 20 -8 4z"/>
<path d="M2195 2229 c-4 -6 -4 -13 -1 -16 3 -4 6 -1 6 6 0 7 5 9 10 6 6 -3 10
-1 10 4 0 14 -17 14 -25 0z"/>
<path d="M2410 2236 c0 -3 15 -20 33 -36 17 -16 27 -30 20 -30 -6 0 -18 6 -25
13 -27 25 -52 42 -44 30 4 -7 2 -13 -3 -13 -6 0 -11 -5 -11 -11 0 -8 4 -8 14
0 10 9 17 7 27 -6 12 -15 12 -16 -2 -11 -9 3 -22 2 -30 -4 -11 -8 -10 -9 4 -4
13 4 29 -4 53 -28 30 -30 36 -32 51 -20 16 13 16 13 1 8 -10 -3 -28 4 -45 20
-31 29 -21 35 16 10 26 -18 46 -7 30 16 -9 12 -10 12 -5 -3 4 -12 2 -17 -6
-15 -6 2 -12 12 -14 21 -1 9 -8 22 -16 29 -25 25 -48 40 -48 34z"/>
<path d="M2141 2213 c-1 -6 4 -15 10 -19 8 -4 3 -12 -12 -21 l-24 -14 23 7
c22 5 23 4 12 -16 -6 -12 -8 -29 -4 -38 4 -9 6 -24 5 -32 -2 -13 -1 -13 8 0 7
9 7 18 1 24 -6 6 -10 16 -10 24 0 9 7 5 19 -9 14 -17 16 -28 9 -36 -7 -9 -7
-13 1 -13 6 0 11 5 11 11 0 5 6 7 13 3 12 -8 -5 17 -30 44 -7 7 -13 19 -13 25
0 7 14 -3 31 -21 17 -19 32 -32 35 -30 2 3 -10 20 -28 39 -33 34 -44 59 -27
59 5 0 9 5 9 11 0 8 -4 8 -14 0 -11 -9 -15 -9 -19 1 -4 9 -6 9 -6 1z"/>
<path d="M2494 2211 c4 -5 1 -12 -4 -14 -6 -3 -5 -4 2 -3 15 3 23 26 8 26 -6
0 -9 -4 -6 -9z"/>
<path d="M2210 2200 c0 -5 5 -10 11 -10 5 0 7 5 4 10 -3 6 -8 10 -11 10 -2 0
-4 -4 -4 -10z"/>
<path d="M2115 2190 c-3 -5 -1 -10 4 -10 6 0 11 5 11 10 0 6 -2 10 -4 10 -3 0
-8 -4 -11 -10z"/>
<path d="M2185 2189 c-4 -6 -5 -12 -2 -15 2 -3 7 2 10 11 7 17 1 20 -8 4z"/>
<path d="M2361 2174 c0 -11 3 -14 6 -6 3 7 2 16 -1 19 -3 4 -6 -2 -5 -13z"/>
<path d="M2340 2161 c0 -6 4 -13 10 -16 6 -3 7 1 4 9 -7 18 -14 21 -14 7z"/>
<path d="M2370 2139 c0 -5 5 -7 10 -4 6 3 10 8 10 11 0 2 -4 4 -10 4 -5 0 -10
-5 -10 -11z"/>
<path d="M2416 2125 c9 -14 21 -25 26 -25 5 0 7 -4 4 -8 -2 -4 4 -8 14 -9 18
-2 18 -1 2 16 -9 10 -20 16 -24 14 -5 -2 -8 2 -8 10 0 8 -7 17 -15 21 -13 5
-13 2 1 -19z"/>
<path d="M2354 2118 c3 -15 26 -23 26 -8 0 6 -4 9 -9 6 -5 -4 -12 -1 -14 4 -3
6 -4 5 -3 -2z"/>
<path d="M2390 2120 c0 -5 5 -10 11 -10 5 0 7 5 4 10 -3 6 -8 10 -11 10 -2 0
-4 -4 -4 -10z"/>
<path d="M2125 2090 c3 -5 8 -10 11 -10 2 0 4 5 4 10 0 6 -5 10 -11 10 -5 0
-7 -4 -4 -10z"/>
<path d="M2400 2093 c8 -4 21 -13 28 -22 11 -14 11 -13 2 7 -6 12 -18 22 -28
21 -14 0 -14 -2 -2 -6z"/>
<path d="M2494 2086 c1 -8 5 -18 8 -22 4 -3 5 1 4 10 -1 8 -5 18 -8 22 -4 3
-5 -1 -4 -10z"/>
<path d="M2117 2069 c7 -7 15 -10 18 -7 3 3 -2 9 -12 12 -14 6 -15 5 -6 -5z"/>
<path d="M2347 2044 c-21 -20 -36 -39 -33 -41 2 -3 17 9 33 25 15 16 37 34 48
40 15 8 16 11 5 12 -9 0 -32 -16 -53 -36z"/>
<path d="M2450 2055 c0 -8 2 -15 4 -15 2 0 6 7 10 15 3 8 1 15 -4 15 -6 0 -10
-7 -10 -15z"/>
<path d="M2158 2053 c7 -3 16 -2 19 1 4 3 -2 6 -13 5 -11 0 -14 -3 -6 -6z"/>
<path d="M2390 2050 c-12 -7 -10 -9 8 -7 12 0 22 5 22 9 0 11 -12 10 -30 -2z"/>
<path d="M2477 2053 c-12 -11 -8 -23 7 -23 8 0 18 4 21 10 4 6 -1 7 -11 3 -12
-4 -15 -3 -10 5 8 13 3 16 -7 5z"/>
<path d="M2430 2041 c0 -10 19 -25 25 -20 1 2 -3 10 -11 17 -8 7 -14 8 -14 3z"/>
<path d="M2292 2028 c-15 -15 -15 -28 -1 -28 5 0 8 4 5 9 -4 5 0 11 6 14 7 2
10 7 7 10 -3 4 -11 1 -17 -5z"/>
<path d="M2370 2019 c0 -5 5 -7 10 -4 6 3 10 8 10 11 0 2 -4 4 -10 4 -5 0 -10
-5 -10 -11z"/>
<path d="M2408 2023 c6 -2 11 -8 9 -11 -1 -4 12 -21 30 -38 29 -28 34 -30 50
-18 17 13 17 14 0 8 -13 -5 -28 4 -51 30 -19 20 -38 36 -42 35 -5 0 -3 -3 4
-6z"/>
<path d="M2345 2010 c-3 -5 -1 -10 4 -10 6 0 11 5 11 10 0 6 -2 10 -4 10 -3 0
-8 -4 -11 -10z"/>
<path d="M2462 2013 c-10 -4 -7 -9 8 -20 25 -18 45 -6 29 17 -9 12 -10 12 -5
-3 4 -12 2 -17 -6 -14 -7 2 -12 10 -10 16 1 6 1 11 0 10 -2 0 -9 -3 -16 -6z"/>
<path d="M2393 1992 c0 -12 5 -22 9 -22 11 0 10 12 -2 30 -7 12 -9 10 -7 -8z"/>
<path d="M2122 1980 c7 -11 16 -20 20 -20 15 0 8 15 -12 28 -19 12 -20 11 -8
-8z"/>
<path d="M2260 1990 c0 -5 5 -10 11 -10 5 0 7 5 4 10 -3 6 -8 10 -11 10 -2 0
-4 -4 -4 -10z"/>
<path d="M2365 1990 c-3 -5 -1 -10 4 -10 6 0 11 5 11 10 0 6 -2 10 -4 10 -3 0
-8 -4 -11 -10z"/>
<path d="M2294 1981 c4 -5 3 -11 -1 -14 -5 -2 -2 -2 4 -1 7 2 20 -8 29 -21 12
-18 23 -24 40 -21 13 3 24 0 24 -5 0 -5 5 -9 11 -9 5 0 7 5 4 10 -3 6 -2 10 3
10 24 0 35 -67 13 -80 -9 -5 -11 -9 -6 -9 13 0 45 24 45 33 0 4 -4 4 -10 1 -5
-3 -10 -1 -10 5 0 6 6 13 14 16 8 3 17 13 21 22 5 13 3 13 -14 -2 -19 -17 -20
-17 -31 3 -8 15 -18 20 -35 17 -14 -3 -25 0 -25 5 0 5 -5 9 -11 9 -5 0 -7 -4
-4 -10 15 -25 -12 -7 -30 20 -11 16 -24 30 -28 30 -5 0 -6 -4 -3 -9z"/>
<path d="M2332 1978 c2 -6 10 -13 16 -14 7 -1 8 0 2 3 -5 2 -8 9 -4 14 3 5 0
9 -6 9 -7 0 -10 -5 -8 -12z"/>
<path d="M2211 1967 c-1 -10 -5 -15 -11 -12 -9 5 -12 -1 -9 -21 0 -3 -10 -14
-22 -25 -12 -10 -18 -19 -14 -19 5 0 17 7 27 17 17 15 19 15 36 0 10 -10 22
-17 27 -17 4 0 -2 9 -15 20 -13 11 -28 20 -33 20 -6 0 -3 6 7 13 11 8 16 20
13 28 -4 10 -6 9 -6 -4z"/>
<path d="M2421 1967 c0 -10 6 -20 14 -23 8 -4 12 -11 8 -17 -3 -6 -1 -7 5 -3
6 4 9 13 6 21 -4 8 -10 13 -14 10 -5 -3 -11 3 -13 12 -4 17 -5 17 -6 0z"/>
<path d="M2245 1960 c-16 -7 -17 -9 -3 -9 9 -1 20 4 23 9 7 11 7 11 -20 0z"/>
<path d="M2378 1958 c5 -5 16 -8 23 -6 8 3 3 7 -10 11 -17 4 -21 3 -13 -5z"/>
<path d="M2274 1938 c2 -7 11 -12 20 -12 9 1 24 -9 33 -22 8 -13 19 -24 25
-24 5 0 -3 12 -17 27 -14 15 -25 31 -25 35 0 5 -5 8 -11 8 -5 0 -7 -4 -4 -10
3 -5 2 -10 -4 -10 -5 0 -12 5 -14 10 -3 6 -4 5 -3 -2z"/>
<path d="M2253 1909 c16 -17 36 -28 43 -25 20 8 40 -34 23 -45 -8 -5 -9 -9 -4
-9 6 0 3 -4 -5 -10 -8 -5 -12 -12 -8 -15 4 -4 14 5 23 19 16 23 16 27 -1 56
-10 16 -22 30 -27 30 -4 0 -5 -4 -2 -10 3 -5 2 -10 -2 -10 -10 0 -43 37 -38
42 2 2 -4 4 -14 5 -14 1 -12 -5 12 -28z"/>
<path d="M2365 1900 c11 -5 16 -9 11 -9 -11 -1 25 -30 37 -31 4 0 7 5 7 11 0
5 -4 8 -9 4 -6 -3 -15 4 -21 15 -6 11 -18 20 -28 19 -14 0 -14 -2 3 -9z"/>
<path d="M2184 1887 c-25 -29 -49 -71 -35 -62 11 6 13 4 8 -7 -6 -17 16 -19
30 -3 4 4 3 5 -3 2 -7 -4 -15 0 -18 9 -10 25 -2 26 22 4 12 -12 22 -16 22 -11
0 6 -9 15 -21 22 l-21 11 23 24 c12 13 18 24 13 24 -5 -1 -14 -6 -20 -13z"/>
<path d="M2474 1888 c-11 -17 6 -22 22 -7 13 14 13 16 -1 16 -9 0 -18 -4 -21
-9z"/>
<path d="M2136 1864 c-5 -14 -4 -15 9 -4 17 14 19 20 6 20 -5 0 -12 -7 -15
-16z"/>
<path d="M2225 1860 c19 -21 7 -28 -13 -8 -6 6 -14 9 -17 7 -2 -3 10 -13 27
-23 17 -11 28 -14 24 -7 -4 6 -2 11 3 11 6 0 2 9 -9 20 -11 11 -23 20 -27 20
-3 0 2 -9 12 -20z"/>
<path d="M2245 1870 c3 -5 8 -10 11 -10 2 0 4 5 4 10 0 6 -5 10 -11 10 -5 0
-7 -4 -4 -10z"/>
<path d="M2291 1863 c3 -20 -2 -33 -13 -30 -6 1 -13 -7 -15 -18 l-3 -20 9 20
c5 11 10 16 11 10 1 -11 30 24 30 37 0 4 -4 8 -10 8 -5 0 -9 -3 -9 -7z"/>
<path d="M2388 1833 c20 -21 39 -33 40 -28 2 6 16 21 30 34 15 13 20 20 12 16
-8 -5 -23 -15 -33 -23 -16 -15 -20 -14 -43 11 -14 15 -29 27 -34 27 -5 0 8
-17 28 -37z"/>
<path d="M1145 1838 c-106 -55 -144 -174 -89 -281 19 -36 34 -49 87 -78 36
-19 56 -20 426 -20 376 0 432 3 459 24 6 5 12 6 12 2 0 -4 18 14 39 41 82 98
63 234 -43 302 l-41 27 -405 2 c-393 2 -406 1 -445 -19z"/>
<path d="M2320 1800 c-19 -20 -39 -35 -44 -32 -5 3 -6 1 -3 -4 5 -8 81 -11 97
-4 3 1 8 2 13 1 4 0 7 4 7 9 0 14 -13 13 -28 -2 -8 -8 -12 -8 -12 -1 0 6 7 16
15 23 12 10 18 10 30 0 24 -20 17 -3 -10 25 -14 14 -27 24 -28 24 -1 -1 -18
-18 -37 -39z m50 12 c0 -16 -52 -54 -61 -45 -6 6 1 15 16 23 14 7 25 17 25 22
0 4 5 8 10 8 6 0 10 -4 10 -8z"/>
<path d="M2224 1808 c3 -15 26 -23 26 -8 0 6 -4 9 -9 6 -5 -4 -12 -1 -14 4 -3
6 -4 5 -3 -2z"/>
<path d="M2266 1789 c-10 -9 -24 -15 -32 -12 -8 3 -14 -1 -14 -8 0 -7 3 -9 7
-6 3 4 12 2 20 -5 10 -8 13 -8 11 0 -2 6 6 17 17 25 11 9 18 17 15 20 -3 2
-13 -4 -24 -14z"/>
<path d="M2194 1785 c3 -23 12 -26 13 -5 1 11 -2 20 -7 20 -4 0 -7 -7 -6 -15z"/>
<path d="M819 1467 c-67 -25 -106 -64 -127 -126 -15 -44 -17 -769 -2 -823 6
-21 18 -44 26 -53 9 -8 12 -15 7 -15 -4 0 7 -10 24 -21 18 -12 30 -26 26 -32
-3 -6 -1 -7 5 -3 7 4 12 3 12 -3 0 -5 8 -8 18 -7 9 2 28 0 42 -4 30 -9 127 14
150 35 9 8 20 13 23 10 4 -3 5 -2 3 1 -2 3 6 21 19 40 13 20 27 54 30 77 3 23
5 213 3 422 -3 374 -3 381 -25 416 -49 78 -153 116 -234 86z"/>
<path d="M2224 1445 c-18 -14 -18 -14 4 -8 12 3 22 9 22 14 0 12 -3 11 -26 -6z"/>
<path d="M2310 1448 c0 -4 4 -8 9 -8 6 0 12 4 15 8 3 5 -1 9 -9 9 -8 0 -15 -4
-15 -9z"/>
<path d="M2354 1452 c3 -3 19 -6 36 -7 17 -1 28 1 24 4 -3 3 -19 6 -35 7 -17
1 -28 -1 -25 -4z"/>
<path d="M2273 1423 c-15 -40 -34 -51 -64 -40 -23 9 -26 14 -16 27 11 13 10
13 -6 1 -19 -15 -16 -21 25 -38 22 -10 29 -9 44 8 24 27 30 24 60 -21 15 -22
31 -40 36 -40 5 0 0 10 -11 22 -12 12 -23 30 -27 40 -3 10 -10 18 -15 18 -6 0
-8 4 -5 8 6 10 42 9 52 -1 4 -4 2 -7 -4 -7 -7 0 -12 -5 -12 -10 0 -6 9 -5 23
3 12 8 32 13 44 12 12 -1 24 4 27 12 4 10 1 11 -14 3 -25 -13 -33 -13 -24 3 4
6 4 9 -1 5 -4 -4 -14 -3 -22 3 -10 9 -17 8 -28 -1 -12 -10 -19 -10 -27 -2 -17
17 -28 15 -35 -5z m27 3 c0 -3 -4 -8 -10 -11 -5 -3 -10 -1 -10 4 0 6 5 11 10
11 6 0 10 -2 10 -4z m65 -6 c3 -5 2 -10 -4 -10 -5 0 -13 5 -16 10 -3 6 -2 10
4 10 5 0 13 -4 16 -10z"/>
<path d="M2236 1418 c3 -5 10 -6 15 -3 13 9 11 12 -6 12 -8 0 -12 -4 -9 -9z"/>
<path d="M2210 1411 c0 -5 7 -12 16 -15 14 -5 15 -4 4 9 -14 17 -20 19 -20 6z"/>
<path d="M2435 1400 c-3 -5 -1 -10 4 -10 6 0 11 5 11 10 0 6 -2 10 -4 10 -3 0
-8 -4 -11 -10z"/>
<path d="M2146 1390 c17 -25 3 -66 -19 -54 -9 5 -9 4 0 -6 9 -9 15 -8 32 9 12
12 16 21 10 21 -5 0 -8 4 -5 9 3 5 -2 15 -12 22 -15 12 -16 12 -6 -1z"/>
<path d="M2370 1375 c0 -8 2 -15 4 -15 2 0 6 7 10 15 3 8 1 15 -4 15 -6 0 -10
-7 -10 -15z"/>
<path d="M2260 1361 c-7 -11 -17 -18 -22 -15 -16 10 -8 -13 12 -34 13 -14 16
-22 8 -22 -9 0 -9 -3 2 -10 8 -5 20 -10 25 -10 6 0 3 5 -5 10 -8 5 -11 10 -6
10 5 0 1 9 -9 20 -18 20 -18 21 5 45 13 14 19 25 14 25 -5 0 -16 -9 -24 -19z"/>
<path d="M2345 1370 c-3 -5 -1 -10 4 -10 6 0 11 5 11 10 0 6 -2 10 -4 10 -3 0
-8 -4 -11 -10z"/>
<path d="M2422 1373 c-10 -4 -8 -9 7 -20 12 -8 19 -19 15 -24 -3 -6 -16 1 -29
15 -21 23 -24 23 -22 7 1 -11 4 -18 8 -15 11 6 39 -37 32 -49 -4 -6 -1 -7 7
-2 10 6 12 4 6 -11 -6 -15 -5 -17 5 -6 10 9 10 15 1 24 -21 21 -13 32 8 13 18
-17 20 -17 14 -2 -3 9 -10 17 -16 17 -5 0 -7 4 -4 9 3 5 -1 14 -9 21 -8 7 -12
16 -9 21 6 10 5 10 -14 2z"/>
<path d="M2450 1370 c0 -5 9 -8 20 -7 21 1 18 10 -5 13 -8 1 -15 -2 -15 -6z"/>
<path d="M2193 1346 c0 -11 1 -15 4 -8 3 6 9 10 14 6 5 -3 9 -1 9 4 0 21 -26
19 -27 -2z"/>
<path d="M2290 1357 c0 -4 9 -17 20 -29 11 -12 20 -30 20 -40 0 -10 4 -18 9
-18 5 0 7 8 4 18 -5 20 -52 82 -53 69z"/>
<path d="M2358 1343 c7 -3 16 -2 19 1 4 3 -2 6 -13 5 -11 0 -14 -3 -6 -6z"/>
<path d="M2470 1341 c0 -6 4 -12 8 -15 5 -3 9 1 9 9 0 8 -4 15 -9 15 -4 0 -8
-4 -8 -9z"/>
<path d="M2165 1330 c-3 -5 -1 -10 4 -10 6 0 11 5 11 10 0 6 -2 10 -4 10 -3 0
-8 -4 -11 -10z"/>
<path d="M2270 1335 c0 -4 8 -15 18 -24 9 -9 18 -22 20 -30 2 -8 12 -27 23
-43 l20 -28 -20 -22 c-12 -12 -21 -26 -21 -30 0 -5 11 3 24 19 23 27 25 27 43
10 11 -9 22 -14 26 -11 3 3 10 -4 17 -15 11 -22 30 -28 30 -10 0 5 -4 7 -10 4
-5 -3 -10 1 -10 9 0 9 -4 16 -10 16 -21 0 -26 3 -53 32 -16 16 -26 32 -23 36
4 3 15 -4 26 -16 28 -30 35 -28 13 3 -11 15 -25 23 -36 21 -16 -4 -42 25 -32
36 3 3 -6 15 -20 28 -14 13 -25 20 -25 15z"/>
<path d="M2210 1323 c0 -6 5 -15 10 -18 6 -4 8 -10 5 -14 -8 -13 41 -64 56
-58 9 4 7 6 -5 6 -11 1 -16 4 -13 8 4 3 -2 13 -13 20 -11 8 -18 18 -15 22 2 5
-2 17 -10 27 -8 10 -15 14 -15 7z"/>
<path d="M2385 1314 c11 -8 19 -20 18 -25 -2 -5 2 -9 7 -9 23 0 4 33 -25 43
l-20 7 20 -16z"/>
<path d="M2163 1285 c-35 -37 -39 -45 -22 -45 5 0 7 5 4 10 -3 6 0 10 7 10 8
0 22 14 31 30 23 38 20 37 -20 -5z"/>
<path d="M2118 1287 c-3 -19 -2 -25 4 -19 6 6 8 18 6 28 -3 14 -5 12 -10 -9z"/>
<path d="M2146 1294 c-5 -14 -4 -15 9 -4 17 14 19 20 6 20 -5 0 -12 -7 -15
-16z"/>
<path d="M2357 1290 c3 -11 7 -20 9 -20 2 0 4 9 4 20 0 11 -4 20 -9 20 -5 0
-7 -9 -4 -20z"/>
<path d="M2175 1253 c-35 -47 -39 -59 -6 -24 17 19 34 31 38 27 5 -4 -3 -16
-16 -27 -13 -10 -19 -19 -15 -19 5 -1 -3 -8 -18 -16 -28 -15 -37 -34 -17 -34
5 0 7 5 4 10 -3 6 -1 10 5 10 6 0 25 15 41 33 29 31 31 31 45 13 7 -11 14 -16
14 -10 -1 8 -46 64 -52 64 -2 0 -12 -13 -23 -27z"/>
<path d="M2380 1270 c0 -5 5 -10 11 -10 5 0 7 5 4 10 -3 6 -8 10 -11 10 -2 0
-4 -4 -4 -10z"/>
<path d="M2474 1273 c4 -7 2 -13 -3 -13 -6 0 -11 -5 -11 -11 0 -8 4 -8 14 0 8
7 17 8 20 3 3 -5 -6 -14 -19 -20 -31 -14 -31 -23 -4 -40 25 -16 43 -4 28 18
-9 13 -10 12 -5 -2 7 -22 -7 -23 -24 -3 -7 8 -8 15 -3 15 5 0 17 6 27 13 16
12 16 14 -5 32 -12 11 -19 14 -15 8z"/>
<path d="M2416 1255 c4 -8 8 -15 10 -15 2 0 4 7 4 15 0 8 -4 15 -10 15 -5 0
-7 -7 -4 -15z"/>
<path d="M2285 1252 c6 -4 17 -16 25 -26 14 -18 13 -18 -8 -12 -12 4 -22 3
-22 -2 0 -7 34 -10 48 -3 7 3 -32 51 -42 51 -7 0 -7 -3 -1 -8z"/>
<path d="M2395 1240 c3 -5 8 -10 11 -10 2 0 4 5 4 10 0 6 -5 10 -11 10 -5 0
-7 -4 -4 -10z"/>
<path d="M2426 1229 c-18 -18 -18 -19 13 -45 22 -18 30 -32 26 -45 -4 -11 -2
-19 4 -19 6 0 10 4 9 9 -2 5 6 17 17 25 15 12 16 15 3 10 -10 -3 -28 5 -47 22
-28 25 -29 28 -13 40 9 7 15 14 12 17 -3 2 -13 -4 -24 -14z"/>
<path d="M2115 1210 c0 -15 3 -26 8 -23 4 2 7 13 7 23 0 10 -3 21 -7 23 -5 3
-8 -8 -8 -23z"/>
<path d="M2214 1211 c3 -5 -1 -11 -9 -15 -8 -3 -15 -10 -15 -16 0 -5 9 -2 20
7 22 19 26 33 9 33 -5 0 -8 -4 -5 -9z"/>
<path d="M2260 1206 c0 -8 4 -17 9 -20 5 -4 7 3 4 14 -6 23 -13 26 -13 6z"/>
<path d="M2237 1193 c-13 -12 -7 -23 11 -22 10 0 12 3 4 6 -6 2 -10 9 -6 14 6
10 0 12 -9 2z"/>
<path d="M2290 1179 c0 -5 5 -7 10 -4 6 3 10 8 10 11 0 2 -4 4 -10 4 -5 0 -10
-5 -10 -11z"/>
<path d="M2165 1170 c-3 -5 -1 -10 4 -10 6 0 11 5 11 10 0 6 -2 10 -4 10 -3 0
-8 -4 -11 -10z"/>
<path d="M2210 1165 c0 -8 4 -15 10 -15 5 0 7 7 4 15 -4 8 -8 15 -10 15 -2 0
-4 -7 -4 -15z"/>
<path d="M2331 1154 c-12 -14 -20 -28 -17 -31 3 -4 7 -4 9 -2 1 2 13 16 26 32
30 34 15 35 -18 1z"/>
<path d="M2273 1150 c1 -24 30 -60 48 -60 12 0 70 62 64 68 -2 3 -18 -10 -34
-29 l-30 -34 -23 23 c-12 12 -17 22 -10 22 7 0 12 5 12 11 0 5 -4 8 -9 5 -5
-4 -11 0 -14 6 -3 7 -5 2 -4 -12z"/>
<path d="M2116 1147 c3 -10 9 -15 12 -12 3 3 0 11 -7 18 -10 9 -11 8 -5 -6z"/>
<path d="M2179 1139 c-11 -21 -9 -26 54 -91 32 -34 17 -3 -18 35 -28 32 -33
42 -24 58 5 10 7 19 5 19 -3 0 -10 -9 -17 -21z"/>
<path d="M2239 1147 c-14 -9 -11 -15 24 -49 22 -21 42 -36 45 -34 2 3 -12 19
-33 37 -26 23 -33 34 -23 40 7 4 10 10 8 12 -3 3 -12 0 -21 -6z"/>
<path d="M2147 1136 c-3 -8 5 -30 18 -49 17 -26 20 -38 12 -46 -8 -8 -8 -11 1
-11 7 0 12 5 12 11 0 5 6 7 13 3 11 -7 -9 23 -24 36 -18 15 -27 48 -17 58 8 8
9 12 1 12 -6 0 -13 -6 -16 -14z"/>
<path d="M2201 1124 c0 -11 3 -14 6 -6 3 7 2 16 -1 19 -3 4 -6 -2 -5 -13z"/>
<path d="M2400 1133 c8 -4 21 -13 28 -22 11 -14 11 -13 2 7 -6 12 -18 22 -28
21 -14 0 -14 -2 -2 -6z"/>
<path d="M2494 1126 c1 -8 5 -18 8 -22 4 -3 5 1 4 10 -1 8 -5 18 -8 22 -4 3
-5 -1 -4 -10z"/>
<path d="M2220 1110 c0 -5 5 -10 11 -10 5 0 7 5 4 10 -3 6 -8 10 -11 10 -2 0
-4 -4 -4 -10z"/>
<path d="M2348 1084 c-36 -34 -37 -37 -22 -60 9 -13 20 -24 26 -24 5 0 -1 10
-12 22 l-21 22 28 26 c15 15 37 31 48 38 15 8 16 11 5 12 -9 0 -32 -16 -52
-36z"/>
<path d="M2450 1095 c0 -8 2 -15 4 -15 2 0 6 7 10 15 3 8 1 15 -4 15 -6 0 -10
-7 -10 -15z"/>
<path d="M2115 1090 c-3 -6 1 -7 10 -4 11 5 14 2 9 -12 -6 -15 -4 -16 6 -7 7
6 9 16 6 22 -9 14 -23 14 -31 1z"/>
<path d="M2390 1090 c-12 -7 -10 -9 8 -7 12 0 22 5 22 9 0 11 -12 10 -30 -2z"/>
<path d="M2477 1093 c-12 -11 -8 -23 7 -23 8 0 18 4 21 10 4 6 -1 7 -11 3 -12
-4 -15 -3 -10 5 8 13 3 16 -7 5z"/>
<path d="M2256 1065 c16 -14 34 -25 39 -25 12 0 -46 49 -59 50 -5 0 4 -11 20
-25z"/>
<path d="M2430 1082 c0 -6 8 -16 18 -21 9 -6 13 -11 7 -11 -5 0 1 -7 14 -16
26 -18 46 -7 30 16 -9 13 -10 12 -5 -2 8 -27 -4 -22 -36 14 -15 17 -28 27 -28
20z"/>
<path d="M2370 1059 c0 -5 5 -7 10 -4 6 3 10 8 10 11 0 2 -4 4 -10 4 -5 0 -10
-5 -10 -11z"/>
<path d="M2408 1063 c6 -2 11 -8 9 -11 -1 -4 12 -21 30 -38 29 -28 34 -30 50
-18 17 13 17 14 0 8 -13 -5 -28 4 -51 30 -19 20 -38 36 -42 35 -5 0 -3 -3 4
-6z"/>
<path d="M2145 1050 c-3 -5 -2 -10 4 -10 5 0 13 5 16 10 3 6 2 10 -4 10 -5 0
-13 -4 -16 -10z"/>
<path d="M2345 1050 c-3 -5 -1 -10 4 -10 6 0 11 5 11 10 0 6 -2 10 -4 10 -3 0
-8 -4 -11 -10z"/>
<path d="M2393 1030 c1 -10 4 -18 7 -17 3 1 15 -8 27 -20 21 -21 21 -22 2 -28
-10 -4 -19 -11 -19 -17 0 -6 6 -6 15 2 13 10 19 9 36 -6 17 -16 19 -16 13 -1
-3 9 -10 17 -15 17 -5 0 -8 3 -8 8 3 19 -2 33 -11 27 -5 -3 -10 -1 -10 4 0 6
-9 20 -19 30 -19 19 -20 19 -18 1z"/>
<path d="M2192 1010 c-42 -40 -41 -52 0 -14 18 16 35 30 37 32 2 1 2 4 -1 7
-3 3 -19 -8 -36 -25z"/>
<path d="M2260 1030 c0 -5 5 -10 11 -10 5 0 7 5 4 10 -3 6 -8 10 -11 10 -2 0
-4 -4 -4 -10z"/>
<path d="M2360 1030 c-13 -8 -12 -10 3 -10 9 0 17 5 17 10 0 12 -1 12 -20 0z"/>
<path d="M2121 1003 c-10 -24 -9 -26 2 -11 11 14 16 15 27 5 11 -9 11 -8 0 8
-8 11 -15 21 -16 23 0 1 -6 -10 -13 -25z"/>
<path d="M2157 1019 c7 -7 15 -10 18 -7 3 3 -2 9 -12 12 -14 6 -15 5 -6 -5z"/>
<path d="M2294 1021 c4 -5 3 -11 -1 -14 -5 -2 -3 -2 4 -1 6 2 17 -4 23 -11 13
-16 -8 -53 -54 -92 -14 -13 -26 -28 -26 -34 0 -7 -9 -2 -20 11 -11 13 -20 19
-20 15 0 -5 7 -17 17 -27 15 -17 15 -19 0 -36 -10 -10 -17 -22 -17 -27 0 -4 9
2 20 15 11 13 20 27 20 31 0 5 11 -1 25 -13 29 -25 26 -35 -5 -18 -12 7 -20 8
-17 3 3 -5 -8 -18 -24 -28 -18 -12 -28 -27 -27 -39 4 -26 -29 -46 -42 -26 -7
10 -10 11 -10 2 0 -25 29 -23 64 3 l35 27 22 -21 c24 -22 45 -29 34 -11 -3 6
-1 10 4 10 6 0 11 5 11 11 0 8 -5 7 -15 -1 -13 -10 -19 -10 -34 4 -15 14 -24
15 -40 6 -27 -14 -27 0 0 23 20 18 21 17 38 -2 10 -12 22 -21 26 -21 5 0 -2
11 -15 25 -28 30 -13 34 20 5 13 -11 26 -20 30 -20 4 0 17 9 30 20 13 11 18
20 12 20 -6 0 -27 16 -48 35 -20 19 -39 33 -42 31 -6 -6 16 -27 51 -51 26 -16
27 -20 13 -34 -15 -14 -18 -14 -33 3 -17 17 -17 18 7 11 23 -6 22 -5 -5 13
-60 38 -62 48 -20 90 36 35 38 33 19 -14 -3 -6 4 -22 15 -35 11 -13 20 -18 21
-11 0 6 -5 12 -11 12 -5 0 -8 4 -5 9 4 5 1 11 -5 13 -14 5 2 39 32 72 21 22
24 36 8 36 -5 0 -8 -4 -5 -9 3 -4 -3 -16 -14 -26 -21 -19 -29 -8 -9 12 8 8 6
18 -7 37 -17 23 -43 38 -30 17z"/>
<path d="M2220 997 c-34 -29 -36 -67 -5 -90 19 -13 23 -14 19 -3 -3 8 -12 17
-20 20 -8 3 -14 10 -14 16 0 6 5 8 10 5 6 -3 10 -1 10 4 0 6 -5 11 -12 11 -6
0 -4 8 6 19 10 11 24 17 31 15 7 -3 16 -1 20 5 4 7 0 8 -11 4 -12 -4 -15 -3
-10 5 11 18 4 15 -24 -11z"/>
<path d="M2378 998 c5 -5 16 -8 23 -6 8 3 3 7 -10 11 -17 4 -21 3 -13 -5z"/>
<path d="M2270 981 c0 -6 -8 -8 -19 -6 -14 3 -18 -3 -18 -22 0 -25 0 -25 11
-7 6 11 21 20 35 19 13 0 25 6 27 13 1 7 0 8 -3 2 -2 -5 -9 -10 -14 -10 -6 0
-7 5 -4 10 3 6 1 10 -4 10 -6 0 -11 -4 -11 -9z"/>
<path d="M2130 972 c0 -5 11 -14 25 -20 15 -7 25 -8 25 -2 0 6 -7 10 -15 10
-8 0 -15 5 -15 10 0 6 -4 10 -10 10 -5 0 -10 -4 -10 -8z"/>
<path d="M2385 971 c3 -2 -7 -15 -21 -28 -14 -12 -21 -23 -15 -23 5 0 23 13
39 29 23 24 25 29 11 28 -10 -1 -16 -3 -14 -6z"/>
<path d="M2485 969 c-4 -6 -5 -12 -2 -15 2 -3 7 2 10 11 7 17 1 20 -8 4z"/>
<path d="M2116 947 c3 -10 9 -15 12 -12 3 3 0 11 -7 18 -10 9 -11 8 -5 -6z"/>
<path d="M2250 930 c-9 -16 -8 -18 5 -14 8 3 13 10 10 14 -3 5 3 11 12 13 16
4 17 5 1 6 -10 0 -22 -8 -28 -19z"/>
<path d="M2141 933 c-1 -6 4 -15 10 -19 8 -4 3 -12 -12 -21 l-24 -14 23 7 c22
5 23 4 12 -16 -6 -12 -8 -29 -4 -38 4 -9 6 -23 5 -30 -1 -7 7 -4 18 7 23 23
29 40 8 22 -16 -12 -27 -5 -27 18 0 14 2 14 11 1 8 -11 9 -9 3 10 l-6 25 26
-24 c14 -14 26 -21 26 -16 0 4 -10 16 -22 27 -25 22 -29 38 -13 51 6 5 3 7 -7
4 -9 -3 -19 -1 -22 6 -3 9 -5 9 -5 0z"/>
<path d="M2394 933 c4 -7 2 -13 -3 -13 -6 0 -11 -5 -11 -11 0 -8 4 -8 14 0 10
9 17 7 27 -6 12 -15 12 -16 -2 -11 -9 3 -22 2 -30 -4 -11 -8 -10 -9 4 -4 13 4
29 -4 53 -28 30 -30 36 -32 51 -20 16 13 16 13 1 8 -10 -3 -28 4 -45 20 -31
29 -21 35 16 10 26 -18 46 -7 30 16 -9 12 -10 12 -5 -3 4 -12 2 -17 -6 -15 -6
2 -12 12 -14 21 -2 18 -27 47 -40 47 -4 0 3 -11 16 -25 24 -25 13 -36 -12 -12
-27 25 -52 42 -44 30z"/>
<path d="M2494 931 c4 -5 1 -12 -4 -14 -6 -3 -5 -4 2 -3 15 3 23 26 8 26 -6 0
-9 -4 -6 -9z"/>
<path d="M2115 910 c-3 -5 -1 -10 4 -10 6 0 11 5 11 10 0 6 -2 10 -4 10 -3 0
-8 -4 -11 -10z"/>
<path d="M2330 902 c0 -5 7 -17 16 -28 15 -18 15 -18 5 2 -6 12 -7 24 -4 28 3
3 1 6 -5 6 -7 0 -12 -4 -12 -8z"/>
<path d="M2361 894 c0 -11 3 -14 6 -6 3 7 2 16 -1 19 -3 4 -6 -2 -5 -13z"/>
<path d="M2370 855 c0 -8 2 -15 4 -15 2 0 6 7 10 15 3 8 1 15 -4 15 -6 0 -10
-7 -10 -15z"/>
<path d="M2396 854 c-8 -20 -8 -24 2 -24 4 0 8 9 9 20 2 24 -3 26 -11 4z"/>
<path d="M2421 847 c0 -10 6 -20 14 -23 8 -4 13 -9 11 -13 -3 -4 4 -7 14 -8
18 -2 18 -1 2 16 -9 10 -20 16 -24 14 -3 -2 -9 5 -11 14 -4 17 -5 17 -6 0z"/>
<path d="M2350 840 c0 -5 9 -14 20 -20 11 -6 20 -9 20 -8 0 2 -9 11 -20 21
-11 9 -20 13 -20 7z"/>
<path d="M2125 810 c3 -5 8 -10 11 -10 2 0 4 5 4 10 0 6 -5 10 -11 10 -5 0 -7
-4 -4 -10z"/>
<path d="M2417 800 c10 -11 19 -20 21 -20 1 0 -2 9 -8 20 -6 11 -15 20 -20 20
-6 0 -2 -9 7 -20z"/>
<path d="M2494 806 c1 -8 5 -18 8 -22 4 -3 5 1 4 10 -1 8 -5 18 -8 22 -4 3 -5
-1 -4 -10z"/>
<path d="M2175 800 c-3 -5 -1 -10 4 -10 6 0 11 5 11 10 0 6 -2 10 -4 10 -3 0
-8 -4 -11 -10z"/>
<path d="M2117 789 c7 -7 15 -10 18 -7 3 3 -2 9 -12 12 -14 6 -15 5 -6 -5z"/>
<path d="M2380 790 c0 -5 7 -7 15 -4 8 4 15 8 15 10 0 2 -7 4 -15 4 -8 0 -15
-4 -15 -10z"/>
<path d="M2338 757 c-25 -28 -26 -32 -11 -54 8 -12 19 -23 25 -23 5 0 -1 10
-12 23 l-21 22 26 23 c15 12 25 26 23 31 -2 4 -15 -6 -30 -22z"/>
<path d="M2450 779 c0 -5 5 -7 10 -4 6 3 10 8 10 11 0 2 -4 4 -10 4 -5 0 -10
-5 -10 -11z"/>
<path d="M2142 773 c-10 -4 -9 -8 5 -19 22 -16 33 -18 33 -3 0 5 -4 8 -9 4 -5
-3 -12 -1 -15 4 -4 5 2 12 11 14 12 3 13 5 3 5 -8 0 -21 -2 -28 -5z"/>
<path d="M2390 770 c-12 -7 -10 -9 8 -7 12 0 22 5 22 9 0 11 -12 10 -30 -2z"/>
<path d="M2477 773 c-12 -11 -8 -23 7 -23 8 0 18 4 21 10 4 6 -1 7 -11 3 -12
-4 -15 -3 -10 5 8 13 3 16 -7 5z"/>
<path d="M2434 758 c3 -15 26 -23 26 -8 0 6 -4 9 -9 6 -5 -4 -12 -1 -14 4 -3
6 -4 5 -3 -2z"/>
<path d="M2117 730 c-3 -11 -1 -20 4 -20 5 0 9 9 9 20 0 11 -2 20 -4 20 -2 0
-6 -9 -9 -20z"/>
<path d="M2370 739 c0 -5 5 -7 10 -4 6 3 10 8 10 11 0 2 -4 4 -10 4 -5 0 -10
-5 -10 -11z"/>
<path d="M2408 743 c6 -2 11 -8 9 -11 -1 -4 12 -21 30 -38 29 -28 34 -30 50
-18 17 13 17 14 0 8 -13 -5 -28 4 -51 30 -19 20 -38 36 -42 35 -5 0 -3 -3 4
-6z"/>
<path d="M2212 722 c-12 -8 -22 -19 -22 -24 0 -5 10 0 22 12 20 18 23 19 40 3
10 -9 20 -14 23 -11 3 3 -5 12 -17 20 -21 14 -26 14 -46 0z"/>
<path d="M2345 730 c-3 -5 -1 -10 4 -10 6 0 11 5 11 10 0 6 -2 10 -4 10 -3 0
-8 -4 -11 -10z"/>
<path d="M2462 733 c-10 -4 -7 -9 8 -20 25 -18 45 -6 29 17 -9 12 -10 12 -5
-3 4 -12 2 -17 -6 -14 -7 2 -12 10 -10 16 1 6 1 11 0 10 -2 0 -9 -3 -16 -6z"/>
<path d="M2393 710 c1 -10 4 -18 7 -17 9 3 49 -41 43 -47 -4 -3 -1 -6 6 -6 8
0 11 6 7 16 -3 9 -6 18 -6 20 0 3 -4 2 -10 -1 -5 -3 -10 -1 -10 4 0 6 -9 20
-19 30 -19 19 -20 19 -18 1z"/>
<path d="M2360 710 c-13 -8 -12 -10 3 -10 9 0 17 5 17 10 0 12 -1 12 -20 0z"/>
<path d="M2230 700 c0 -5 5 -10 11 -10 5 0 7 5 4 10 -3 6 -8 10 -11 10 -2 0
-4 -4 -4 -10z"/>
<path d="M2295 701 c3 -5 0 -11 -7 -14 -7 -2 -5 -3 4 -2 20 3 42 -20 33 -35
-3 -5 -1 -10 4 -10 17 0 12 22 -8 48 -19 21 -38 31 -26 13z"/>
<path d="M2130 690 c0 -5 5 -10 10 -10 6 0 10 5 10 10 0 6 -4 10 -10 10 -5 0
-10 -4 -10 -10z"/>
<path d="M2165 690 c-3 -5 -1 -10 4 -10 6 0 11 5 11 10 0 6 -2 10 -4 10 -3 0
-8 -4 -11 -10z"/>
<path d="M2210 687 c0 -9 -6 -16 -12 -14 -7 1 -13 -5 -12 -13 1 -14 -24 -47
-27 -35 -5 20 -3 31 6 38 6 5 4 7 -5 4 -8 -2 -15 -8 -16 -13 -1 -17 -18 -49
-28 -56 -6 -4 3 -6 19 -4 23 3 37 -4 58 -26 16 -16 26 -32 23 -36 -4 -3 -15 4
-27 16 -11 13 -24 20 -29 17 -4 -3 -10 1 -13 7 -2 7 -8 9 -13 5 -9 -9 16 -28
27 -21 4 2 14 -5 21 -15 18 -25 57 -24 81 3 9 10 17 22 17 26 0 13 -40 53 -46
47 -4 -4 4 -15 17 -26 23 -19 23 -20 6 -39 -18 -20 -19 -20 -54 19 -32 36 -34
41 -21 57 9 9 13 23 10 31 -3 8 0 11 7 7 12 -8 28 21 17 31 -3 4 -6 -1 -6 -10z
m-50 -78 c0 -6 -4 -7 -10 -4 -5 3 -10 11 -10 16 0 6 5 7 10 4 6 -3 10 -11 10
-16z"/>
<path d="M2378 678 c5 -5 16 -8 23 -6 8 3 3 7 -10 11 -17 4 -21 3 -13 -5z"/>
<path d="M2117 659 c4 -13 8 -18 11 -10 2 7 -1 18 -6 23 -8 8 -9 4 -5 -13z"/>
<path d="M2238 673 c7 -3 16 -2 19 1 4 3 -2 6 -13 5 -11 0 -14 -3 -6 -6z"/>
<path d="M2270 665 c0 -5 5 -17 10 -25 5 -8 10 -10 10 -5 0 6 -5 17 -10 25 -5
8 -10 11 -10 5z"/>
<path d="M2295 660 c3 -5 8 -10 11 -10 2 0 4 5 4 10 0 6 -5 10 -11 10 -5 0 -7
-4 -4 -10z"/>
<path d="M2353 655 c0 -8 5 -11 10 -8 6 4 8 0 4 -10 -9 -24 0 -21 14 4 8 15 8
19 0 15 -6 -4 -11 -2 -11 3 0 6 -4 11 -8 11 -5 0 -9 -7 -9 -15z"/>
<path d="M2225 649 c4 -5 1 -9 -4 -9 -6 0 -11 -5 -11 -11 0 -8 5 -7 16 2 13
11 21 6 56 -30 22 -23 43 -40 45 -37 2 2 -14 22 -36 44 -22 22 -38 41 -36 44
2 2 -5 4 -16 5 -11 1 -17 -2 -14 -8z"/>
<path d="M2396 645 c-3 -8 -1 -15 4 -15 6 0 10 5 10 11 0 5 5 7 12 3 7 -4 8
-3 4 4 -10 16 -23 15 -30 -3z"/>
<path d="M2300 630 c0 -5 5 -10 11 -10 5 0 7 5 4 10 -3 6 -8 10 -11 10 -2 0
-4 -4 -4 -10z"/>
<path d="M2440 599 c-19 -21 -41 -39 -47 -39 -7 0 -13 -5 -13 -11 0 -5 3 -8 8
-6 4 3 23 -10 42 -29 19 -19 28 -34 21 -34 -7 0 -19 7 -27 15 -9 8 -20 15 -26
15 -6 0 -1 -9 12 -20 49 -43 76 -14 28 29 l-33 30 43 41 c23 22 42 42 42 45 0
13 -18 0 -50 -36z"/>
<path d="M2335 620 c3 -5 8 -10 11 -10 2 0 4 5 4 10 0 6 -5 10 -11 10 -5 0 -7
-4 -4 -10z"/>
<path d="M2411 613 c-5 -10 -23 -27 -40 -38 -17 -11 -31 -24 -31 -28 0 -5 4
-6 9 -3 5 4 11 3 14 -1 2 -5 2 -2 1 4 -2 7 13 24 34 38 20 14 32 25 27 26 -6
0 -1 4 10 9 17 7 17 9 3 9 -10 1 -22 -7 -27 -16z"/>
<path d="M2190 616 c0 -12 51 -58 57 -52 4 3 4 7 2 9 -2 1 -16 13 -31 26 -16
14 -28 21 -28 17z"/>
<path d="M2380 609 c0 -5 5 -7 10 -4 6 3 10 8 10 11 0 2 -4 4 -10 4 -5 0 -10
-5 -10 -11z"/>
<path d="M2315 600 c3 -5 8 -10 11 -10 2 0 4 5 4 10 0 6 -5 10 -11 10 -5 0 -7
-4 -4 -10z"/>
<path d="M2360 601 c0 -7 -4 -9 -10 -6 -5 3 -10 1 -10 -4 0 -6 4 -11 9 -11 13
0 25 20 17 27 -3 4 -6 1 -6 -6z"/>
<path d="M2465 583 c-3 -10 -1 -19 4 -21 6 -2 9 -7 6 -12 -7 -11 22 -7 32 5 4
4 3 5 -3 2 -7 -4 -18 1 -25 10 -12 15 -12 16 3 10 12 -4 15 -2 11 9 -7 19 -19
18 -28 -3z"/>
<path d="M2300 545 c10 -13 10 -19 -2 -33 -24 -27 -30 -42 -19 -42 6 0 11 5
11 10 0 6 9 20 20 32 21 23 27 44 10 33 -5 -3 -10 -1 -10 4 0 6 -5 11 -11 11
-8 0 -7 -5 1 -15z"/>
<path d="M2430 550 c0 -6 4 -9 9 -5 5 3 12 -2 14 -10 4 -12 5 -12 3 1 -1 19
-26 32 -26 14z"/>
<path d="M2136 525 c-4 -11 -4 -16 0 -13 4 4 15 3 25 -3 13 -6 19 -6 19 1 0 5
-6 10 -14 10 -8 0 -16 5 -18 12 -3 7 -7 4 -12 -7z"/>
<path d="M2263 517 c-11 -12 -18 -29 -15 -37 2 -8 1 -12 -3 -8 -5 5 -15 -1
-22 -12 -8 -11 -19 -18 -24 -15 -5 3 0 16 11 27 22 24 26 38 9 38 -5 0 -8 -4
-4 -9 3 -5 -5 -18 -18 -28 l-24 -18 25 -19 c14 -11 22 -14 18 -8 -4 6 5 18 19
28 14 9 24 22 22 28 -2 6 5 19 16 29 11 9 18 19 15 22 -2 3 -14 -5 -25 -18z"/>
<path d="M2335 520 c-3 -5 -1 -10 4 -10 6 0 11 5 11 10 0 6 -2 10 -4 10 -3 0
-8 -4 -11 -10z"/>
<path d="M2470 520 c0 -5 5 -10 10 -10 6 0 10 5 10 10 0 6 -4 10 -10 10 -5 0
-10 -4 -10 -10z"/>
<path d="M2370 500 c6 -11 15 -20 20 -20 6 0 2 9 -7 20 -10 11 -19 20 -21 20
-1 0 2 -9 8 -20z"/>
<path d="M2186 494 c-5 -13 -9 -14 -21 -4 -9 7 -17 11 -20 9 -2 -3 4 -10 15
-16 14 -10 21 -9 31 3 6 8 10 17 7 20 -3 3 -8 -3 -12 -12z"/>
<path d="M2320 490 c0 -5 5 -10 10 -10 6 0 10 5 10 10 0 6 -4 10 -10 10 -5 0
-10 -4 -10 -10z"/>
<path d="M1153 465 c-89 -45 -136 -157 -102 -240 7 -16 13 -33 14 -37 2 -5 4
-11 5 -15 1 -5 2 -12 1 -16 -1 -5 3 -6 8 -3 12 8 33 -18 23 -29 -4 -5 -2 -5 5
-2 6 4 18 0 27 -8 8 -9 18 -16 21 -15 24 1 35 -1 32 -7 -3 -5 18 -6 45 -4 40
2 49 0 42 -10 -6 -11 -5 -12 7 -3 17 14 542 17 534 4 -3 -5 -1 -12 5 -15 6 -4
9 -1 8 7 -2 10 17 13 84 13 47 0 84 3 81 8 -2 4 4 7 14 7 10 0 27 7 37 15 10
8 23 12 29 8 6 -3 7 -1 3 5 -3 6 4 18 16 27 13 8 23 19 24 23 0 4 6 25 12 47
7 22 12 54 12 71 0 74 -68 164 -137 183 -24 7 -184 11 -419 11 l-380 0 -51
-25z"/>
<path d="M2342 460 c-7 -12 -18 -18 -25 -14 -7 4 -9 4 -5 -1 4 -4 2 -17 -4
-29 -6 -11 6 -3 26 19 26 28 36 35 36 23 0 -10 -9 -23 -20 -30 -28 -18 -25
-27 8 -23 15 2 34 -2 42 -9 13 -10 13 -9 1 7 -9 12 -21 15 -35 11 -21 -7 -21
-6 -2 14 10 12 16 28 13 37 -9 21 -20 19 -35 -5z"/>
<path d="M2296 461 c-4 -5 3 -7 14 -4 23 6 26 13 6 13 -8 0 -17 -4 -20 -9z"/>
<path d="M2406 456 c10 -8 21 -12 24 -10 5 6 -21 24 -34 24 -6 0 -1 -6 10 -14z"/>
<path d="M2254 445 c-4 -8 -10 -12 -15 -9 -5 3 -9 0 -9 -5 0 -17 14 -13 33 9
9 11 12 20 7 20 -6 0 -13 -7 -16 -15z"/>
<path d="M2390 441 c0 -9 30 -24 36 -18 2 1 -6 8 -16 15 -11 7 -20 8 -20 3z"/>
<path d="M2270 436 c0 -2 7 -6 15 -10 8 -3 15 -1 15 4 0 6 -7 10 -15 10 -8 0
-15 -2 -15 -4z"/>
<path d="M2256 404 c-6 -15 -4 -15 11 -3 15 13 16 12 9 -6 -5 -15 -4 -17 5 -8
11 11 5 33 -11 33 -4 0 -11 -7 -14 -16z"/>
<path d="M1415 70 c-3 -5 -1 -10 4 -10 6 0 11 5 11 10 0 6 -2 10 -4 10 -3 0
-8 -4 -11 -10z"/>
<path d="M1655 70 c-3 -5 -1 -10 4 -10 6 0 11 5 11 10 0 6 -2 10 -4 10 -3 0
-8 -4 -11 -10z"/>
<path d="M1770 76 c0 -2 7 -7 16 -10 8 -3 12 -2 9 4 -6 10 -25 14 -25 6z"/>
</g>
</svg>
