<svg width="19" height="19" viewBox="0 0 19 19" fill="none" xmlns="http://www.w3.org/2000/svg">
<path d="M15.5436 11.7425C16.2124 11.661 17.6873 11.4857 17.9499 11.8239C18.2124 12.1559 17.6562 13.5528 17.4061 14.1728C17.3312 14.3608 17.4937 14.4359 17.6624 14.2919C18.7624 13.3648 19.0499 11.4292 18.8249 11.1474C18.5998 10.8719 16.6687 10.6338 15.4936 11.4606C15.3123 11.5921 15.3436 11.7676 15.5436 11.7425Z" fill="#FF9900"/>
<path d="M9.48149 15.131C12.0503 15.131 15.0377 14.3228 17.094 12.8008C17.4315 12.5503 17.1377 12.1682 16.794 12.3248C14.4877 13.3019 11.9815 13.778 9.70024 13.778C6.319 13.778 3.05024 12.8448 0.400377 11.3039C0.168957 11.166 -0.00596926 11.4041 0.187704 11.5795C2.63782 13.7968 5.8815 15.131 9.48149 15.131Z" fill="#FF9900"/>
<path d="M5.39969 7.95933C5.39969 8.19113 5.42465 8.37898 5.46835 8.51679C5.52391 8.67181 5.5908 8.82253 5.66848 8.96773C5.69964 9.01789 5.71218 9.06805 5.71218 9.11187C5.71218 9.17457 5.67469 9.23727 5.59337 9.29985L5.19969 9.56293C5.14345 9.60043 5.08708 9.6193 5.03717 9.6193C4.9746 9.6193 4.91215 9.58789 4.84971 9.53152C4.76544 9.44082 4.69007 9.34224 4.62462 9.23715C4.55474 9.11678 4.49008 8.99346 4.43082 8.86753C3.94341 9.44387 3.33085 9.73203 2.59339 9.73203C2.06836 9.73203 1.64973 9.58168 1.34345 9.2811C1.03717 8.98039 0.880859 8.57937 0.880859 8.0784C0.880859 7.54589 1.06833 7.11371 1.44959 6.78805C1.83086 6.46226 2.33715 6.29949 2.98099 6.29949C3.19341 6.29949 3.41217 6.31824 3.64346 6.34953C3.87463 6.38094 4.11213 6.43097 4.36217 6.48734V6.03007C4.36217 5.55406 4.2621 5.22207 4.0683 5.02789C3.86842 4.83371 3.53085 4.73985 3.04965 4.73985C2.83089 4.73985 2.60593 4.7648 2.37464 4.82117C2.14486 4.87606 1.91929 4.94725 1.69963 5.03422C1.62856 5.0661 1.55549 5.0933 1.48088 5.11567C1.43718 5.12808 1.40589 5.13441 1.38081 5.13441C1.29341 5.13441 1.24959 5.07184 1.24959 4.94023V4.63332C1.24959 4.53313 1.26225 4.45789 1.29341 4.41419C1.32457 4.37023 1.38081 4.32641 1.46834 4.28245C1.68709 4.16972 1.94967 4.07586 2.25583 4.00062C2.56211 3.9193 2.88726 3.88155 3.23091 3.88155C3.97469 3.88155 4.51835 4.05078 4.86833 4.38898C5.2121 4.72718 5.38715 5.24094 5.38715 5.92988V7.95933H5.39969ZM2.86218 8.91149C3.06839 8.91149 3.28094 8.87387 3.5059 8.79875C3.73086 8.72351 3.93087 8.5857 4.09959 8.39785C4.19965 8.27879 4.27464 8.14731 4.31213 7.99695C4.34963 7.8466 4.37458 7.66496 4.37458 7.45203V7.18895C4.18508 7.14275 3.99313 7.10722 3.79964 7.08255C3.60479 7.0577 3.40858 7.04509 3.21216 7.0448C2.7934 7.0448 2.48712 7.12625 2.28091 7.29535C2.07469 7.46457 1.97463 7.70258 1.97463 8.0157C1.97463 8.31007 2.04961 8.52933 2.20592 8.67969C2.35589 8.83625 2.57465 8.91149 2.86205 8.91149H2.86218ZM7.88084 9.58789C7.76836 9.58789 7.69337 9.56914 7.64334 9.52531C7.59343 9.48769 7.5496 9.39991 7.51211 9.28097L6.04341 4.43914C6.00592 4.31374 5.98717 4.23242 5.98717 4.18859C5.98717 4.0884 6.03708 4.03203 6.13715 4.03203H6.74958C6.86839 4.03203 6.94971 4.05078 6.99341 4.09461C7.04345 4.13223 7.08081 4.22001 7.11843 4.33895L8.1685 8.48551L9.14345 4.33895C9.17461 4.21355 9.2121 4.13223 9.26214 4.09461C9.31217 4.05699 9.39957 4.03203 9.51218 4.03203H10.0121C10.1309 4.03203 10.2121 4.05078 10.2622 4.09461C10.3122 4.13223 10.3559 4.22001 10.3809 4.33895L11.3684 8.53567L12.4497 4.33895C12.4871 4.21355 12.5308 4.13223 12.5746 4.09461C12.6246 4.05699 12.7058 4.03203 12.8184 4.03203H13.3996C13.4996 4.03203 13.5559 4.08207 13.5559 4.18859C13.5559 4.21988 13.5497 4.25117 13.5433 4.28879C13.5336 4.3422 13.5189 4.3946 13.4996 4.44535L11.9935 9.28743C11.9558 9.41271 11.9121 9.49403 11.8621 9.53165C11.8122 9.56927 11.7309 9.59435 11.6246 9.59435H11.0872C10.9683 9.59435 10.887 9.57547 10.8371 9.53165C10.7872 9.48782 10.7434 9.40637 10.7184 9.2811L9.74968 5.24107L8.78714 9.27489C8.75585 9.40017 8.71836 9.48161 8.66832 9.52544C8.61842 9.56927 8.53089 9.58801 8.41841 9.58801L7.88084 9.58789ZM15.9121 9.75711C15.5871 9.75711 15.2621 9.71949 14.9496 9.64438C14.6371 9.56914 14.3934 9.48769 14.2309 9.39371C14.1308 9.33734 14.0622 9.27464 14.0371 9.2184C14.0128 9.16309 14 9.10339 13.9996 9.04297V8.72351C13.9996 8.59203 14.0496 8.52933 14.1434 8.52933C14.1809 8.52933 14.2184 8.53567 14.2558 8.54808C14.2933 8.56075 14.3496 8.5857 14.4122 8.61078C14.6329 8.70805 14.8634 8.78151 15.0997 8.82991C15.3496 8.88007 15.5934 8.90515 15.8434 8.90515C16.2372 8.90515 16.5434 8.83625 16.7559 8.69843C16.9684 8.56062 17.0809 8.36023 17.0809 8.10335C17.0809 7.92805 17.0247 7.78403 16.9122 7.66496C16.7997 7.54589 16.5871 7.43949 16.2809 7.3393L15.3747 7.05734C14.9184 6.91332 14.5809 6.70039 14.3747 6.41843C14.1684 6.14281 14.0622 5.83589 14.0622 5.51023C14.0622 5.24715 14.1184 5.01535 14.2309 4.81496C14.3434 4.61457 14.4933 4.43914 14.6809 4.30133C14.8684 4.15731 15.0808 4.05078 15.3309 3.97567C15.5809 3.90043 15.8434 3.86914 16.1184 3.86914C16.2559 3.86914 16.3997 3.87547 16.5371 3.89422C16.6809 3.91297 16.8121 3.93805 16.9433 3.96313C17.0684 3.99441 17.1872 4.0257 17.2996 4.06319C17.4121 4.10094 17.4997 4.13843 17.5621 4.17605C17.6496 4.22621 17.7122 4.27625 17.7497 4.33261C17.7872 4.38277 17.8059 4.45168 17.8059 4.53933V4.83383C17.8059 4.96544 17.7559 5.03435 17.6622 5.03435C17.6121 5.03435 17.5309 5.00927 17.4247 4.95911C17.0683 4.79634 16.6683 4.71489 16.2246 4.71489C15.8684 4.71489 15.5871 4.77126 15.3934 4.8902C15.1996 5.00927 15.0997 5.19091 15.0997 5.44779C15.0997 5.62309 15.1621 5.77332 15.2872 5.89239C15.4122 6.01145 15.6434 6.13052 15.9746 6.23692L16.8621 6.51888C17.3122 6.6629 17.6371 6.86341 17.8309 7.12017C18.0247 7.37692 18.1184 7.67129 18.1184 7.99708C18.1184 8.26637 18.0622 8.51071 17.9559 8.72364C17.8434 8.93657 17.6935 9.12454 17.4997 9.27489C17.3059 9.43145 17.0747 9.54419 16.8059 9.62563C16.5247 9.71329 16.2308 9.75711 15.9121 9.75711Z" fill="#252F3E"/>
</svg>
