<svg width="55" height="53" viewBox="0 0 55 53" fill="none" xmlns="http://www.w3.org/2000/svg">
<rect x="0.445312" y="0.947266" width="53.693" height="51.4864" rx="7.3552" fill="white"/>
<path d="M44.9321 23.4719H43.2862C42.8579 23.4701 42.4397 23.3413 42.0846 23.1019C41.7294 22.8625 41.4533 22.5231 41.291 22.1267C41.1287 21.7303 41.0876 21.2947 41.1729 20.8749C41.2582 20.4552 41.4661 20.0702 41.7702 19.7686L42.918 18.6207C43.3238 18.2118 43.5514 17.6591 43.5514 17.0831C43.5514 16.507 43.3238 15.9543 42.918 15.5454L39.8644 12.4918C39.4555 12.0861 38.9028 11.8584 38.3267 11.8584C37.7507 11.8584 37.198 12.0861 36.7891 12.4918L35.6846 13.5963C35.4848 13.8168 35.2407 13.9925 34.9682 14.112C34.6958 14.2314 34.4011 14.2918 34.1036 14.2893C33.5292 14.2893 32.9784 14.0612 32.5722 13.655C32.1661 13.2489 31.9379 12.698 31.9379 12.1236V10.4777C31.9379 9.90333 31.7097 9.35248 31.3036 8.94633C30.8975 8.54018 30.3466 8.31201 29.7722 8.31201H25.4408C24.8664 8.31201 24.3156 8.54018 23.9094 8.94633C23.5033 9.35248 23.2751 9.90333 23.2751 10.4777V12.1236C23.2751 12.698 23.047 13.2489 22.6408 13.655C22.2347 14.0612 21.6838 14.2893 21.1094 14.2893C20.8119 14.2918 20.5173 14.2314 20.2448 14.112C19.9723 13.9925 19.7282 13.8168 19.5285 13.5963L18.424 12.4918C18.0151 12.0861 17.4624 11.8584 16.8863 11.8584C16.3103 11.8584 15.7576 12.0861 15.3487 12.4918L12.295 15.5454C11.8893 15.9543 11.6616 16.507 11.6616 17.0831C11.6616 17.6591 11.8893 18.2118 12.295 18.6207C12.7065 19.0322 13.1613 19.422 13.5511 19.8552C13.7337 20.0487 13.8756 20.2767 13.9686 20.5259C14.0616 20.7751 14.1037 21.0404 14.0926 21.3062C14.0926 21.8806 13.8644 22.4314 13.4582 22.8376C13.0521 23.2437 12.5012 23.4719 11.9269 23.4719H10.2809C9.70655 23.4719 9.1557 23.7001 8.74955 24.1062C8.34341 24.5124 8.11523 25.0632 8.11523 25.6376V29.969C8.11523 30.5434 8.34341 31.0942 8.74955 31.5004C9.1557 31.9065 9.70655 32.1347 10.2809 32.1347H11.9269C12.5012 32.1347 13.0521 32.3629 13.4582 32.769C13.8644 33.1752 14.0926 33.726 14.0926 34.3004C14.1037 34.5662 14.0616 34.8315 13.9686 35.0807C13.8756 35.3299 13.7337 35.5579 13.5511 35.7514C13.1613 36.1846 12.7065 36.5744 12.295 36.9859C11.8893 37.3948 11.6616 37.9475 11.6616 38.5235C11.6616 39.0996 11.8893 39.6523 12.295 40.0612L15.3487 43.1148C15.7576 43.5205 16.3103 43.7482 16.8863 43.7482C17.4624 43.7482 18.0151 43.5205 18.424 43.1148L19.5285 42.0103C19.7282 41.7898 19.9723 41.6141 20.2448 41.4947C20.5173 41.3752 20.8119 41.3148 21.1094 41.3173C21.6838 41.3173 22.2347 41.5454 22.6408 41.9516C23.047 42.3577 23.2751 42.9086 23.2751 43.483V45.1289C23.2751 45.7033 23.5033 46.2541 23.9094 46.6603C24.3156 47.0664 24.8664 47.2946 25.4408 47.2946H29.7722C30.3466 47.2946 30.8975 47.0664 31.3036 46.6603C31.7097 46.2541 31.9379 45.7033 31.9379 45.1289V43.483C31.9379 42.9086 32.1661 42.3577 32.5722 41.9516C32.9784 41.5454 33.5292 41.3173 34.1036 41.3173C34.4011 41.3148 34.6958 41.3752 34.9682 41.4947C35.2407 41.6141 35.4848 41.7898 35.6846 42.0103L36.7891 43.1148C37.198 43.5205 37.7507 43.7482 38.3267 43.7482C38.9028 43.7482 39.4555 43.5205 39.8644 43.1148L42.918 40.0612C43.3238 39.6523 43.5514 39.0996 43.5514 38.5235C43.5514 37.9475 43.3238 37.3948 42.918 36.9859L41.7702 35.838C41.4661 35.5364 41.2582 35.1514 41.1729 34.7317C41.0876 34.3119 41.1287 33.8763 41.291 33.4799C41.4533 33.0835 41.7294 32.7441 42.0846 32.5047C42.4397 32.2653 42.8579 32.1365 43.2862 32.1347H44.9321C45.5065 32.1347 46.0573 31.9065 46.4635 31.5004C46.8696 31.0942 47.0978 30.5434 47.0978 29.969V25.6376C47.0978 25.0632 46.8696 24.5124 46.4635 24.1062C46.0573 23.7001 45.5065 23.4719 44.9321 23.4719ZM27.6065 34.3004C26.3215 34.3004 25.0654 33.9193 23.9969 33.2054C22.9285 32.4915 22.0957 31.4768 21.604 30.2896C21.1122 29.1024 20.9836 27.7961 21.2343 26.5358C21.485 25.2755 22.1037 24.1178 23.0124 23.2092C23.921 22.3005 25.0787 21.6817 26.339 21.431C27.5993 21.1804 28.9057 21.309 30.0929 21.8008C31.28 22.2925 32.2948 23.1253 33.0087 24.1937C33.7226 25.2621 34.1036 26.5183 34.1036 27.8033C34.1036 29.5264 33.4191 31.179 32.2007 32.3974C30.9822 33.6159 29.3297 34.3004 27.6065 34.3004Z" fill="#1D4F97"/>
</svg>
