<svg width="55" height="53" viewBox="0 0 55 53" fill="none" xmlns="http://www.w3.org/2000/svg">
<rect x="0.989258" y="0.947266" width="53.693" height="51.4864" rx="7.3552" fill="white"/>
<path d="M35.7632 23.2608L38.6982 20.5182L31.6878 13.9675L28.7528 16.7101L21.0133 9.49555C19.5551 8.13299 17.1809 8.13299 15.7227 9.49555L12.1708 12.8146C10.7126 14.1771 10.7126 16.3956 12.1708 17.7582L19.8916 24.9727L11.0117 33.2878V39.8385H18.0221L26.9207 31.5235L34.6415 38.738C36.4175 40.3975 38.8104 39.7861 39.9321 38.738L43.484 35.419C44.9422 34.0564 44.9422 31.8379 43.484 30.4753L35.7632 23.2608ZM22.5649 22.4922L14.8254 15.2777L18.3586 11.9586L20.7328 14.1771L18.5269 16.2559L21.1628 18.719L23.3875 16.6402L26.0982 19.1732L22.5649 22.4922ZM37.2962 36.2749L29.5753 29.0604L33.1273 25.7414L35.838 28.2743L33.6133 30.3531L36.2493 32.8161L38.4739 30.7374L40.8481 32.9559L37.2962 36.2749Z" fill="#1D4F97"/>
<path d="M44.1161 15.4519C44.8452 14.7706 44.8452 13.6701 44.1161 12.9888L39.7416 8.90114C38.8629 8.08011 37.6478 8.39455 37.1057 8.90114L33.6846 12.0979L40.695 18.6486L44.1161 15.4519Z" fill="#1D4F97"/>
</svg>
