<svg width="19" height="19" viewBox="0 0 19 19" fill="none" xmlns="http://www.w3.org/2000/svg">
<path d="M3.44336 14.6064L3.5443 14.4657L8.30617 5.43238L8.31627 5.33679L6.21736 1.39429C6.17893 1.32219 6.11881 1.26401 6.0455 1.22796C5.97219 1.19191 5.8894 1.17983 5.80884 1.19342C5.72828 1.20701 5.65404 1.24558 5.59661 1.30369C5.53918 1.36179 5.50147 1.43648 5.48883 1.51719L3.44336 14.6064Z" fill="#FFC24A"/>
<path d="M3.50293 14.4992L3.57893 14.3508L8.29152 5.4113L6.19796 1.45336C6.16344 1.38453 6.10754 1.32874 6.03864 1.29435C5.96974 1.25995 5.89156 1.24881 5.81579 1.26258C5.74003 1.27636 5.67077 1.31431 5.61839 1.37076C5.56601 1.4272 5.53333 1.4991 5.52524 1.57568L3.50293 14.4992Z" fill="#FFA712"/>
<path d="M9.84729 8.31813L11.41 6.71501L9.8467 3.73379C9.81229 3.66963 9.76112 3.616 9.69865 3.57861C9.63618 3.54123 9.56473 3.52148 9.49193 3.52148C9.41912 3.52148 9.34768 3.54123 9.28521 3.57861C9.22274 3.616 9.17157 3.66963 9.13716 3.73379L8.30176 5.32623V5.4622L9.84729 8.31813Z" fill="#F4BD62"/>
<path d="M9.81859 8.25304L11.338 6.69742L9.81859 3.79992C9.79373 3.7372 9.75125 3.68301 9.69628 3.64389C9.64131 3.60477 9.57619 3.58239 9.50879 3.57944C9.44138 3.57649 9.37456 3.5931 9.31639 3.62727C9.25821 3.66144 9.21116 3.7117 9.18091 3.77201L8.34134 5.39235L8.31641 5.47489L9.81859 8.25304Z" fill="#FFA50E"/>
<path d="M3.44434 14.6066L3.49005 14.5603L3.65571 14.4932L9.74759 8.42388L9.82477 8.21369L8.30537 5.31738L3.44434 14.6066Z" fill="#F6820C"/>
<path d="M10.0411 17.6677L15.5559 14.5927L13.98 4.89613C13.9688 4.82777 13.9388 4.76385 13.8936 4.71138C13.8484 4.65891 13.7895 4.61993 13.7236 4.5987C13.6576 4.57747 13.5871 4.57483 13.5197 4.59106C13.4524 4.60728 13.3908 4.64176 13.3418 4.69069L3.44336 14.6063L8.92545 17.6671C9.09589 17.7622 9.28781 17.8121 9.48298 17.8121C9.67816 17.8121 9.87008 17.7622 10.0405 17.6671" fill="#FDE068"/>
<path d="M15.5056 14.5672L13.9428 4.94373C13.9401 4.87835 13.918 4.81525 13.8794 4.76244C13.8407 4.70962 13.7873 4.66945 13.7258 4.64701C13.6643 4.62457 13.5976 4.62087 13.534 4.63638C13.4705 4.65189 13.4129 4.68591 13.3687 4.73413L3.50293 14.588L8.92446 17.6161C9.09354 17.7105 9.28393 17.76 9.47754 17.76C9.67115 17.76 9.86154 17.7105 10.0306 17.6161L15.5056 14.5672Z" fill="#FCCA3F"/>
<path d="M10.0411 17.5748C9.87068 17.6699 9.67875 17.7198 9.48358 17.7198C9.28841 17.7198 9.09648 17.6699 8.92605 17.5748L3.48848 14.5597L3.44336 14.6061L8.92545 17.6668C9.09589 17.7619 9.28781 17.8119 9.48298 17.8119C9.67816 17.8119 9.87008 17.7619 10.0405 17.6668L15.5559 14.5924L15.5422 14.5093L10.0411 17.5748Z" fill="#EEAB37"/>
</svg>
