<svg width="56" height="50" viewBox="0 0 56 50" fill="none" xmlns="http://www.w3.org/2000/svg">
<path fill-rule="evenodd" clip-rule="evenodd" d="M10.2675 0C7.58815 0 5.01856 0.948731 3.12398 2.63748C1.2294 4.32624 0.165039 6.61667 0.165039 9.00493V40.5222C0.165039 42.9104 1.2294 45.2009 3.12398 46.8896C5.01856 48.5784 7.58815 49.5271 10.2675 49.5271H45.6261C48.3054 49.5271 50.875 48.5784 52.7696 46.8896C54.6642 45.2009 55.7285 42.9104 55.7285 40.5222V9.00493C55.7285 6.61667 54.6642 4.32624 52.7696 2.63748C50.875 0.948731 48.3054 0 45.6261 0H10.2675ZM35.4251 11.8753C35.5275 11.5882 35.5643 11.2858 35.5332 10.9859C35.5022 10.686 35.4039 10.3948 35.2443 10.1293C35.0846 9.86387 34.8669 9.62968 34.6039 9.4406C34.3409 9.25153 34.038 9.11141 33.7132 9.02855C33.3883 8.9457 33.0481 8.92178 32.7127 8.95822C32.3773 8.99466 32.0535 9.09072 31.7605 9.24071C31.4675 9.39069 31.2113 9.59156 31.0069 9.83141C30.8026 10.0713 30.6543 10.3452 30.5709 10.6371L20.4684 37.6519C20.366 37.9389 20.3293 38.2413 20.3603 38.5412C20.3914 38.8411 20.4897 39.1324 20.6493 39.3978C20.8089 39.6632 21.0267 39.8974 21.2897 40.0865C21.5527 40.2756 21.8556 40.4157 22.1804 40.4986C22.5052 40.5814 22.8454 40.6053 23.1808 40.5689C23.5162 40.5325 23.84 40.4364 24.133 40.2864C24.426 40.1364 24.6823 39.9356 24.8866 39.6957C25.091 39.4559 25.2392 39.1819 25.3227 38.89L35.4251 11.8753ZM17.1043 19.6015C17.5644 19.1769 17.819 18.6082 17.8132 18.018C17.8074 17.4277 17.5418 16.8631 17.0736 16.4457C16.6053 16.0283 15.9718 15.7915 15.3096 15.7864C14.6474 15.7812 14.0094 16.0082 13.5331 16.4182L5.95627 23.1719C5.48279 23.5941 5.2168 24.1666 5.2168 24.7636C5.2168 25.3605 5.48279 25.933 5.95627 26.3552L13.5331 33.1089C14.0094 33.519 14.6474 33.7459 15.3096 33.7407C15.9718 33.7356 16.6053 33.4989 17.0736 33.0815C17.5418 32.6641 17.8074 32.0994 17.8132 31.5092C17.819 30.9189 17.5644 30.3502 17.1043 29.9256L11.3131 24.7636L17.1043 19.6015ZM42.3605 16.4182C42.1275 16.2032 41.8488 16.0317 41.5406 15.9137C41.2325 15.7957 40.9011 15.7336 40.5658 15.731C40.2304 15.7285 39.8978 15.7854 39.5874 15.8986C39.2771 16.0118 38.9951 16.179 38.7579 16.3903C38.5208 16.6017 38.3333 16.8531 38.2063 17.1297C38.0793 17.4064 38.0154 17.7028 38.0183 18.0018C38.0212 18.3007 38.0909 18.5961 38.2232 18.8707C38.3556 19.1454 38.548 19.3938 38.7892 19.6015L44.5805 24.7636L38.7892 29.9256C38.3292 30.3502 38.0746 30.9189 38.0804 31.5092C38.0861 32.0994 38.3517 32.6641 38.82 33.0815C39.2883 33.4989 39.9217 33.7356 40.5839 33.7407C41.2461 33.7459 41.8841 33.519 42.3605 33.1089L49.9373 26.3552C50.4108 25.933 50.6768 25.3605 50.6768 24.7636C50.6768 24.1666 50.4108 23.5941 49.9373 23.1719L42.3605 16.4182Z" fill="white"/>
</svg>
