<svg width="27" height="27" viewBox="0 0 27 27" fill="none" xmlns="http://www.w3.org/2000/svg">
<path d="M16.6181 14.9807L15.8452 15.3612L15.9085 15.4135L16.1169 15.5789L18.2356 17.285C18.9134 17.8272 19.5994 18.3591 20.2935 18.8805C20.2876 18.9117 20.2842 18.9471 20.2842 18.9834C20.2842 18.9944 20.2842 19.0054 20.285 19.0163V19.0146L20.5593 18.9725L20.6681 19.1328L23.1108 20.6844C23.0728 20.8329 23.0517 21.0034 23.0517 21.1789C23.0517 21.5619 23.1546 21.9214 23.3344 22.2302L23.3293 22.22C24.0001 23.2359 24.9704 24.008 26.1128 24.4155L26.1516 24.4273C25.3391 22.3525 25.9314 20.6642 24.3274 20.0693C24.2152 20.0204 24.0853 19.9925 23.9478 19.9925C23.8465 19.9925 23.7486 20.0077 23.6575 20.0364L23.6643 20.0347L21.5059 18.0367L21.3228 17.9819L21.2967 17.706C21.2478 17.7254 21.2056 17.7465 21.1659 17.7701L21.1701 17.7676C20.8478 17.4934 20.4462 17.2014 20.0209 16.9086C18.5832 16.0286 17.6416 15.5376 16.6173 14.979L16.6181 14.9807ZM17.1986 14.8752C17.148 14.9309 17.094 14.9815 17.0366 15.0279L17.0341 15.0305L17.2551 15.152C17.2416 15.0473 17.2214 14.9537 17.1952 14.8626L17.1986 14.8752ZM8.48941 9.64058C8.0051 9.64649 7.61444 10.0405 7.61444 10.5265C7.61444 11.0159 8.01101 11.4125 8.50038 11.4125C8.98976 11.4125 9.38632 11.0159 9.38632 10.5265C9.38632 10.3595 9.33991 10.2034 9.25976 10.0709L9.26229 10.0751C9.10535 9.81355 8.82269 9.64143 8.50038 9.64143C8.49701 9.64143 8.49279 9.64143 8.48941 9.64143V9.64058ZM2.62788 9.51149H2.62957C2.63688 9.51149 2.6442 9.51149 2.65151 9.51149C2.65235 9.51149 2.6532 9.51149 2.65404 9.51149C2.93332 9.51149 3.18645 9.62286 3.37207 9.80427C3.55601 9.98399 3.66907 10.2337 3.66907 10.5113C3.66907 10.7889 3.55516 11.0387 3.37123 11.2184C3.18645 11.399 2.93248 11.5103 2.6532 11.5103C2.37391 11.5103 2.1191 11.3981 1.93432 11.2167C1.75123 11.037 1.63732 10.7864 1.63732 10.5096C1.63732 10.2371 1.74701 9.99074 1.92504 9.81186C2.1056 9.63046 2.35282 9.51655 2.62704 9.5098L2.62788 9.51149ZM14.1653 8.83733C13.3941 8.83733 12.7672 9.46255 12.7672 10.2346C12.7672 11.0066 13.3924 11.6318 14.1645 11.6318C14.9357 11.6318 15.5617 11.0066 15.5617 10.2346C15.5617 9.97808 15.4925 9.73677 15.3719 9.53005L15.3753 9.5368C15.1297 9.11577 14.68 8.83733 14.1662 8.83733H14.1653ZM8.07513 8.32939C8.09454 8.32855 8.11732 8.32855 8.1401 8.32855C9.18888 8.32855 10.0436 9.15964 10.0807 10.2V10.2034C10.0419 11.2454 9.1872 12.0756 8.13926 12.0756C8.11648 12.0756 8.0937 12.0756 8.07091 12.0748H8.07429C8.05488 12.0756 8.03295 12.0756 8.01016 12.0756C6.96223 12.0756 6.10835 11.2454 6.07123 10.2067V10.2034C6.10835 9.15964 6.96391 8.32771 8.01354 8.32771C8.03548 8.32771 8.05657 8.32771 8.07766 8.32855H8.07429L8.07513 8.32939ZM21.7743 2.57249C21.6629 2.55561 21.5338 2.68555 21.4325 2.99099C21.2672 3.48627 20.3011 6.36852 15.6292 7.5523C16.2536 8.07543 16.6502 8.85168 16.6586 9.72158V9.72327C16.5979 11.3677 15.2504 12.6772 13.5975 12.6772C13.562 12.6772 13.5258 12.6764 13.4903 12.6756H13.4954C13.4659 12.6764 13.4313 12.6772 13.3958 12.6772C11.7421 12.6772 10.3946 11.3677 10.3347 9.72918V9.72327C10.3372 9.07864 10.5574 8.48549 10.9245 8.01299L10.9194 8.01974C8.85729 7.73708 7.13604 6.49255 6.20201 4.76033L6.18513 4.72658L6.08388 9.11577C6.08726 9.17905 6.08979 9.2533 6.08979 9.32839C6.08979 9.87346 5.98348 10.3932 5.78941 10.8682L5.79954 10.8412L5.74638 10.7653C5.37007 10.2388 4.90095 9.80511 4.3601 9.47858L4.33901 9.46677C3.89013 9.18749 3.34507 9.02127 2.7612 9.02127C2.75445 9.02127 2.7477 9.02127 2.74095 9.02127C2.33932 9.02971 1.97145 9.15964 1.6677 9.37733L1.6736 9.37311C1.16482 9.78149 0.84082 10.4042 0.84082 11.102C0.84082 11.1517 0.842508 11.2007 0.845883 11.2496V11.2429C0.879633 12.1685 1.19688 13.0139 1.71241 13.7016L1.70398 13.6906C2.1326 14.2947 2.69116 14.7799 3.34001 15.1123L3.36532 15.1241C3.72223 15.3173 4.14663 15.4304 4.59804 15.4304C4.80223 15.4304 5.00051 15.4068 5.1912 15.3629L5.17348 15.3663C8.33332 17.7068 14.1164 19.7403 18.0694 17.3541L15.9347 15.6363C15.3803 15.7848 14.7433 15.8708 14.0869 15.8708C13.0819 15.8708 12.1234 15.6709 11.2493 15.3072L11.2983 15.3249C11.899 15.5232 12.59 15.6371 13.3072 15.6371C14.6513 15.6371 15.9026 15.2363 16.9472 14.5487L16.9227 14.5639C16.7143 14.3377 16.4662 14.1513 16.1886 14.0154L16.1743 14.0087C16.559 14.0939 16.8915 14.2778 17.1556 14.5326L17.1547 14.5318C17.2982 14.7157 17.3851 14.9495 17.3851 15.2034C17.3851 15.2093 17.3851 15.2152 17.3851 15.2211V15.2203C17.9681 15.5342 18.6321 15.9122 19.362 16.34C21.5338 14.1681 22.7918 10.0844 22.0189 3.03655C21.9818 2.75305 21.8848 2.58852 21.7734 2.5708L21.7743 2.57249Z" fill="black"/>
</svg>
