<svg width="20" height="20" viewBox="0 0 20 20" fill="none" xmlns="http://www.w3.org/2000/svg">
<path d="M1.61585 10.8833C1.12805 10.3954 1.12805 9.60456 1.61585 9.11675L9.11675 1.61585C9.60456 1.12805 10.3954 1.12805 10.8833 1.61585L18.3841 9.11675C18.8719 9.60456 18.8719 10.3954 18.3841 10.8833L10.8833 18.3841C10.3954 18.8719 9.60456 18.8719 9.11675 18.3841L1.61585 10.8833Z" fill="#EE513B"/>
<path d="M7.59257 3.16357L6.83301 3.92316L8.79482 5.88498C8.71545 6.05524 8.67113 6.24513 8.67113 6.44537C8.67113 7.01387 9.02832 7.49894 9.53051 7.68837V12.4875C9.02832 12.6769 8.67113 13.162 8.67113 13.7305C8.67113 14.464 9.26576 15.0586 9.99926 15.0586C10.7328 15.0586 11.3274 14.464 11.3274 13.7305C11.3274 13.2151 11.0338 12.7682 10.6048 12.5481V7.69494L12.4801 9.57025C12.4046 9.73706 12.3626 9.92225 12.3626 10.1172C12.3626 10.8507 12.9572 11.4454 13.6907 11.4454C14.4242 11.4454 15.0188 10.8507 15.0188 10.1172C15.0188 9.38375 14.4242 8.78912 13.6907 8.78912C13.5481 8.78912 13.4109 8.81156 13.2821 8.85312L11.2681 6.83906C11.3066 6.71469 11.3274 6.58244 11.3274 6.44537C11.3274 5.71186 10.7328 5.11724 9.99926 5.11724C9.8622 5.11724 9.73001 5.13801 9.60557 5.17656L7.59257 3.16357Z" fill="white"/>
</svg>
