<svg width="20" height="20" viewBox="0 0 20 20" fill="none" xmlns="http://www.w3.org/2000/svg">
<path d="M16.9306 9.86621C16.9306 9.43424 16.759 9.01996 16.4536 8.71451C16.1481 8.40906 15.7339 8.23746 15.3019 8.23746C15.2447 8.2374 15.1875 8.24032 15.1306 8.24621L17.3681 1.64746H7.86001L10.0944 8.24059C10.0619 8.24059 10.0288 8.23746 9.99564 8.23746C9.60669 8.23702 9.23042 8.37577 8.93489 8.62863C8.63936 8.88149 8.44407 9.23177 8.38434 9.6161C8.32461 10.0004 8.40439 10.3935 8.60925 10.7241C8.81411 11.0547 9.13052 11.3011 9.50126 11.4187C9.15479 12.0153 8.7234 12.5582 8.22064 13.0306C7.56618 13.6562 6.78864 14.1387 5.93751 14.4475C5.46064 14.2215 5.08768 13.8224 4.8944 13.3314C4.70112 12.8403 4.70201 12.2941 4.89689 11.8037C4.94501 11.6912 4.99376 11.5775 5.04001 11.4637C5.40317 11.3782 5.72598 11.1706 5.95449 10.8757C6.183 10.5808 6.30338 10.2164 6.29551 9.84335C6.28764 9.47035 6.152 9.11134 5.91125 8.82631C5.6705 8.54129 5.33923 8.34753 4.97278 8.2774C4.60634 8.20726 4.22693 8.26501 3.89795 8.44099C3.56897 8.61698 3.31035 8.90053 3.1653 9.24427C3.02025 9.58801 2.99757 9.97112 3.10103 10.3296C3.2045 10.688 3.42785 11.0001 3.73376 11.2137C3.21386 12.1564 2.81708 13.1619 2.55314 14.2056C2.33189 15.54 2.55314 16.9556 3.70626 17.7562C6.39376 19.6193 9.31189 16.6012 12.3881 15.8431C13.5031 15.5681 14.7269 15.6125 15.7088 15.0437C16.0635 14.8417 16.3694 14.564 16.6048 14.2305C16.8401 13.8969 16.9992 13.5156 17.0706 13.1137C17.136 12.7307 17.1237 12.3385 17.0344 11.9604C16.9452 11.5822 16.7809 11.2259 16.5513 10.9125C16.7963 10.6196 16.9304 10.2499 16.93 9.86809L16.9306 9.86621ZM11.625 9.87496V9.86934C11.6255 9.58905 11.5534 9.3134 11.4159 9.06918C11.2783 8.82496 11.0799 8.62047 10.84 8.47559L12.6175 4.87496L14.3988 8.50871C14.1753 8.65721 13.9921 8.85872 13.8655 9.09527C13.7388 9.33182 13.6728 9.59603 13.6731 9.86434C13.6731 9.87621 13.6731 9.88809 13.6731 9.89996L11.625 9.87496Z" fill="#C63D14"/>
<path d="M17.3291 9.86625C17.3285 9.39399 17.1632 8.93673 16.8616 8.57326C16.5601 8.20978 16.1413 7.96285 15.6772 7.875L17.9235 1.25H7.30599L9.55599 7.88813C9.16319 7.97592 8.80545 8.17875 8.52841 8.47073C8.25138 8.76271 8.06761 9.1306 8.00054 9.52747C7.93348 9.92434 7.98617 10.3322 8.15189 10.699C8.31761 11.0658 8.58885 11.3749 8.93099 11.5869C8.64835 12.0068 8.31964 12.3938 7.95099 12.7406C7.38035 13.2866 6.70977 13.7174 5.97599 14.0094C5.63163 13.8095 5.3706 13.4925 5.24049 13.1161C5.11039 12.7398 5.11988 12.3293 5.26724 11.9594L5.29224 11.9012L5.33849 11.7919C5.75505 11.6475 6.11319 11.3712 6.3587 11.005C6.60421 10.6388 6.72371 10.2026 6.6991 9.76243C6.67449 9.32224 6.50711 8.90206 6.22231 8.56551C5.93751 8.22897 5.5508 7.99439 5.12074 7.89731C4.69069 7.80022 4.24071 7.84592 3.83895 8.02747C3.43719 8.20903 3.10553 8.51655 2.8942 8.90348C2.68287 9.29041 2.60337 9.73566 2.66775 10.1718C2.73213 10.608 2.93688 11.0113 3.25099 11.3206C3.18349 11.465 3.11224 11.6113 3.03912 11.7619C2.63389 12.507 2.33914 13.307 2.16412 14.1369C1.87349 15.8869 2.34224 17.2888 3.48349 18.0794C4.09614 18.5175 4.83094 18.7521 5.58412 18.75C6.91662 18.75 8.26474 18.0806 9.58412 17.4256C10.506 16.9243 11.4785 16.5224 12.4854 16.2269C12.846 16.1381 13.2172 16.0844 13.6104 16.0275C14.4113 15.9635 15.1923 15.7453 15.9104 15.385C16.3153 15.1537 16.6645 14.8361 16.9331 14.4549C17.2017 14.0736 17.3832 13.638 17.4647 13.1788C17.5975 12.3986 17.4442 11.5967 17.0329 10.9206C17.2274 10.6032 17.3302 10.238 17.3297 9.86562L17.3291 9.86625ZM16.5335 9.86625C16.5335 10.1098 16.4613 10.3478 16.326 10.5503C16.1907 10.7528 15.9984 10.9106 15.7734 11.0038C15.5484 11.097 15.3009 11.1214 15.062 11.0738C14.8232 11.0263 14.6038 10.9091 14.4316 10.7369C14.2594 10.5647 14.1422 10.3453 14.0947 10.1065C14.0471 9.86762 14.0715 9.62005 14.1647 9.39507C14.2579 9.17009 14.4157 8.97779 14.6182 8.8425C14.8207 8.70721 15.0587 8.635 15.3022 8.635C15.6287 8.63533 15.9417 8.76516 16.1725 8.99599C16.4033 9.22682 16.5332 9.5398 16.5335 9.86625ZM16.8129 2.04563L14.8291 7.89563C14.7442 7.91618 14.6607 7.94227 14.5791 7.97375L12.6197 3.97375L10.6541 7.95C10.5685 7.92035 10.481 7.89654 10.3922 7.87875L8.41537 2.04563H16.8129ZM9.99599 8.635C10.2395 8.635 10.4776 8.70721 10.68 8.8425C10.8825 8.97779 11.0403 9.17009 11.1335 9.39507C11.2267 9.62005 11.2511 9.86762 11.2036 10.1065C11.1561 10.3453 11.0388 10.5647 10.8666 10.7369C10.6944 10.9091 10.475 11.0263 10.2362 11.0738C9.99736 11.1214 9.7498 11.097 9.52481 11.0038C9.29983 10.9106 9.10754 10.7528 8.97225 10.5503C8.83695 10.3478 8.76474 10.1098 8.76474 9.86625C8.76507 9.5398 8.8949 9.22682 9.12573 8.99599C9.35657 8.76516 9.66955 8.63533 9.99599 8.635ZM4.66974 8.64688C4.91337 8.647 5.15148 8.7194 5.35394 8.8549C5.5564 8.99041 5.71412 9.18293 5.80712 9.4081C5.90012 9.63328 5.92423 9.88098 5.8764 10.1199C5.82857 10.3587 5.71094 10.5781 5.53841 10.7501C5.36588 10.9221 5.1462 11.039 4.90717 11.0861C4.66814 11.1332 4.42051 11.1084 4.19562 11.0147C3.97074 10.921 3.77869 10.7627 3.64381 10.5598C3.50892 10.357 3.43725 10.1186 3.43787 9.875C3.4382 9.54855 3.56803 9.23557 3.79886 9.00474C4.02969 8.77391 4.34267 8.64408 4.66912 8.64375L4.66974 8.64688ZM16.6804 13.0431C16.6186 13.3876 16.4818 13.7144 16.2797 14.0001C16.0777 14.2859 15.8152 14.5238 15.511 14.6969C14.8798 15.0033 14.1963 15.1876 13.4966 15.24C13.1016 15.2969 12.6935 15.3556 12.2941 15.4544C11.231 15.7622 10.2042 16.1841 9.23162 16.7125C7.25412 17.6944 5.54412 18.5425 3.93662 17.4269C2.75724 16.6094 2.81162 15.0969 2.94912 14.2681C3.11093 13.5139 3.3808 12.7871 3.75037 12.11C3.80787 11.9919 3.86412 11.8756 3.91912 11.7606C4.087 11.8277 4.26317 11.8719 4.44287 11.8919C4.2838 12.4537 4.32824 13.0537 4.56837 13.586C4.8085 14.1183 5.22888 14.5487 5.75537 14.8012L5.90849 14.88L6.07037 14.8225C6.9733 14.4966 7.7982 13.9857 8.49224 13.3225C8.95069 12.8912 9.3534 12.4043 9.69099 11.8731C10.1229 11.9388 10.5646 11.8631 10.95 11.6572C11.3353 11.4514 11.6438 11.1265 11.8294 10.7309C12.015 10.3354 12.0677 9.8904 11.9797 9.46244C11.8917 9.03448 11.6676 8.64645 11.341 8.35625L12.6147 5.78062L13.9016 8.40563C13.5355 8.75849 13.3155 9.2362 13.2854 9.74382C13.2553 10.2514 13.4172 10.7518 13.7391 11.1455C14.061 11.5391 14.5192 11.7973 15.0227 11.8687C15.5261 11.94 16.038 11.8194 16.4566 11.5306C16.6887 11.9991 16.7664 12.529 16.6785 13.0444L16.6804 13.0431Z" fill="white"/>
</svg>
