<svg width="17" height="17" viewBox="0 0 17 17" fill="none" xmlns="http://www.w3.org/2000/svg">
<path d="M8.82905 15.9372L8.43008 15.805C8.43008 15.805 8.48321 13.7862 7.75274 13.6444C7.27462 13.0876 7.8234 -10.1243 9.57121 13.5652C9.23959 13.7334 8.98585 14.0233 8.86305 14.3743C8.79724 14.8927 8.78584 15.4165 8.82905 15.9372Z" fill="url(#paint0_linear_670_733)"/>
<path d="M9.04506 13.9876C10.1073 13.1879 10.9209 12.1032 11.3911 10.8595C11.8613 9.61581 11.9689 8.2642 11.7013 6.96178C10.9204 3.51663 9.07109 2.384 8.87188 1.95156C8.69999 1.68229 8.55328 1.39775 8.43359 1.10156L8.58075 10.7007C8.58075 10.7007 8.27581 13.6343 9.04506 13.9876Z" fill="url(#paint1_linear_670_733)"/>
<path d="M8.2288 14.1148C8.2288 14.1148 4.97702 11.9 5.16508 7.98203C5.18262 6.80087 5.45345 5.63724 5.95925 4.56972C6.46506 3.5022 7.19407 2.55566 8.09705 1.79403C8.20257 1.70438 8.28641 1.59198 8.34226 1.46528C8.39811 1.33858 8.42452 1.20087 8.41952 1.0625C8.62192 1.49812 8.58899 7.56659 8.61024 8.27634C8.69258 11.0372 8.45671 13.5936 8.2288 14.1148Z" fill="url(#paint2_linear_670_733)"/>
<defs>
<linearGradient id="paint0_linear_670_733" x1="6.14711" y1="8.63377" x2="10.7327" y2="10.1899" gradientUnits="userSpaceOnUse">
<stop offset="0.231" stop-color="#999875"/>
<stop offset="0.563" stop-color="#9B9977"/>
<stop offset="0.683" stop-color="#A09F7E"/>
<stop offset="0.768" stop-color="#A9A889"/>
<stop offset="0.837" stop-color="#B7B69A"/>
<stop offset="0.896" stop-color="#C9C7B0"/>
<stop offset="0.948" stop-color="#DEDDCB"/>
<stop offset="0.994" stop-color="#F8F6EB"/>
<stop offset="1" stop-color="#FBF9EF"/>
</linearGradient>
<linearGradient id="paint1_linear_670_733" x1="7.829" y1="1.03297" x2="9.85627" y2="13.6921" gradientUnits="userSpaceOnUse">
<stop stop-color="#48A547"/>
<stop offset="1" stop-color="#3F9143"/>
</linearGradient>
<linearGradient id="paint2_linear_670_733" x1="4.88536" y1="8.36986" x2="10.3257" y2="6.54789" gradientUnits="userSpaceOnUse">
<stop stop-color="#41A247"/>
<stop offset="0.352" stop-color="#4BA74B"/>
<stop offset="0.956" stop-color="#67B554"/>
<stop offset="1" stop-color="#69B655"/>
</linearGradient>
</defs>
</svg>
