<svg width="17" height="18" viewBox="0 0 17 18" fill="none" xmlns="http://www.w3.org/2000/svg">
<path d="M8.33489 17.9807C8.10138 17.9808 7.87197 17.9194 7.66972 17.8027L5.55307 16.5496C5.23718 16.3728 5.39111 16.3104 5.49558 16.2739C5.83155 16.1701 6.15323 16.0248 6.45314 15.8412C6.47825 15.8296 6.5059 15.8246 6.53348 15.8266C6.56107 15.8287 6.58767 15.8377 6.61078 15.8529L8.23721 16.8192C8.2675 16.8352 8.30124 16.8436 8.33551 16.8436C8.36977 16.8436 8.40351 16.8352 8.4338 16.8192L14.7763 13.1583C14.806 13.1405 14.8306 13.1153 14.8476 13.0852C14.8646 13.0551 14.8735 13.021 14.8734 12.9864V5.66345C14.8734 5.62831 14.8644 5.59375 14.8472 5.5631C14.83 5.53246 14.8051 5.50677 14.7751 5.48851L8.43256 1.83073C8.40265 1.81388 8.3689 1.80503 8.33458 1.80503C8.30025 1.80503 8.26651 1.81388 8.2366 1.83073L1.89776 5.48974C1.86752 5.50763 1.84242 5.53301 1.82487 5.56345C1.80733 5.59388 1.79794 5.62833 1.79762 5.66345V12.9833C1.7977 13.0179 1.80696 13.0517 1.82445 13.0815C1.84194 13.1113 1.86703 13.1358 1.89714 13.1527L3.63671 14.1567C4.57943 14.6277 5.15682 14.0726 5.15682 13.515V6.28782C5.15682 6.26346 5.16161 6.23935 5.17093 6.21685C5.18025 6.19435 5.19391 6.1739 5.21113 6.15668C5.22835 6.13946 5.2488 6.1258 5.2713 6.11648C5.2938 6.10716 5.31792 6.10236 5.34227 6.10236H6.14591C6.19509 6.10236 6.24226 6.1219 6.27704 6.15668C6.31182 6.19146 6.33136 6.23863 6.33136 6.28782V13.5156C6.33136 14.7736 5.64642 15.4938 4.45332 15.4938C3.93861 15.5027 3.43197 15.3651 2.99256 15.0969L1.32532 14.1406C1.12292 14.0227 0.954982 13.8538 0.838264 13.6508C0.721545 13.4477 0.660134 13.2176 0.660161 12.9833V5.66345C0.659559 5.42887 0.72071 5.19826 0.83747 4.9948C0.954229 4.79134 1.12248 4.62219 1.32532 4.50436L7.66849 0.842253C7.87281 0.730465 8.10198 0.671875 8.33489 0.671875C8.5678 0.671875 8.79696 0.730465 9.00129 0.842253L15.3438 4.50436C15.5462 4.622 15.7142 4.79065 15.831 4.9935C15.9478 5.19634 16.0094 5.42628 16.0096 5.66036V12.9833C16.0093 13.2176 15.9476 13.4476 15.8308 13.6506C15.714 13.8536 15.5461 14.0226 15.3438 14.1406L9.00129 17.8027C8.79867 17.9196 8.56881 17.981 8.33489 17.9807V17.9807Z" fill="#83CD29"/>
<path d="M7.13184 10.5334C7.13184 10.4842 7.15137 10.437 7.18615 10.4022C7.22093 10.3675 7.26811 10.3479 7.31729 10.3479H8.13762C8.18145 10.3481 8.22381 10.3637 8.2572 10.3921C8.29058 10.4205 8.31282 10.4598 8.31998 10.5031C8.44362 11.3382 8.81453 11.7592 10.4917 11.7592C11.8275 11.7592 12.3969 11.4569 12.3969 10.7479C12.3969 10.3393 12.2355 10.0357 10.1591 9.83236C8.42322 9.6605 7.35005 9.27599 7.35005 7.88879C7.35005 6.60916 8.42878 5.8457 10.237 5.8457C12.2689 5.8457 13.2747 6.55105 13.4021 8.06436C13.404 8.08962 13.4007 8.11502 13.3925 8.13898C13.3842 8.16294 13.3712 8.18495 13.3541 8.20366C13.337 8.22237 13.3163 8.23738 13.2931 8.24776C13.27 8.25815 13.245 8.26368 13.2197 8.26403H12.3938C12.3524 8.26345 12.3123 8.24901 12.2801 8.22302C12.2478 8.19702 12.2252 8.16097 12.2158 8.12061C12.0186 7.24218 11.5358 6.96152 10.2376 6.96152C8.77867 6.96152 8.60929 7.46967 8.60929 7.85047C8.60929 8.31163 8.80958 8.44639 10.7791 8.70665C12.7282 8.96443 13.6543 9.32916 13.6543 10.699C13.6543 12.0813 12.502 12.8726 10.4923 12.8726C7.71355 12.8763 7.13184 11.6022 7.13184 10.5334V10.5334Z" fill="#83CD29"/>
</svg>
