<svg width="16" height="15" viewBox="0 0 16 15" fill="none" xmlns="http://www.w3.org/2000/svg">
<path d="M13.0422 5.11778C12.883 5.06298 12.718 5.01112 12.5481 4.96208C12.576 4.84812 12.6016 4.73563 12.6244 4.62506C12.9985 2.80945 12.7539 1.34677 11.9188 0.865196C11.1181 0.40343 9.80851 0.884895 8.48591 2.03591C8.35873 2.14659 8.23119 2.26377 8.10371 2.38659C8.01876 2.30533 7.93396 2.22681 7.84937 2.1517C6.46325 0.92096 5.07388 0.40231 4.23961 0.885278C3.43963 1.34838 3.20272 2.72344 3.53941 4.44411C3.57192 4.61031 3.60992 4.78003 3.6529 4.9526C3.45626 5.00842 3.26643 5.06792 3.0848 5.13123C1.45972 5.6978 0.421875 6.58576 0.421875 7.50681C0.421875 8.45807 1.536 9.4122 3.22865 9.99074C3.36222 10.0364 3.50083 10.0796 3.64367 10.1205C3.5973 10.3072 3.55697 10.4901 3.52312 10.6685C3.20209 12.3593 3.45279 13.7018 4.25065 14.162C5.07476 14.6373 6.45784 14.1488 7.80462 12.9715C7.91106 12.8785 8.01789 12.7798 8.12491 12.6763C8.26362 12.8099 8.40212 12.9363 8.53987 13.0549C9.84438 14.1775 11.1328 14.6308 11.9299 14.1693C12.7532 13.6927 13.0208 12.2505 12.6734 10.4958C12.6469 10.3617 12.616 10.2248 12.5813 10.0855C12.6784 10.0568 12.7738 10.0271 12.8668 9.99632C14.6264 9.4133 15.7713 8.47077 15.7713 7.50681C15.7713 6.58243 14.7 5.68848 13.0422 5.11778V5.11778ZM12.6606 9.3739C12.5766 9.40168 12.4905 9.42854 12.4027 9.45458C12.2085 8.83959 11.9463 8.18564 11.6255 7.51C11.9316 6.85045 12.1837 6.20487 12.3725 5.59387C12.5295 5.6393 12.6819 5.68723 12.8288 5.7378C14.2492 6.22678 15.1156 6.94974 15.1156 7.50681C15.1156 8.10018 14.1799 8.87047 12.6606 9.3739ZM12.0301 10.6231C12.1837 11.399 12.2057 12.1005 12.1039 12.6489C12.0125 13.1417 11.8287 13.4703 11.6013 13.6018C11.1176 13.8818 10.0831 13.5179 8.96751 12.5578C8.83962 12.4478 8.7108 12.3303 8.58157 12.2059C9.01407 11.7329 9.44633 11.183 9.86821 10.5723C10.6102 10.5064 11.3113 10.3988 11.947 10.2518C11.9784 10.3781 12.0062 10.502 12.0301 10.6231V10.6231ZM5.65485 13.5535C5.18224 13.7204 4.80583 13.7251 4.57829 13.5939C4.09412 13.3147 3.89284 12.2367 4.1674 10.7908C4.19884 10.6252 4.23628 10.455 4.27942 10.2812C4.9082 10.4202 5.60412 10.5203 6.34793 10.5806C6.77264 11.1782 7.21739 11.7275 7.66558 12.2085C7.56765 12.303 7.47011 12.393 7.37312 12.4778C6.77759 12.9984 6.1808 13.3677 5.65485 13.5535V13.5535ZM3.44072 9.37026C2.69226 9.11445 2.07416 8.78197 1.65048 8.41916C1.26978 8.09313 1.07757 7.76945 1.07757 7.50681C1.07757 6.94788 1.91086 6.23497 3.30064 5.75042C3.46927 5.69162 3.6458 5.63622 3.82899 5.58417C4.02106 6.20896 4.27302 6.8622 4.57709 7.52276C4.26909 8.19313 4.01355 8.85678 3.81959 9.48889C3.68899 9.45135 3.56246 9.41185 3.44072 9.37026V9.37026ZM4.18292 4.31818C3.89445 2.84395 4.08603 1.73184 4.56813 1.45278C5.08164 1.15549 6.21716 1.57936 7.41397 2.64204C7.49047 2.70997 7.56727 2.78106 7.64429 2.85461C7.19832 3.33348 6.75764 3.87866 6.3367 4.47274C5.6148 4.53965 4.92377 4.64714 4.28843 4.79107C4.24849 4.63039 4.21311 4.47253 4.18292 4.31818ZM10.804 5.9531C10.6521 5.69075 10.4962 5.43461 10.3372 5.18546C10.827 5.24737 11.2962 5.32956 11.7368 5.43013C11.6045 5.85411 11.4396 6.2974 11.2456 6.75185C11.1063 6.48751 10.9591 6.22099 10.804 5.9531V5.9531ZM8.10393 3.32323C8.40638 3.6509 8.70927 4.01674 9.00719 4.41367C8.70697 4.39949 8.40305 4.39212 8.0966 4.39212C7.79306 4.39212 7.49137 4.39933 7.19302 4.41326C7.49123 4.02002 7.79675 3.65467 8.10393 3.32323ZM5.38658 5.95763C5.23486 6.22071 5.09033 6.48579 4.95328 6.75136C4.76233 6.2985 4.59897 5.85318 4.46553 5.42319C4.90347 5.32518 5.37049 5.24505 5.85712 5.18431C5.69592 5.43576 5.53871 5.69378 5.38658 5.95758V5.95763ZM5.87113 9.87607C5.36836 9.81998 4.89432 9.74397 4.45649 9.64867C4.59206 9.211 4.75902 8.75618 4.95402 8.29356C5.09142 8.55894 5.23653 8.82413 5.38917 9.08778H5.3892C5.54469 9.35638 5.70578 9.61949 5.87113 9.87607V9.87607ZM8.12207 11.7366C7.81128 11.4013 7.50129 11.0304 7.19854 10.6314C7.49244 10.6429 7.79208 10.6488 8.0966 10.6488C8.40947 10.6488 8.71875 10.6418 9.02317 10.6282C8.72427 11.0344 8.42247 11.4059 8.12207 11.7366V11.7366ZM11.2518 8.26999C11.457 8.7376 11.6299 9.19005 11.7672 9.62026C11.3222 9.72179 10.8417 9.80356 10.3354 9.86432C10.4948 9.61182 10.652 9.35127 10.8066 9.08327C10.963 8.81213 11.1114 8.54058 11.2518 8.26999ZM10.2386 8.75569C9.99867 9.17172 9.75233 9.56887 9.50226 9.94375C9.04678 9.97632 8.57621 9.99309 8.0966 9.99309C7.61894 9.99309 7.1543 9.97826 6.70688 9.94921C6.44672 9.56941 6.19503 9.17109 5.95662 8.75927H5.95668C5.71889 8.34856 5.50005 7.93439 5.30174 7.52254C5.49999 7.10974 5.71827 6.6951 5.95468 6.28514L5.95463 6.28522C6.19167 5.87416 6.44115 5.47778 6.6989 5.10035C7.15539 5.06585 7.6235 5.04784 8.09658 5.04784H8.0966C8.57181 5.04784 9.04052 5.06598 9.49688 5.10079C9.75069 5.47545 9.99848 5.87056 10.2364 6.28167C10.4771 6.6974 10.6982 7.10927 10.8982 7.51323C10.6988 7.92412 10.4782 8.34015 10.2386 8.75569V8.75569ZM11.5913 1.43327C12.1053 1.72969 12.3052 2.92513 11.9822 4.49272C11.9616 4.59274 11.9384 4.69462 11.9132 4.79787C11.2764 4.65094 10.5849 4.54159 9.86091 4.47367C9.43914 3.87306 9.00208 3.32703 8.56337 2.85431C8.68132 2.74084 8.7991 2.63265 8.9164 2.53054C10.0496 1.54436 11.1087 1.155 11.5913 1.43327V1.43327ZM8.0966 6.13615C8.85358 6.13615 9.46726 6.7498 9.46726 7.50681C9.46726 8.26378 8.85358 8.87746 8.0966 8.87746C7.33963 8.87746 6.72595 8.26378 6.72595 7.50681C6.72595 6.7498 7.33963 6.13615 8.0966 6.13615V6.13615Z" fill="#00D8FF"/>
</svg>
