<svg width="17" height="17" viewBox="0 0 17 17" fill="none" xmlns="http://www.w3.org/2000/svg">
<path d="M11.609 11.4233C10.4476 13.7451 8.4138 15.3072 5.72313 15.8207C5.31058 15.9196 4.88706 15.9679 4.46232 15.9646C2.91374 15.9646 1.4942 15.3337 0.80508 14.3003C-0.1202 12.9236 -0.435079 10.0051 2.61563 7.84611C2.67758 8.17544 2.80405 8.62717 2.88793 8.89467C2.28905 9.3297 1.79886 9.89184 1.4542 10.5388C0.886381 11.629 0.949615 12.718 1.62196 13.7249C2.08653 14.4037 2.82211 14.8163 3.76804 14.9425C4.94953 15.0887 6.14813 14.868 7.19429 14.3116C8.8345 13.4687 9.92754 12.4618 10.6425 11.0852C10.4403 10.8809 10.3207 10.612 10.3057 10.3281C10.2948 10.0235 10.4081 9.7271 10.6205 9.50402C10.8329 9.28095 11.1272 9.14938 11.4387 9.1382H11.4826C11.7856 9.13672 12.0776 9.24918 12.2981 9.45233C12.5187 9.65547 12.6509 9.93375 12.6675 10.2296C12.6841 10.5254 12.5837 10.8161 12.3872 11.0416C12.1907 11.2671 11.913 11.4101 11.6116 11.441L11.609 11.4233ZM15.3089 8.87448C16.8846 10.6208 16.9271 12.6763 16.318 13.8687C15.7502 14.9577 14.2533 16.0479 12.2401 16.0479C11.3003 16.0291 10.3758 15.8117 9.53007 15.4107C9.82559 15.205 10.245 14.8757 10.476 14.67C11.1282 14.9462 11.8301 15.0929 12.5408 15.1015C13.8442 15.1015 14.8314 14.5059 15.4199 13.417C15.798 12.6978 15.8199 11.8549 15.4624 10.9918C15.0238 9.90587 14.2433 8.98449 13.2338 8.36093C11.9093 7.48793 10.3479 7.02254 8.75061 7.02467H8.3725C8.28433 7.22381 8.14089 7.39484 7.95843 7.51839C7.77597 7.64194 7.56178 7.71306 7.34011 7.72371H7.30011C6.99351 7.72003 6.70046 7.59962 6.48319 7.38806C6.26593 7.17651 6.14157 6.89047 6.13653 6.5907C6.13149 6.29093 6.24617 6.00105 6.4562 5.78263C6.66624 5.5642 6.95508 5.43444 7.26139 5.42091H7.30398C7.51743 5.42106 7.72671 5.47873 7.90884 5.58758C8.09097 5.69643 8.23889 5.85226 8.33637 6.03793H8.67319C11.3574 6.03793 13.7138 7.04486 15.3089 8.87448V8.87448ZM4.63009 11.7766C4.60799 11.5671 4.6599 11.3565 4.7772 11.1798C3.60028 9.18615 2.97052 6.65874 3.93709 4.02787C4.63009 2.05061 6.37483 0.714355 8.26668 0.714355C10.285 0.714355 12.3872 2.44177 12.6389 5.77043C12.324 5.66822 11.8646 5.51807 11.5884 5.46255C11.52 4.3736 10.5792 1.66071 8.35056 1.70109C7.55175 1.72254 6.37483 2.09225 5.76959 2.85186C5.02093 3.75862 4.5854 4.87404 4.52556 6.03793C4.38369 7.63384 4.76663 9.23235 5.6186 10.6006C5.66563 10.5838 5.71577 10.577 5.76572 10.5804H5.80701C6.11915 10.5749 6.42075 10.6909 6.64546 10.9028C6.87017 11.1147 6.99958 11.4052 7.00523 11.7104C7.01088 12.0156 6.8923 12.3105 6.67557 12.5302C6.45885 12.7499 6.16174 12.8765 5.8496 12.882H5.80701C5.5025 12.8809 5.21014 12.765 4.99089 12.5584C4.77163 12.3518 4.64238 12.0704 4.63009 11.7729V11.7766Z" fill="#764ABC"/>
</svg>
