<svg width="17" height="17" viewBox="0 0 17 17" fill="none" xmlns="http://www.w3.org/2000/svg">
<g clip-path="url(#clip0_670_725)">
<path d="M12.75 11.1562V4.78125H11.6875V12.2188H15.9375V11.1562H12.75Z" fill="black"/>
<path d="M9.5625 4.78125H7.4375C7.15571 4.78125 6.88546 4.89319 6.6862 5.09245C6.48694 5.29171 6.375 5.56196 6.375 5.84375V11.1562C6.375 11.438 6.48694 11.7083 6.6862 11.9076C6.88546 12.1068 7.15571 12.2188 7.4375 12.2188H7.96875V13.2812C7.96875 13.563 8.08069 13.8333 8.27995 14.0326C8.47921 14.2318 8.74946 14.3438 9.03125 14.3438H10.0938V13.2812H9.03125V12.2188H9.5625C9.84429 12.2188 10.1145 12.1068 10.3138 11.9076C10.5131 11.7083 10.625 11.438 10.625 11.1562V5.84375C10.625 5.56196 10.5131 5.29171 10.3138 5.09245C10.1145 4.89319 9.84429 4.78125 9.5625 4.78125ZM7.4375 11.1562V5.84375H9.5625V11.1562H7.4375Z" fill="black"/>
<path d="M4.25 12.2188H1.0625V11.1562H4.25V9.03125H2.125C1.84321 9.03125 1.57296 8.91931 1.3737 8.72005C1.17444 8.52079 1.0625 8.25054 1.0625 7.96875V5.84375C1.0625 5.56196 1.17444 5.29171 1.3737 5.09245C1.57296 4.89319 1.84321 4.78125 2.125 4.78125H5.3125V5.84375H2.125V7.96875H4.25C4.53179 7.96875 4.80204 8.08069 5.0013 8.27995C5.20056 8.47921 5.3125 8.74946 5.3125 9.03125V11.1562C5.3125 11.438 5.20056 11.7083 5.0013 11.9076C4.80204 12.1068 4.53179 12.2188 4.25 12.2188Z" fill="black"/>
</g>
<defs>
<clipPath id="clip0_670_725">
<rect width="17" height="17" fill="white"/>
</clipPath>
</defs>
</svg>
