<svg width="51" height="55" viewBox="0 0 51 55" fill="none" xmlns="http://www.w3.org/2000/svg">
<path d="M1 4V47.7716C1 49.8381 3.04053 51.2858 4.99105 50.6031L10.0326 48.8386C10.6597 48.6191 11.342 48.614 11.9723 48.8241L20.5017 51.6672C21.1479 51.8826 21.8482 51.8717 22.4875 51.6362L29.9889 48.8725C30.6425 48.6317 31.3596 48.6259 32.0171 48.856L37.0089 50.6031C38.9595 51.2858 41 49.8381 41 47.7716V4C41 2.34315 39.6569 1 38 1H4C2.34315 1 1 2.34315 1 4Z" fill="#F8F8F8" stroke="#CECECE" stroke-width="2"/>
<rect x="7" y="7" width="22" height="2.53846" rx="1.26923" fill="#CECECE"/>
<rect x="7" y="13" width="16.0769" height="2.53846" rx="1.26923" fill="#CECECE"/>
<rect x="7" y="19" width="16.0769" height="2.53846" rx="1.26923" fill="#CECECE"/>
<circle cx="36" cy="39.5" r="15" fill="#428b68"/>
<path d="M35.3313 50.0909V29.1818H36.6708V50.0909H35.3313ZM39.8398 35.4545C39.7418 34.6269 39.3443 33.9844 38.6473 33.527C37.9504 33.0696 37.0955 32.8409 36.0827 32.8409C35.3422 32.8409 34.6942 32.9607 34.1388 33.2003C33.5889 33.4399 33.1587 33.7693 32.8483 34.1886C32.5434 34.6078 32.3909 35.0843 32.3909 35.6179C32.3909 36.0644 32.4971 36.4483 32.7095 36.7695C32.9273 37.0853 33.205 37.3494 33.5426 37.5618C33.8802 37.7687 34.2341 37.9402 34.6044 38.0763C34.9746 38.207 35.3149 38.3132 35.6253 38.3949L37.3242 38.8523C37.7598 38.9666 38.2444 39.1245 38.778 39.326C39.3171 39.5275 39.8316 39.8024 40.3217 40.1509C40.8172 40.494 41.2256 40.935 41.5468 41.4741C41.8681 42.0131 42.0287 42.6747 42.0287 43.4588C42.0287 44.3627 41.7919 45.1795 41.3181 45.9091C40.8499 46.6387 40.1638 47.2186 39.2599 47.6488C38.3615 48.079 37.2697 48.294 35.9847 48.294C34.7868 48.294 33.7495 48.1007 32.8728 47.7141C32.0016 47.3275 31.3155 46.7885 30.8146 46.0969C30.3191 45.4054 30.0387 44.6023 29.9733 43.6875H32.0642C32.1187 44.3191 32.331 44.8419 32.7013 45.2557C33.077 45.6641 33.5507 45.969 34.1225 46.1705C34.6996 46.3665 35.3204 46.4645 35.9847 46.4645C36.7579 46.4645 37.4521 46.3393 38.0674 46.0888C38.6827 45.8329 39.1701 45.4789 39.5294 45.027C39.8888 44.5696 40.0685 44.036 40.0685 43.4261C40.0685 42.8707 39.9133 42.4188 39.6029 42.0703C39.2926 41.7218 38.8842 41.4387 38.3778 41.2209C37.8714 41.0031 37.3242 40.8125 36.7361 40.6491L34.6779 40.0611C33.371 39.6854 32.3365 39.149 31.5742 38.4521C30.8119 37.7551 30.4307 36.843 30.4307 35.7159C30.4307 34.7794 30.6839 33.9626 31.1903 33.2656C31.7021 32.5632 32.3882 32.0187 33.2485 31.6321C34.1143 31.2401 35.0808 31.044 36.148 31.044C37.2262 31.044 38.1845 31.2373 39.023 31.6239C39.8616 32.0051 40.5259 32.5278 41.0159 33.1921C41.5114 33.8564 41.7728 34.6106 41.8 35.4545H39.8398Z" fill="white"/>
</svg>
