<svg width="71" height="67" fill="none" xmlns="http://www.w3.org/2000/svg"><path d="m38.606 27.8-6.933-4.574a9.5 9.5 0 0 0-13.162 2.698L8.853 40.562a9.5 9.5 0 0 0 2.697 13.162l6.934 4.575A9.5 9.5 0 0 0 31.646 55.6l9.658-14.639a9.5 9.5 0 0 0-2.698-13.161z" stroke="#1B13C0" stroke-width="5"/><path d="m59.606 13.8-6.933-4.574a9.5 9.5 0 0 0-13.162 2.698l-9.658 14.638a9.5 9.5 0 0 0 2.697 13.162l6.934 4.575A9.5 9.5 0 0 0 52.646 41.6l9.658-14.639a9.5 9.5 0 0 0-2.698-13.161z" stroke="#F72585" stroke-width="5"/></svg>