<svg width="56" height="53" fill="none" xmlns="http://www.w3.org/2000/svg"><path d="m1 7.938 10.723 3.785v32.8L1 40.738v-32.8z" fill="#3D6627" stroke="#C8C7B1" stroke-width=".114"/><path d="m11.723 11.723 18.293-6.939v32.8l-18.293 6.939" fill="#3D6627"/><path d="m11.723 11.723 18.293-6.939v32.8l-18.293 6.939" stroke="#C8C7B1" stroke-width=".114"/><path d="M1 7.938 20.554 1l9.335 3.785-18.166 6.938L1 7.938z" fill="#7E976E" stroke="#274116" stroke-width=".126"/><path d="M2.64 7.939 20.554 1.63l7.822 3.154-16.653 6.307L2.766 7.94" stroke="#3D6627" stroke-width=".252"/><path d="m1 9.2 10.723 3.785zm0 1.262 10.723 3.784zm0 1.261 10.723 3.785zm0 1.262 10.723 3.784zm0 1.261 10.723 3.785zm0 1.262 10.723 3.785zm0 1.261 10.723 3.785zm0 1.262 10.723 3.785zm0 1.262 10.723 3.784zm0 1.261 10.723 3.785zm0 1.262L11.723 25.6zm0 1.261 10.723 3.785zm0 1.262 10.723 3.784zM1 25.6l10.723 3.785zm0 1.262 10.723 3.784zm0 1.261 10.723 3.785zm0 1.262 10.723 3.784zm0 1.261 10.723 3.785zm0 1.262 10.723 3.785zm0 1.261 10.723 3.785zm0 1.262 10.723 3.785zm0 1.262 10.723 3.784zm0 1.261 10.723 3.785zm0 1.262L11.723 42zm0 1.261 10.723 3.785z" fill="#CCE0D1"/><path d="m1 9.2 10.723 3.785M1 10.462l10.723 3.784M1 11.723l10.723 3.785M1 12.985l10.723 3.784M1 14.246l10.723 3.785M1 15.508l10.723 3.785M1 16.768l10.723 3.785M1 18.031l10.723 3.785M1 19.293l10.723 3.784M1 20.554l10.723 3.785M1 21.816 11.723 25.6M1 23.077l10.723 3.785M1 24.339l10.723 3.784M1 25.6l10.723 3.785M1 26.862l10.723 3.784M1 28.123l10.723 3.785M1 29.385l10.723 3.784M1 30.646l10.723 3.785M1 31.908l10.723 3.785M1 33.169l10.723 3.785M1 34.431l10.723 3.785M1 35.693l10.723 3.784M1 36.954l10.723 3.785M1 38.216 11.723 42M1 39.477l10.723 3.785" stroke="#274116" stroke-width=".252"/><path d="M11.723 12.985 29.89 6.046zm0 1.261L29.89 7.308zm0 1.262L29.89 8.569zm0 1.262L29.89 9.83zm0 1.261 18.166-6.938zm0 1.262 18.166-6.939zm0 1.261 18.166-6.938zm0 1.262 18.166-6.939zm0 1.261L29.89 16.14zm0 1.262L29.89 17.4zm0 1.261 18.166-6.938zm0 1.262 18.166-6.939zm0 1.261 18.166-6.938zm0 1.262 18.166-6.939zm0 1.261 18.166-6.938zm0 1.262 18.166-6.939zm0 1.261 18.166-6.938zm0 1.262 18.166-6.938zm0 1.262 18.166-6.939zm0 1.261 18.166-6.938zm0 1.262 18.166-6.939zm0 1.261L29.89 32.54zm0 1.262L29.89 33.8zm0 1.261 18.166-6.938zm0 1.262 18.166-6.939z" fill="#CCE0D1"/><path d="M11.723 12.985 29.89 6.046m-18.166 8.2L29.89 7.308m-18.166 8.2L29.89 8.569m-18.166 8.2L29.89 9.832m-18.166 8.2 18.166-6.938m-18.166 8.2 18.166-6.939m-18.166 8.2 18.166-6.938m-18.166 8.2 18.166-6.939m-18.166 8.2L29.89 16.14m-18.166 8.2L29.89 17.4m-18.166 8.2 18.166-6.938m-18.166 8.2 18.166-6.939m-18.166 8.2 18.166-6.938m-18.166 8.2 18.166-6.939m-18.166 8.2 18.166-6.938m-18.166 8.2 18.166-6.939m-18.166 8.2 18.166-6.938m-18.166 8.2 18.166-6.938m-18.166 8.2 18.166-6.939m-18.166 8.2 18.166-6.938m-18.166 8.2 18.166-6.939m-18.166 8.2L29.89 32.54m-18.166 8.2L29.89 33.8M11.723 42l18.166-6.938m-18.166 8.2 18.166-6.939" stroke="#274116" stroke-width=".252"/><path d="m8.443 5.162 9.588 3.785 4.415-1.64-9.461-3.785" fill="#E5E5D5"/><path d="m8.443 5.162 9.588 3.785 4.415-1.64-9.461-3.785" stroke="#E5E5D5" stroke-width=".013"/><path d="M18.031 8.947v33.179l4.416-1.64V7.307" fill="#C8C7B1"/><path d="M18.031 8.947v33.179l4.416-1.64V7.307" stroke="red" stroke-width=".013"/><path d="m13.742 22.067 10.723 3.785V48.56l-10.723-3.785V22.067z" fill="#3D6627" stroke="#C8C7B1" stroke-width=".114"/><path d="m24.464 25.852 18.293-6.938v22.708L24.464 48.56" fill="#3D6627"/><path d="m24.464 25.852 18.293-6.938v22.708L24.464 48.56" stroke="#C8C7B1" stroke-width=".114"/><path d="m13.742 22.068 19.553-6.939 9.336 3.785-18.166 6.938-10.723-3.784z" fill="#7E976E" stroke="#274116" stroke-width=".126"/><path d="m15.382 22.067 17.914-6.307 7.821 3.154-16.652 6.307-8.957-3.154" stroke="#3D6627" stroke-width=".252"/><path d="m13.742 23.329 10.723 3.784zm0 1.261 10.723 3.785zm0 1.262 10.723 3.784zm0 1.261 10.723 3.785zm0 1.262 10.723 3.784zm0 1.261 10.723 3.785zm0 1.262 10.723 3.784zm0 1.261 10.723 3.785zm0 1.262 10.723 3.785zm0 1.261 10.723 3.785zm0 1.262 10.723 3.785zm0 1.261 10.723 3.785zm0 1.262 10.723 3.785zm0 1.262 10.723 3.784zm0 1.261 10.723 3.785zm0 1.262 10.723 3.784zm0 1.261 10.723 3.785z" fill="#CCE0D1"/><path d="m13.742 23.329 10.723 3.784M13.742 24.59l10.723 3.785m-10.723-2.523 10.723 3.784m-10.723-2.523 10.723 3.785m-10.723-2.523 10.723 3.784m-10.723-2.523 10.723 3.785m-10.723-2.523 10.723 3.784M13.742 32.16l10.723 3.785m-10.723-2.523 10.723 3.785m-10.723-2.524 10.723 3.785m-10.723-2.523 10.723 3.785m-10.723-2.523 10.723 3.784m-10.723-2.523 10.723 3.785m-10.723-2.523 10.723 3.784M13.742 40.99l10.723 3.785m-10.723-2.523 10.723 3.784m-10.723-2.523 10.723 3.785" stroke="#274116" stroke-width=".252"/><path d="m24.464 27.114 18.166-6.938zm0 1.262 18.166-6.939zm0 1.261L42.63 22.7zm0 1.262L42.63 23.96zm0 1.261 18.166-6.938zm0 1.262 18.166-6.938zm0 1.262 18.166-6.939zm0 1.261 18.166-6.938zm0 1.262 18.166-6.939zm0 1.261L42.63 31.53zm0 1.262L42.63 32.79zm0 1.261 18.166-6.938zm0 1.262 18.166-6.939zm0 1.261 18.166-6.938zm0 1.262 18.166-6.939zm0 1.261L42.63 39.1zm0 1.262L42.63 40.36z" fill="#CCE0D1"/><path d="m24.464 27.114 18.166-6.938m-18.166 8.2 18.166-6.939m-18.166 8.2L42.63 22.7m-18.166 8.2L42.63 23.96m-18.166 8.2 18.166-6.938m-18.166 8.2 18.166-6.938m-18.166 8.2 18.166-6.939m-18.166 8.2 18.166-6.938m-18.166 8.2 18.166-6.939m-18.166 8.2L42.63 31.53m-18.166 8.2L42.63 32.79m-18.166 8.2 18.166-6.938m-18.166 8.2 18.166-6.939m-18.166 8.2 18.166-6.938m-18.166 8.2 18.166-6.939m-18.166 8.2L42.63 39.1m-18.166 8.2L42.63 40.36" stroke="#274116" stroke-width=".252"/><path d="m21.185 19.292 9.588 3.784 4.415-1.64-9.461-3.784" fill="#E5E5D5"/><path d="m21.185 19.292 9.588 3.784 4.415-1.64-9.461-3.784" stroke="#E5E5D5" stroke-width=".013"/><path d="M30.773 23.076v23.087l4.415-1.64V21.436" fill="#C8C7B1"/><path d="M30.773 23.076v23.087l4.415-1.64V21.436" stroke="red" stroke-width=".013"/><path d="m26.357 36.07 10.723 3.785V52.47l-10.723-3.784V36.07z" fill="#3D6627" stroke="#C8C7B1" stroke-width=".114"/><path d="m37.08 39.855 18.292-6.938v12.615L37.08 52.471" fill="#3D6627"/><path d="m37.08 39.855 18.292-6.938v12.615L37.08 52.471" stroke="#C8C7B1" stroke-width=".114"/><path d="m26.357 36.07 19.554-6.938 9.335 3.785-18.166 6.938-10.723-3.784z" fill="#7E976E" stroke="#274116" stroke-width=".126"/><path d="m27.997 36.07 17.914-6.307 7.822 3.154-16.653 6.308-8.957-3.154" stroke="#3D6627" stroke-width=".252"/><path d="m26.357 37.332 10.723 3.785zm0 1.262 10.723 3.784zm0 1.261L37.08 43.64zm0 1.262L37.08 44.9zm0 1.261 10.723 3.785zm0 1.262 10.723 3.784zm0 1.261 10.723 3.785zm0 1.262 10.723 3.784zm0 1.261L37.08 51.21z" fill="#CCE0D1"/><path d="m26.357 37.332 10.723 3.785m-10.723-2.523 10.723 3.784m-10.723-2.523L37.08 43.64m-10.723-2.523L37.08 44.9m-10.723-2.523 10.723 3.785M26.357 43.64l10.723 3.784m-10.723-2.523 10.723 3.785m-10.723-2.523 10.723 3.784m-10.723-2.523L37.08 51.21" stroke="#274116" stroke-width=".252"/><path d="m37.08 41.116 18.166-6.938zm0 1.262 18.166-6.939zm0 1.261 18.166-6.938zm0 1.262 18.166-6.939zm0 1.261 18.166-6.938zm0 1.262 18.166-6.939zm0 1.261 18.166-6.938zm0 1.262 18.166-6.939zm0 1.261 18.166-6.938z" fill="#CCE0D1"/><path d="m37.08 41.116 18.166-6.938m-18.166 8.2 18.166-6.939m-18.166 8.2 18.166-6.938M37.08 44.9l18.166-6.939m-18.166 8.2 18.166-6.938m-18.166 8.2 18.166-6.939m-18.166 8.2 18.166-6.938m-18.166 8.2 18.166-6.939m-18.166 8.2 18.166-6.938" stroke="#274116" stroke-width=".252"/><path d="m33.8 33.295 9.588 3.785 4.415-1.64-9.461-3.785" fill="#E5E5D5"/><path d="m33.8 33.295 9.588 3.785 4.415-1.64-9.461-3.785" stroke="#E5E5D5" stroke-width=".013"/><path d="M43.388 37.08v12.993l4.415-1.64V35.44" fill="#C8C7B1"/><path d="M43.388 37.08v12.993l4.415-1.64V35.44" stroke="red" stroke-width=".013"/></svg>