<svg width="56" height="54" fill="none" xmlns="http://www.w3.org/2000/svg"><path d="m50.588 9.85-8.757-7.726c-.67-.591-1.955-.228-2.872.811L5.582 40.767c-.916 1.039-1.117 2.36-.447 2.95l8.757 7.726c.67.591 1.955.228 2.872-.811L50.14 12.8c.916-1.039 1.117-2.36.447-2.95z" fill="#02F5A8"/><path d="m45.18 9.254 2.173 1.973M43.154 11.523l.598.543M41.128 13.79l2.174 1.973M39.102 16.059l.6.543M37.077 18.327l2.174 1.972M35.05 20.595l.6.543M33.025 22.863l2.174 1.973M31 25.13l.598.544" stroke="#fff" stroke-width="1.616" stroke-linecap="round"/><path d="M10.343 4.939 26.529 9.78c-2.645 2.021-3.34 6.42-.913 9.595l-5.176 3.955c-2.418-3.165-6.987-3.357-9.528-1.415l-.57-16.977zm0 0 5.859 7.667" stroke="#02F5A8" stroke-width="2.199"/><path d="M28.232 19.392 19.3 26.218l.74.967 8.932-6.826-.739-.967zM18.266 12.82c.383.502.284 1.357-.415 1.891s-1.55.405-1.933-.096c-.384-.501-.284-1.357.415-1.89.699-.535 1.55-.406 1.933.095z" stroke="#02F5A8" stroke-width="1.1"/><path d="m30.503 21.498-9.427 7.204L36.564 48.97l9.427-7.204-15.488-20.268z" fill="#fff" stroke="#02F5A8" stroke-width="3.299"/></svg>