<svg width="40" height="39" viewBox="0 0 40 39" fill="none" xmlns="http://www.w3.org/2000/svg">
<path d="M23.98 15.8401C24.78 13.8201 23.9 12.5001 22.5 11.4501C20.61 10.0301 17.77 9.10006 16.78 7.58006C15.51 5.97006 15.7 4.07006 16.67 2.62006C17.77 0.960059 19.88 -0.119942 21.94 0.470058C28.1 2.13006 29.75 12.6601 23.98 15.8301V15.8401Z" fill="#F15721"/>
<path d="M25.38 18.2C29.37 15.04 23.44 10.59 23.27 7.45003C22.63 3.09003 28.5 0.980026 31.29 3.88003C35.79 8.40003 31.96 18.34 25.37 18.21L25.38 18.2Z" fill="#F7931E"/>
<path d="M25.4 20.95C30.44 20.21 27.53 13.39 28.95 10.58C30.57 6.49003 36.71 7.59003 37.69 11.5C39.33 17.66 31.04 24.36 25.4 20.95Z" fill="#FBB819"/>
<path d="M24.05 23.35C28.78 25.23 29.67 17.87 32.31 16.15C35.76 13.42 40.52 17.44 39.42 21.31C37.76 27.47 27.23 29.12 24.06 23.35H24.05Z" fill="#FFDD15"/>
<path d="M21.68 24.7399C24.84 28.7299 29.29 22.7999 32.43 22.6299C36.79 21.9899 38.9 27.8599 36 30.6499C31.48 35.1499 21.54 31.3199 21.67 24.7299L21.68 24.7399Z" fill="#82C030"/>
<path d="M18.93 24.77C19.67 29.81 26.49 26.9 29.3 28.32C33.39 29.94 32.29 36.08 28.38 37.06C22.22 38.7 15.52 30.41 18.93 24.77Z" fill="#00A14B"/>
<path d="M16.53 23.42C14.65 28.15 22.01 29.04 23.73 31.68C26.46 35.13 22.44 39.89 18.57 38.79C12.41 37.13 10.76 26.6 16.53 23.43V23.42Z" fill="#00A79E"/>
<path d="M15.14 21.05C11.15 24.21 17.08 28.66 17.25 31.8C17.89 36.16 12.02 38.27 9.22998 35.37C4.72998 30.85 8.55998 20.91 15.15 21.04L15.14 21.05Z" fill="#00ADEE"/>
<path d="M15.11 18.3C10.07 19.04 12.98 25.86 11.56 28.67C9.93997 32.76 3.79998 31.66 2.81998 27.75C1.17998 21.59 9.46997 14.89 15.11 18.3Z" fill="#326EC0"/>
<path d="M16.47 15.9C11.74 14.02 10.85 21.38 8.20997 23.1C4.75997 25.83 -3.13818e-05 21.81 1.09997 17.94C2.75997 11.78 13.29 10.13 16.46 15.9H16.47Z" fill="#662D91"/>
<path d="M18.84 14.51C15.68 10.52 11.23 16.45 8.08997 16.62C3.72997 17.26 1.61998 11.39 4.51998 8.59997C9.03998 4.09997 18.98 7.92997 18.85 14.52L18.84 14.51Z" fill="#A9255B"/>
<path d="M22.5 11.4401C22.45 12.4901 22.16 13.5201 21.59 14.4801C20.85 9.44005 14.03 12.3501 11.22 10.9301C7.12999 9.30005 8.23999 3.17005 12.14 2.19005C13.67 1.78005 15.23 1.99005 16.67 2.61005C15.7 4.06005 15.51 5.96005 16.78 7.57005C17.77 9.08005 20.61 10.0201 22.5 11.4401Z" fill="#EC1C24"/>
</svg>
